<mxfile host="app.diagrams.net" modified="2022-03-08T12:48:33.493Z" agent="5.0 (X11; Linux x86_64) AppleWebKit/537.36 (KHTML, like Gecko) Chrome/99.0.4844.51 Safari/537.36" etag="VvdWWo02SsokP_w5yHDN" version="16.6.7" type="github">
  <diagram id="R2lEEEUBdFMjLlhIrx00" name="Page-1">
    <mxGraphModel dx="3435" dy="1445" grid="1" gridSize="10" guides="1" tooltips="1" connect="1" arrows="1" fold="1" page="1" pageScale="1" pageWidth="850" pageHeight="1100" math="0" shadow="0" extFonts="Permanent Marker^https://fonts.googleapis.com/css?family=Permanent+Marker">
      <root>
        <mxCell id="0" />
        <mxCell id="1" parent="0" />
        <mxCell id="C1Lx6RwTq1piZFSp2DUt-427" value="" style="shape=note;size=20;whiteSpace=wrap;html=1;rounded=1;shadow=0;sketch=0;fillColor=#fff2cc;align=right;strokeColor=#d6b656;" vertex="1" parent="1">
          <mxGeometry x="1590" y="960" width="960" height="560" as="geometry" />
        </mxCell>
        <mxCell id="C1Lx6RwTq1piZFSp2DUt-428" value="" style="shape=note;size=20;whiteSpace=wrap;html=1;rounded=1;shadow=0;sketch=0;fillColor=#d5e8d4;strokeColor=#82b366;" vertex="1" parent="1">
          <mxGeometry x="540" y="1510" width="1330" height="880" as="geometry" />
        </mxCell>
        <mxCell id="C1Lx6RwTq1piZFSp2DUt-426" value="" style="shape=note;size=20;whiteSpace=wrap;html=1;rounded=1;shadow=0;sketch=0;fillColor=#dae8fc;strokeColor=#6c8ebf;" vertex="1" parent="1">
          <mxGeometry x="350" y="420" width="1210" height="930" as="geometry" />
        </mxCell>
        <UserObject label="" lucidchartObjectId="g.TYRhDjpyAQ" id="C1Lx6RwTq1piZFSp2DUt-48">
          <mxCell style="html=1;jettySize=18;whiteSpace=wrap;fontSize=13;strokeColor=#000000;strokeWidth=1.5;rounded=1;arcSize=12;edgeStyle=orthogonalEdgeStyle;startArrow=ERone;startSize=16;endArrow=ERmandOne;endSize=16;endFill=0;startFill=0;entryX=0;entryY=0.5;entryDx=0;entryDy=0;exitX=1;exitY=0.5;exitDx=0;exitDy=0;" edge="1" parent="1" source="C1Lx6RwTq1piZFSp2DUt-316" target="C1Lx6RwTq1piZFSp2DUt-332">
            <mxGeometry width="100" height="100" relative="1" as="geometry">
              <Array as="points">
                <mxPoint x="420" y="1365" />
                <mxPoint x="420" y="575" />
              </Array>
              <mxPoint x="200" y="1370" as="sourcePoint" />
              <mxPoint x="520" y="650" as="targetPoint" />
            </mxGeometry>
          </mxCell>
        </UserObject>
        <mxCell id="C1Lx6RwTq1piZFSp2DUt-49" value="Resume" style="html=1;overflow=block;blockSpacing=1;swimlane;resizeParent=1;resizeParentMax=0;resizeLast=0;collapsible=0;marginBottom=0;fontStyle=0;swimlaneFillColor=#ffffff;startSize=30;whiteSpace=wrap;fontSize=13;fontColor=default;fillColor=#ffffff;spacing=0;strokeColor=#5e5e5e;strokeOpacity=100;fillOpacity=100;rounded=1;absoluteArcSize=1;arcSize=9;strokeWidth=2.3;" vertex="1" parent="1">
          <mxGeometry x="615" y="1558" width="195" height="102" as="geometry" />
        </mxCell>
        <mxCell id="C1Lx6RwTq1piZFSp2DUt-50" value="PK" style="strokeColor=none;part=1;resizeHeight=0;align=center;verticalAlign=top;spacingLeft=4;spacingRight=4;overflow=hidden;rotatable=0;points=[[0,0.5],[1,0.5]];portConstraint=eastwest;swimlaneFillColor=#ffffff;whiteSpace=wrap;fontSize=13;fontColor=default;fillColor=none;strokeOpacity=100;fillOpacity=100;spacing=0;rounded=1;absoluteArcSize=1;arcSize=9;strokeWidth=2.3;" vertex="1" parent="C1Lx6RwTq1piZFSp2DUt-49">
          <mxGeometry y="30" width="30" height="24" as="geometry" />
        </mxCell>
        <mxCell id="C1Lx6RwTq1piZFSp2DUt-51" value="ID" style="shape=partialRectangle;top=0;right=0;bottom=0;part=1;resizeHeight=0;align=left;verticalAlign=top;spacingLeft=4;spacingRight=4;overflow=hidden;rotatable=0;points=[[0,0.5],[1,0.5]];portConstraint=eastwest;swimlaneFillColor=#ffffff;whiteSpace=wrap;fontSize=13;fontColor=default;fillColor=none;strokeOpacity=100;fillOpacity=100;spacing=0;strokeColor=#5e5e5e;rounded=1;absoluteArcSize=1;arcSize=9;strokeWidth=2.3;" vertex="1" parent="C1Lx6RwTq1piZFSp2DUt-49">
          <mxGeometry x="30" y="30" width="125" height="24" as="geometry" />
        </mxCell>
        <mxCell id="C1Lx6RwTq1piZFSp2DUt-52" value="UUID" style="shape=partialRectangle;top=0;right=0;bottom=0;part=1;resizeHeight=0;align=left;verticalAlign=top;spacingLeft=4;spacingRight=4;overflow=hidden;rotatable=0;points=[[0,0.5],[1,0.5]];portConstraint=eastwest;swimlaneFillColor=#ffffff;whiteSpace=wrap;fontSize=13;fontColor=default;fillColor=none;strokeOpacity=100;fillOpacity=100;spacing=0;strokeColor=#5e5e5e;rounded=1;absoluteArcSize=1;arcSize=9;strokeWidth=2.3;" vertex="1" parent="C1Lx6RwTq1piZFSp2DUt-49">
          <mxGeometry x="155" y="30" width="40" height="24" as="geometry" />
        </mxCell>
        <mxCell id="C1Lx6RwTq1piZFSp2DUt-53" value="FK" style="strokeColor=none;part=1;resizeHeight=0;align=center;verticalAlign=top;spacingLeft=4;spacingRight=4;overflow=hidden;rotatable=0;points=[[0,0.5],[1,0.5]];portConstraint=eastwest;swimlaneFillColor=#ffffff;whiteSpace=wrap;fontSize=13;fontColor=default;fillColor=none;strokeOpacity=100;fillOpacity=100;spacing=0;rounded=1;absoluteArcSize=1;arcSize=9;strokeWidth=2.3;" vertex="1" parent="C1Lx6RwTq1piZFSp2DUt-49">
          <mxGeometry y="54" width="30" height="24" as="geometry" />
        </mxCell>
        <mxCell id="C1Lx6RwTq1piZFSp2DUt-54" value="User" style="shape=partialRectangle;top=0;right=0;bottom=0;part=1;resizeHeight=0;align=left;verticalAlign=top;spacingLeft=4;spacingRight=4;overflow=hidden;rotatable=0;points=[[0,0.5],[1,0.5]];portConstraint=eastwest;swimlaneFillColor=#ffffff;whiteSpace=wrap;fontSize=13;fontColor=default;fillColor=none;strokeOpacity=100;fillOpacity=100;spacing=0;strokeColor=#5e5e5e;rounded=1;absoluteArcSize=1;arcSize=9;strokeWidth=2.3;" vertex="1" parent="C1Lx6RwTq1piZFSp2DUt-49">
          <mxGeometry x="30" y="54" width="125" height="24" as="geometry" />
        </mxCell>
        <mxCell id="C1Lx6RwTq1piZFSp2DUt-55" value="" style="shape=partialRectangle;top=0;right=0;bottom=0;part=1;resizeHeight=0;align=left;verticalAlign=top;spacingLeft=4;spacingRight=4;overflow=hidden;rotatable=0;points=[[0,0.5],[1,0.5]];portConstraint=eastwest;swimlaneFillColor=#ffffff;whiteSpace=wrap;fontSize=13;fillColor=none;strokeOpacity=100;fillOpacity=100;spacing=0;strokeColor=#5e5e5e;rounded=1;absoluteArcSize=1;arcSize=9;strokeWidth=2.3;" vertex="1" parent="C1Lx6RwTq1piZFSp2DUt-49">
          <mxGeometry x="155" y="54" width="40" height="24" as="geometry" />
        </mxCell>
        <mxCell id="C1Lx6RwTq1piZFSp2DUt-56" value="" style="strokeColor=none;part=1;resizeHeight=0;align=center;verticalAlign=top;spacingLeft=4;spacingRight=4;overflow=hidden;rotatable=0;points=[[0,0.5],[1,0.5]];portConstraint=eastwest;swimlaneFillColor=#ffffff;whiteSpace=wrap;fontSize=13;fillColor=none;strokeOpacity=100;fillOpacity=100;spacing=0;rounded=1;absoluteArcSize=1;arcSize=9;strokeWidth=2.3;" vertex="1" parent="C1Lx6RwTq1piZFSp2DUt-49">
          <mxGeometry y="78" width="30" height="24" as="geometry" />
        </mxCell>
        <mxCell id="C1Lx6RwTq1piZFSp2DUt-57" value="Sumary" style="shape=partialRectangle;top=0;right=0;bottom=0;part=1;resizeHeight=0;align=left;verticalAlign=top;spacingLeft=4;spacingRight=4;overflow=hidden;rotatable=0;points=[[0,0.5],[1,0.5]];portConstraint=eastwest;swimlaneFillColor=#ffffff;whiteSpace=wrap;fontSize=13;fontColor=default;fillColor=none;strokeOpacity=100;fillOpacity=100;spacing=0;strokeColor=#5e5e5e;rounded=1;absoluteArcSize=1;arcSize=9;strokeWidth=2.3;" vertex="1" parent="C1Lx6RwTq1piZFSp2DUt-49">
          <mxGeometry x="30" y="78" width="125" height="24" as="geometry" />
        </mxCell>
        <mxCell id="C1Lx6RwTq1piZFSp2DUt-58" value="MarkDown" style="shape=partialRectangle;top=0;right=0;bottom=0;part=1;resizeHeight=0;align=left;verticalAlign=top;spacingLeft=4;spacingRight=4;overflow=hidden;rotatable=0;points=[[0,0.5],[1,0.5]];portConstraint=eastwest;swimlaneFillColor=#ffffff;whiteSpace=wrap;fontSize=13;fontColor=default;fillColor=none;strokeOpacity=100;fillOpacity=100;spacing=0;strokeColor=#5e5e5e;rounded=1;absoluteArcSize=1;arcSize=9;strokeWidth=2.3;" vertex="1" parent="C1Lx6RwTq1piZFSp2DUt-49">
          <mxGeometry x="155" y="78" width="40" height="24" as="geometry" />
        </mxCell>
        <mxCell id="C1Lx6RwTq1piZFSp2DUt-59" value="CurriculumVitae" style="html=1;overflow=block;blockSpacing=1;swimlane;resizeParent=1;resizeParentMax=0;resizeLast=0;collapsible=0;marginBottom=0;fontStyle=0;swimlaneFillColor=#ffffff;startSize=30;whiteSpace=wrap;fontSize=13;fontColor=default;fillColor=#ffffff;spacing=0;strokeColor=#5e5e5e;strokeOpacity=100;fillOpacity=100;rounded=1;absoluteArcSize=1;arcSize=9;strokeWidth=2.3;" vertex="1" parent="1">
          <mxGeometry x="600" y="1717" width="192" height="102" as="geometry" />
        </mxCell>
        <mxCell id="C1Lx6RwTq1piZFSp2DUt-60" value="PK" style="strokeColor=none;part=1;resizeHeight=0;align=center;verticalAlign=top;spacingLeft=4;spacingRight=4;overflow=hidden;rotatable=0;points=[[0,0.5],[1,0.5]];portConstraint=eastwest;swimlaneFillColor=#ffffff;whiteSpace=wrap;fontSize=13;fontColor=default;fillColor=none;strokeOpacity=100;fillOpacity=100;spacing=0;rounded=1;absoluteArcSize=1;arcSize=9;strokeWidth=2.3;" vertex="1" parent="C1Lx6RwTq1piZFSp2DUt-59">
          <mxGeometry y="30" width="30" height="24" as="geometry" />
        </mxCell>
        <mxCell id="C1Lx6RwTq1piZFSp2DUt-61" value="ID" style="shape=partialRectangle;top=0;right=0;bottom=0;part=1;resizeHeight=0;align=left;verticalAlign=top;spacingLeft=4;spacingRight=4;overflow=hidden;rotatable=0;points=[[0,0.5],[1,0.5]];portConstraint=eastwest;swimlaneFillColor=#ffffff;whiteSpace=wrap;fontSize=13;fontColor=default;fillColor=none;strokeOpacity=100;fillOpacity=100;spacing=0;strokeColor=#5e5e5e;rounded=1;absoluteArcSize=1;arcSize=9;strokeWidth=2.3;" vertex="1" parent="C1Lx6RwTq1piZFSp2DUt-59">
          <mxGeometry x="30" y="30" width="122" height="24" as="geometry" />
        </mxCell>
        <mxCell id="C1Lx6RwTq1piZFSp2DUt-62" value="UUID" style="shape=partialRectangle;top=0;right=0;bottom=0;part=1;resizeHeight=0;align=left;verticalAlign=top;spacingLeft=4;spacingRight=4;overflow=hidden;rotatable=0;points=[[0,0.5],[1,0.5]];portConstraint=eastwest;swimlaneFillColor=#ffffff;whiteSpace=wrap;fontSize=13;fontColor=default;fillColor=none;strokeOpacity=100;fillOpacity=100;spacing=0;strokeColor=#5e5e5e;rounded=1;absoluteArcSize=1;arcSize=9;strokeWidth=2.3;" vertex="1" parent="C1Lx6RwTq1piZFSp2DUt-59">
          <mxGeometry x="152" y="30" width="40" height="24" as="geometry" />
        </mxCell>
        <mxCell id="C1Lx6RwTq1piZFSp2DUt-63" value="FK" style="strokeColor=none;part=1;resizeHeight=0;align=center;verticalAlign=top;spacingLeft=4;spacingRight=4;overflow=hidden;rotatable=0;points=[[0,0.5],[1,0.5]];portConstraint=eastwest;swimlaneFillColor=#ffffff;whiteSpace=wrap;fontSize=13;fontColor=default;fillColor=none;strokeOpacity=100;fillOpacity=100;spacing=0;rounded=1;absoluteArcSize=1;arcSize=9;strokeWidth=2.3;" vertex="1" parent="C1Lx6RwTq1piZFSp2DUt-59">
          <mxGeometry y="54" width="30" height="24" as="geometry" />
        </mxCell>
        <mxCell id="C1Lx6RwTq1piZFSp2DUt-64" value="User" style="shape=partialRectangle;top=0;right=0;bottom=0;part=1;resizeHeight=0;align=left;verticalAlign=top;spacingLeft=4;spacingRight=4;overflow=hidden;rotatable=0;points=[[0,0.5],[1,0.5]];portConstraint=eastwest;swimlaneFillColor=#ffffff;whiteSpace=wrap;fontSize=13;fontColor=default;fillColor=none;strokeOpacity=100;fillOpacity=100;spacing=0;strokeColor=#5e5e5e;rounded=1;absoluteArcSize=1;arcSize=9;strokeWidth=2.3;" vertex="1" parent="C1Lx6RwTq1piZFSp2DUt-59">
          <mxGeometry x="30" y="54" width="122" height="24" as="geometry" />
        </mxCell>
        <mxCell id="C1Lx6RwTq1piZFSp2DUt-65" value="" style="shape=partialRectangle;top=0;right=0;bottom=0;part=1;resizeHeight=0;align=left;verticalAlign=top;spacingLeft=4;spacingRight=4;overflow=hidden;rotatable=0;points=[[0,0.5],[1,0.5]];portConstraint=eastwest;swimlaneFillColor=#ffffff;whiteSpace=wrap;fontSize=13;fillColor=none;strokeOpacity=100;fillOpacity=100;spacing=0;strokeColor=#5e5e5e;rounded=1;absoluteArcSize=1;arcSize=9;strokeWidth=2.3;" vertex="1" parent="C1Lx6RwTq1piZFSp2DUt-59">
          <mxGeometry x="152" y="54" width="40" height="24" as="geometry" />
        </mxCell>
        <mxCell id="C1Lx6RwTq1piZFSp2DUt-66" value="" style="strokeColor=none;part=1;resizeHeight=0;align=center;verticalAlign=top;spacingLeft=4;spacingRight=4;overflow=hidden;rotatable=0;points=[[0,0.5],[1,0.5]];portConstraint=eastwest;swimlaneFillColor=#ffffff;whiteSpace=wrap;fontSize=13;fillColor=none;strokeOpacity=100;fillOpacity=100;spacing=0;rounded=1;absoluteArcSize=1;arcSize=9;strokeWidth=2.3;" vertex="1" parent="C1Lx6RwTq1piZFSp2DUt-59">
          <mxGeometry y="78" width="30" height="24" as="geometry" />
        </mxCell>
        <mxCell id="C1Lx6RwTq1piZFSp2DUt-67" value="Sumary" style="shape=partialRectangle;top=0;right=0;bottom=0;part=1;resizeHeight=0;align=left;verticalAlign=top;spacingLeft=4;spacingRight=4;overflow=hidden;rotatable=0;points=[[0,0.5],[1,0.5]];portConstraint=eastwest;swimlaneFillColor=#ffffff;whiteSpace=wrap;fontSize=13;fontColor=default;fillColor=none;strokeOpacity=100;fillOpacity=100;spacing=0;strokeColor=#5e5e5e;rounded=1;absoluteArcSize=1;arcSize=9;strokeWidth=2.3;" vertex="1" parent="C1Lx6RwTq1piZFSp2DUt-59">
          <mxGeometry x="30" y="78" width="122" height="24" as="geometry" />
        </mxCell>
        <mxCell id="C1Lx6RwTq1piZFSp2DUt-68" value="MarkDown" style="shape=partialRectangle;top=0;right=0;bottom=0;part=1;resizeHeight=0;align=left;verticalAlign=top;spacingLeft=4;spacingRight=4;overflow=hidden;rotatable=0;points=[[0,0.5],[1,0.5]];portConstraint=eastwest;swimlaneFillColor=#ffffff;whiteSpace=wrap;fontSize=13;fontColor=default;fillColor=none;strokeOpacity=100;fillOpacity=100;spacing=0;strokeColor=#5e5e5e;rounded=1;absoluteArcSize=1;arcSize=9;strokeWidth=2.3;" vertex="1" parent="C1Lx6RwTq1piZFSp2DUt-59">
          <mxGeometry x="152" y="78" width="40" height="24" as="geometry" />
        </mxCell>
        <UserObject label="" lucidchartObjectId="EQ3Y5i.bJJNg" id="C1Lx6RwTq1piZFSp2DUt-91">
          <mxCell style="html=1;jettySize=18;whiteSpace=wrap;fontSize=13;strokeColor=#1A1A1A;strokeWidth=1.5;rounded=1;arcSize=12;edgeStyle=orthogonalEdgeStyle;startArrow=ERone;startSize=10;endArrow=ERzeroToOne;endSize=10;startFill=0;entryX=1;entryY=0.5;entryDx=0;entryDy=0;exitX=0;exitY=0.5;exitDx=0;exitDy=0;" edge="1" parent="1" source="C1Lx6RwTq1piZFSp2DUt-346" target="C1Lx6RwTq1piZFSp2DUt-329">
            <mxGeometry width="100" height="100" relative="1" as="geometry">
              <Array as="points">
                <mxPoint x="850" y="575" />
                <mxPoint x="850" y="545" />
              </Array>
              <mxPoint x="1040" y="770" as="sourcePoint" />
              <mxPoint x="900" y="550" as="targetPoint" />
            </mxGeometry>
          </mxCell>
        </UserObject>
        <UserObject label="" lucidchartObjectId="0VwZFwrsJFYA" id="C1Lx6RwTq1piZFSp2DUt-157">
          <mxCell style="html=1;jettySize=18;whiteSpace=wrap;fontSize=13;strokeColor=#1A1A1A;strokeWidth=1.5;rounded=1;arcSize=12;edgeStyle=orthogonalEdgeStyle;startArrow=ERmany;startSize=10;endArrow=ERzeroToOne;endSize=10;entryX=1;entryY=0.5;entryDx=0;entryDy=0;exitX=0;exitY=0.5;exitDx=0;exitDy=0;" edge="1" parent="1" source="C1Lx6RwTq1piZFSp2DUt-490" target="C1Lx6RwTq1piZFSp2DUt-329">
            <mxGeometry width="100" height="100" relative="1" as="geometry">
              <Array as="points">
                <mxPoint x="1170" y="1051" />
                <mxPoint x="1170" y="780" />
                <mxPoint x="850" y="780" />
                <mxPoint x="850" y="545" />
              </Array>
              <mxPoint x="1400" y="750" as="sourcePoint" />
              <mxPoint x="840" y="580" as="targetPoint" />
            </mxGeometry>
          </mxCell>
        </UserObject>
        <UserObject label="" lucidchartObjectId="3WwZ.9l3khhY" id="C1Lx6RwTq1piZFSp2DUt-158">
          <mxCell style="html=1;jettySize=18;whiteSpace=wrap;fontSize=13;strokeColor=#1A1A1A;strokeWidth=1.5;rounded=1;arcSize=12;edgeStyle=orthogonalEdgeStyle;startArrow=ERmany;startSize=10;endArrow=ERzeroToOne;endSize=10;exitX=0;exitY=0.5;entryX=1;entryY=0.5;entryDx=0;entryDy=0;exitDx=0;exitDy=0;" edge="1" parent="1" source="C1Lx6RwTq1piZFSp2DUt-503" target="C1Lx6RwTq1piZFSp2DUt-329">
            <mxGeometry width="100" height="100" relative="1" as="geometry">
              <Array as="points">
                <mxPoint x="850" y="875" />
                <mxPoint x="850" y="545" />
              </Array>
              <mxPoint x="912.8299999999999" y="956.0239999999999" as="sourcePoint" />
              <mxPoint x="840" y="750" as="targetPoint" />
            </mxGeometry>
          </mxCell>
        </UserObject>
        <mxCell id="C1Lx6RwTq1piZFSp2DUt-159" value="Project" style="html=1;overflow=block;blockSpacing=1;swimlane;resizeParent=1;resizeParentMax=0;resizeLast=0;collapsible=0;marginBottom=0;fontStyle=0;swimlaneFillColor=#ffffff;startSize=30;whiteSpace=wrap;fontSize=13;fontColor=default;fillColor=#ffffff;spacing=0;strokeColor=#5e5e5e;strokeOpacity=100;fillOpacity=100;rounded=1;absoluteArcSize=1;arcSize=9;strokeWidth=2.3;" vertex="1" parent="1">
          <mxGeometry x="765" y="1885" width="210" height="150" as="geometry" />
        </mxCell>
        <mxCell id="C1Lx6RwTq1piZFSp2DUt-160" value="PK" style="strokeColor=none;part=1;resizeHeight=0;align=center;verticalAlign=top;spacingLeft=4;spacingRight=4;overflow=hidden;rotatable=0;points=[[0,0.5],[1,0.5]];portConstraint=eastwest;swimlaneFillColor=#ffffff;whiteSpace=wrap;fontSize=13;fontColor=default;fillColor=none;strokeOpacity=100;fillOpacity=100;spacing=0;rounded=1;absoluteArcSize=1;arcSize=9;strokeWidth=2.3;" vertex="1" parent="C1Lx6RwTq1piZFSp2DUt-159">
          <mxGeometry y="30" width="30" height="24" as="geometry" />
        </mxCell>
        <mxCell id="C1Lx6RwTq1piZFSp2DUt-161" value="ID" style="shape=partialRectangle;top=0;right=0;bottom=0;part=1;resizeHeight=0;align=left;verticalAlign=top;spacingLeft=4;spacingRight=4;overflow=hidden;rotatable=0;points=[[0,0.5],[1,0.5]];portConstraint=eastwest;swimlaneFillColor=#ffffff;whiteSpace=wrap;fontSize=13;fontColor=default;fillColor=none;strokeOpacity=100;fillOpacity=100;spacing=0;strokeColor=#5e5e5e;rounded=1;absoluteArcSize=1;arcSize=9;strokeWidth=2.3;" vertex="1" parent="C1Lx6RwTq1piZFSp2DUt-159">
          <mxGeometry x="30" y="30" width="140" height="24" as="geometry" />
        </mxCell>
        <mxCell id="C1Lx6RwTq1piZFSp2DUt-162" value="UUID" style="shape=partialRectangle;top=0;right=0;bottom=0;part=1;resizeHeight=0;align=left;verticalAlign=top;spacingLeft=4;spacingRight=4;overflow=hidden;rotatable=0;points=[[0,0.5],[1,0.5]];portConstraint=eastwest;swimlaneFillColor=#ffffff;whiteSpace=wrap;fontSize=13;fontColor=default;fillColor=none;strokeOpacity=100;fillOpacity=100;spacing=0;strokeColor=#5e5e5e;rounded=1;absoluteArcSize=1;arcSize=9;strokeWidth=2.3;" vertex="1" parent="C1Lx6RwTq1piZFSp2DUt-159">
          <mxGeometry x="170" y="30" width="40" height="24" as="geometry" />
        </mxCell>
        <mxCell id="C1Lx6RwTq1piZFSp2DUt-163" value="FK" style="strokeColor=none;part=1;resizeHeight=0;align=center;verticalAlign=top;spacingLeft=4;spacingRight=4;overflow=hidden;rotatable=0;points=[[0,0.5],[1,0.5]];portConstraint=eastwest;swimlaneFillColor=#ffffff;whiteSpace=wrap;fontSize=13;fillColor=none;strokeOpacity=100;fillOpacity=100;spacing=0;rounded=1;absoluteArcSize=1;arcSize=9;strokeWidth=2.3;" vertex="1" parent="C1Lx6RwTq1piZFSp2DUt-159">
          <mxGeometry y="54" width="30" height="24" as="geometry" />
        </mxCell>
        <mxCell id="C1Lx6RwTq1piZFSp2DUt-164" value="User" style="shape=partialRectangle;top=0;right=0;bottom=0;part=1;resizeHeight=0;align=left;verticalAlign=top;spacingLeft=4;spacingRight=4;overflow=hidden;rotatable=0;points=[[0,0.5],[1,0.5]];portConstraint=eastwest;swimlaneFillColor=#ffffff;whiteSpace=wrap;fontSize=13;fillColor=none;strokeOpacity=100;fillOpacity=100;spacing=0;strokeColor=#5e5e5e;rounded=1;absoluteArcSize=1;arcSize=9;strokeWidth=2.3;" vertex="1" parent="C1Lx6RwTq1piZFSp2DUt-159">
          <mxGeometry x="30" y="54" width="140" height="24" as="geometry" />
        </mxCell>
        <mxCell id="C1Lx6RwTq1piZFSp2DUt-165" value="" style="shape=partialRectangle;top=0;right=0;bottom=0;part=1;resizeHeight=0;align=left;verticalAlign=top;spacingLeft=4;spacingRight=4;overflow=hidden;rotatable=0;points=[[0,0.5],[1,0.5]];portConstraint=eastwest;swimlaneFillColor=#ffffff;whiteSpace=wrap;fontSize=13;fillColor=none;strokeOpacity=100;fillOpacity=100;spacing=0;strokeColor=#5e5e5e;rounded=1;absoluteArcSize=1;arcSize=9;strokeWidth=2.3;" vertex="1" parent="C1Lx6RwTq1piZFSp2DUt-159">
          <mxGeometry x="170" y="54" width="40" height="24" as="geometry" />
        </mxCell>
        <mxCell id="C1Lx6RwTq1piZFSp2DUt-166" value="FK" style="strokeColor=none;part=1;resizeHeight=0;align=center;verticalAlign=top;spacingLeft=4;spacingRight=4;overflow=hidden;rotatable=0;points=[[0,0.5],[1,0.5]];portConstraint=eastwest;swimlaneFillColor=#ffffff;whiteSpace=wrap;fontSize=13;fillColor=none;strokeOpacity=100;fillOpacity=100;spacing=0;rounded=1;absoluteArcSize=1;arcSize=9;strokeWidth=2.3;" vertex="1" parent="C1Lx6RwTq1piZFSp2DUt-159">
          <mxGeometry y="78" width="30" height="24" as="geometry" />
        </mxCell>
        <mxCell id="C1Lx6RwTq1piZFSp2DUt-167" value="CV" style="shape=partialRectangle;top=0;right=0;bottom=0;part=1;resizeHeight=0;align=left;verticalAlign=top;spacingLeft=4;spacingRight=4;overflow=hidden;rotatable=0;points=[[0,0.5],[1,0.5]];portConstraint=eastwest;swimlaneFillColor=#ffffff;whiteSpace=wrap;fontSize=13;fillColor=none;strokeOpacity=100;fillOpacity=100;spacing=0;strokeColor=#5e5e5e;rounded=1;absoluteArcSize=1;arcSize=9;strokeWidth=2.3;" vertex="1" parent="C1Lx6RwTq1piZFSp2DUt-159">
          <mxGeometry x="30" y="78" width="140" height="24" as="geometry" />
        </mxCell>
        <mxCell id="C1Lx6RwTq1piZFSp2DUt-168" value="UUID" style="shape=partialRectangle;top=0;right=0;bottom=0;part=1;resizeHeight=0;align=left;verticalAlign=top;spacingLeft=4;spacingRight=4;overflow=hidden;rotatable=0;points=[[0,0.5],[1,0.5]];portConstraint=eastwest;swimlaneFillColor=#ffffff;whiteSpace=wrap;fontSize=13;fillColor=none;strokeOpacity=100;fillOpacity=100;spacing=0;strokeColor=#5e5e5e;rounded=1;absoluteArcSize=1;arcSize=9;strokeWidth=2.3;" vertex="1" parent="C1Lx6RwTq1piZFSp2DUt-159">
          <mxGeometry x="170" y="78" width="40" height="24" as="geometry" />
        </mxCell>
        <mxCell id="C1Lx6RwTq1piZFSp2DUt-169" value="" style="strokeColor=none;part=1;resizeHeight=0;align=center;verticalAlign=top;spacingLeft=4;spacingRight=4;overflow=hidden;rotatable=0;points=[[0,0.5],[1,0.5]];portConstraint=eastwest;swimlaneFillColor=#ffffff;whiteSpace=wrap;fontSize=13;fillColor=none;strokeOpacity=100;fillOpacity=100;spacing=0;rounded=1;absoluteArcSize=1;arcSize=9;strokeWidth=2.3;" vertex="1" parent="C1Lx6RwTq1piZFSp2DUt-159">
          <mxGeometry y="102" width="30" height="24" as="geometry" />
        </mxCell>
        <mxCell id="C1Lx6RwTq1piZFSp2DUt-170" value="Copy" style="shape=partialRectangle;top=0;right=0;bottom=0;part=1;resizeHeight=0;align=left;verticalAlign=top;spacingLeft=4;spacingRight=4;overflow=hidden;rotatable=0;points=[[0,0.5],[1,0.5]];portConstraint=eastwest;swimlaneFillColor=#ffffff;whiteSpace=wrap;fontSize=13;fillColor=none;strokeOpacity=100;fillOpacity=100;spacing=0;strokeColor=#5e5e5e;rounded=1;absoluteArcSize=1;arcSize=9;strokeWidth=2.3;" vertex="1" parent="C1Lx6RwTq1piZFSp2DUt-159">
          <mxGeometry x="30" y="102" width="140" height="24" as="geometry" />
        </mxCell>
        <mxCell id="C1Lx6RwTq1piZFSp2DUt-171" value="MarkDown" style="shape=partialRectangle;top=0;right=0;bottom=0;part=1;resizeHeight=0;align=left;verticalAlign=top;spacingLeft=4;spacingRight=4;overflow=hidden;rotatable=0;points=[[0,0.5],[1,0.5]];portConstraint=eastwest;swimlaneFillColor=#ffffff;whiteSpace=wrap;fontSize=13;fillColor=none;strokeOpacity=100;fillOpacity=100;spacing=0;strokeColor=#5e5e5e;rounded=1;absoluteArcSize=1;arcSize=9;strokeWidth=2.3;" vertex="1" parent="C1Lx6RwTq1piZFSp2DUt-159">
          <mxGeometry x="170" y="102" width="40" height="24" as="geometry" />
        </mxCell>
        <mxCell id="C1Lx6RwTq1piZFSp2DUt-172" value="" style="strokeColor=none;part=1;resizeHeight=0;align=center;verticalAlign=top;spacingLeft=4;spacingRight=4;overflow=hidden;rotatable=0;points=[[0,0.5],[1,0.5]];portConstraint=eastwest;swimlaneFillColor=#ffffff;whiteSpace=wrap;fontSize=13;fillColor=none;strokeOpacity=100;fillOpacity=100;spacing=0;rounded=1;absoluteArcSize=1;arcSize=9;strokeWidth=2.3;" vertex="1" parent="C1Lx6RwTq1piZFSp2DUt-159">
          <mxGeometry y="126" width="30" height="24" as="geometry" />
        </mxCell>
        <mxCell id="C1Lx6RwTq1piZFSp2DUt-173" value="Github Link" style="shape=partialRectangle;top=0;right=0;bottom=0;part=1;resizeHeight=0;align=left;verticalAlign=top;spacingLeft=4;spacingRight=4;overflow=hidden;rotatable=0;points=[[0,0.5],[1,0.5]];portConstraint=eastwest;swimlaneFillColor=#ffffff;whiteSpace=wrap;fontSize=13;fontColor=default;fillColor=none;strokeOpacity=100;fillOpacity=100;spacing=0;strokeColor=#5e5e5e;rounded=1;absoluteArcSize=1;arcSize=9;strokeWidth=2.3;" vertex="1" parent="C1Lx6RwTq1piZFSp2DUt-159">
          <mxGeometry x="30" y="126" width="140" height="24" as="geometry" />
        </mxCell>
        <mxCell id="C1Lx6RwTq1piZFSp2DUt-174" value="URL" style="shape=partialRectangle;top=0;right=0;bottom=0;part=1;resizeHeight=0;align=left;verticalAlign=top;spacingLeft=4;spacingRight=4;overflow=hidden;rotatable=0;points=[[0,0.5],[1,0.5]];portConstraint=eastwest;swimlaneFillColor=#ffffff;whiteSpace=wrap;fontSize=13;fontColor=default;fillColor=none;strokeOpacity=100;fillOpacity=100;spacing=0;strokeColor=#5e5e5e;rounded=1;absoluteArcSize=1;arcSize=9;strokeWidth=2.3;" vertex="1" parent="C1Lx6RwTq1piZFSp2DUt-159">
          <mxGeometry x="170" y="126" width="40" height="24" as="geometry" />
        </mxCell>
        <UserObject label="" lucidchartObjectId="AZwZduy-sLHQ" id="C1Lx6RwTq1piZFSp2DUt-175">
          <mxCell style="html=1;jettySize=18;whiteSpace=wrap;fontSize=13;strokeColor=#5E5E5E;strokeWidth=1.5;rounded=1;arcSize=12;edgeStyle=orthogonalEdgeStyle;startArrow=ERone;startSize=16;endArrow=ERone;endSize=16;exitX=-0.006;exitY=0.647;exitPerimeter=0;entryX=1;entryY=0.5;entryDx=0;entryDy=0;" edge="1" parent="1" source="C1Lx6RwTq1piZFSp2DUt-49" target="C1Lx6RwTq1piZFSp2DUt-316">
            <mxGeometry width="100" height="100" relative="1" as="geometry">
              <Array as="points">
                <mxPoint x="420" y="1624" />
                <mxPoint x="420" y="1365" />
              </Array>
              <mxPoint x="260" y="1390" as="targetPoint" />
            </mxGeometry>
          </mxCell>
        </UserObject>
        <UserObject label="" lucidchartObjectId="PZwZSAhJE6X4" id="C1Lx6RwTq1piZFSp2DUt-176">
          <mxCell style="html=1;jettySize=18;whiteSpace=wrap;fontSize=13;strokeColor=#5E5E5E;strokeWidth=1.5;rounded=1;arcSize=12;edgeStyle=orthogonalEdgeStyle;startArrow=ERone;startSize=16;endArrow=ERone;endSize=16;exitX=-0.006;exitY=0.647;exitPerimeter=0;entryX=1;entryY=0.5;entryDx=0;entryDy=0;" edge="1" parent="1" source="C1Lx6RwTq1piZFSp2DUt-59" target="C1Lx6RwTq1piZFSp2DUt-316">
            <mxGeometry width="100" height="100" relative="1" as="geometry">
              <Array as="points">
                <mxPoint x="420" y="1783" />
                <mxPoint x="420" y="1365" />
              </Array>
              <mxPoint x="260" y="1390" as="targetPoint" />
            </mxGeometry>
          </mxCell>
        </UserObject>
        <UserObject label="" lucidchartObjectId="2ZwZLEUFzzat" id="C1Lx6RwTq1piZFSp2DUt-177">
          <mxCell style="html=1;jettySize=18;whiteSpace=wrap;fontSize=13;strokeColor=#5E5E5E;strokeWidth=1.5;rounded=1;arcSize=12;edgeStyle=orthogonalEdgeStyle;startArrow=ERmany;startSize=10;endArrow=ERone;endSize=16;exitX=-0.005;exitY=0.439;exitPerimeter=0;entryX=1;entryY=0.5;entryDx=0;entryDy=0;" edge="1" parent="1" source="C1Lx6RwTq1piZFSp2DUt-159" target="C1Lx6RwTq1piZFSp2DUt-316">
            <mxGeometry width="100" height="100" relative="1" as="geometry">
              <Array as="points">
                <mxPoint x="420" y="1951" />
                <mxPoint x="420" y="1365" />
              </Array>
              <mxPoint x="260" y="1390" as="targetPoint" />
            </mxGeometry>
          </mxCell>
        </UserObject>
        <UserObject label="" lucidchartObjectId="91wZb2Q~xOBS" id="C1Lx6RwTq1piZFSp2DUt-178">
          <mxCell style="html=1;jettySize=18;whiteSpace=wrap;fontSize=13;strokeColor=#1A1A1A;strokeWidth=1.5;rounded=1;arcSize=12;edgeStyle=orthogonalEdgeStyle;startArrow=ERmany;startSize=10;endArrow=ERzeroToOne;endSize=10;exitX=0;exitY=0.5;entryX=1;entryY=0.5;entryDx=0;entryDy=0;startFill=0;exitDx=0;exitDy=0;" edge="1" parent="1" source="C1Lx6RwTq1piZFSp2DUt-451" target="C1Lx6RwTq1piZFSp2DUt-329">
            <mxGeometry width="100" height="100" relative="1" as="geometry">
              <Array as="points">
                <mxPoint x="850" y="1235" />
                <mxPoint x="850" y="545" />
              </Array>
              <mxPoint x="912.8299999999999" y="1271.024" as="sourcePoint" />
              <mxPoint x="830" y="645" as="targetPoint" />
            </mxGeometry>
          </mxCell>
        </UserObject>
        <UserObject label="" lucidchartObjectId="b2wZSPcaYlge" id="C1Lx6RwTq1piZFSp2DUt-179">
          <mxCell style="html=1;jettySize=18;whiteSpace=wrap;fontSize=13;strokeColor=#1A1A1A;strokeWidth=1.5;rounded=1;arcSize=12;edgeStyle=orthogonalEdgeStyle;startArrow=ERmany;startSize=10;endArrow=ERzeroToOne;endSize=10;exitX=0;exitY=0.5;entryX=1;entryY=0.5;entryDx=0;entryDy=0;endFill=0;exitDx=0;exitDy=0;startFill=0;" edge="1" parent="1" source="C1Lx6RwTq1piZFSp2DUt-477" target="C1Lx6RwTq1piZFSp2DUt-329">
            <mxGeometry width="100" height="100" relative="1" as="geometry">
              <Array as="points">
                <mxPoint x="850" y="1055" />
                <mxPoint x="850" y="545" />
              </Array>
              <mxPoint x="912.8299999999999" y="1115.024" as="sourcePoint" />
              <mxPoint x="840" y="645" as="targetPoint" />
            </mxGeometry>
          </mxCell>
        </UserObject>
        <UserObject label="" lucidchartObjectId="k2wZOZAYCCmJ" id="C1Lx6RwTq1piZFSp2DUt-180">
          <mxCell style="html=1;jettySize=18;whiteSpace=wrap;fontSize=13;strokeColor=#1A1A1A;strokeWidth=1.5;rounded=1;arcSize=12;edgeStyle=orthogonalEdgeStyle;startArrow=ERmany;startSize=10;endArrow=ERzeroToOne;endSize=10;entryX=1;entryY=0.5;entryDx=0;entryDy=0;exitX=0;exitY=0.5;exitDx=0;exitDy=0;" edge="1" parent="1" source="C1Lx6RwTq1piZFSp2DUt-516" target="C1Lx6RwTq1piZFSp2DUt-329">
            <mxGeometry width="100" height="100" relative="1" as="geometry">
              <Array as="points">
                <mxPoint x="1170" y="1235" />
                <mxPoint x="1170" y="780" />
                <mxPoint x="850" y="780" />
                <mxPoint x="850" y="545" />
              </Array>
              <mxPoint x="1460" y="730" as="sourcePoint" />
              <mxPoint x="830" y="645" as="targetPoint" />
            </mxGeometry>
          </mxCell>
        </UserObject>
        <mxCell id="C1Lx6RwTq1piZFSp2DUt-181" value="Achievment" style="html=1;overflow=block;blockSpacing=1;swimlane;resizeParent=1;resizeParentMax=0;resizeLast=0;collapsible=0;marginBottom=0;fontStyle=0;swimlaneFillColor=#ffffff;startSize=30;whiteSpace=wrap;fontSize=13;fontColor=default;fillColor=#ffffff;spacing=0;strokeColor=#5e5e5e;strokeOpacity=100;fillOpacity=100;rounded=1;absoluteArcSize=1;arcSize=9;strokeWidth=2.3;" vertex="1" parent="1">
          <mxGeometry x="1170" y="1811" width="194" height="198" as="geometry" />
        </mxCell>
        <mxCell id="C1Lx6RwTq1piZFSp2DUt-182" value="PK" style="strokeColor=none;part=1;resizeHeight=0;align=center;verticalAlign=top;spacingLeft=4;spacingRight=4;overflow=hidden;rotatable=0;points=[[0,0.5],[1,0.5]];portConstraint=eastwest;swimlaneFillColor=#ffffff;whiteSpace=wrap;fontSize=13;fontColor=default;fillColor=none;strokeOpacity=100;fillOpacity=100;spacing=0;rounded=1;absoluteArcSize=1;arcSize=9;strokeWidth=2.3;" vertex="1" parent="C1Lx6RwTq1piZFSp2DUt-181">
          <mxGeometry y="30" width="30" height="24" as="geometry" />
        </mxCell>
        <mxCell id="C1Lx6RwTq1piZFSp2DUt-183" value="ID" style="shape=partialRectangle;top=0;right=0;bottom=0;part=1;resizeHeight=0;align=left;verticalAlign=top;spacingLeft=4;spacingRight=4;overflow=hidden;rotatable=0;points=[[0,0.5],[1,0.5]];portConstraint=eastwest;swimlaneFillColor=#ffffff;whiteSpace=wrap;fontSize=13;fontColor=default;fillColor=none;strokeOpacity=100;fillOpacity=100;spacing=0;strokeColor=#5e5e5e;rounded=1;absoluteArcSize=1;arcSize=9;strokeWidth=2.3;" vertex="1" parent="C1Lx6RwTq1piZFSp2DUt-181">
          <mxGeometry x="30" y="30" width="124" height="24" as="geometry" />
        </mxCell>
        <mxCell id="C1Lx6RwTq1piZFSp2DUt-184" value="UUID" style="shape=partialRectangle;top=0;right=0;bottom=0;part=1;resizeHeight=0;align=left;verticalAlign=top;spacingLeft=4;spacingRight=4;overflow=hidden;rotatable=0;points=[[0,0.5],[1,0.5]];portConstraint=eastwest;swimlaneFillColor=#ffffff;whiteSpace=wrap;fontSize=13;fontColor=default;fillColor=none;strokeOpacity=100;fillOpacity=100;spacing=0;strokeColor=#5e5e5e;rounded=1;absoluteArcSize=1;arcSize=9;strokeWidth=2.3;" vertex="1" parent="C1Lx6RwTq1piZFSp2DUt-181">
          <mxGeometry x="154" y="30" width="40" height="24" as="geometry" />
        </mxCell>
        <mxCell id="C1Lx6RwTq1piZFSp2DUt-185" value="FK" style="strokeColor=none;part=1;resizeHeight=0;align=center;verticalAlign=top;spacingLeft=4;spacingRight=4;overflow=hidden;rotatable=0;points=[[0,0.5],[1,0.5]];portConstraint=eastwest;swimlaneFillColor=#ffffff;whiteSpace=wrap;fontSize=13;fontColor=default;fillColor=none;strokeOpacity=100;fillOpacity=100;spacing=0;rounded=1;absoluteArcSize=1;arcSize=9;strokeWidth=2.3;" vertex="1" parent="C1Lx6RwTq1piZFSp2DUt-181">
          <mxGeometry y="54" width="30" height="24" as="geometry" />
        </mxCell>
        <mxCell id="C1Lx6RwTq1piZFSp2DUt-186" value="Resume" style="shape=partialRectangle;top=0;right=0;bottom=0;part=1;resizeHeight=0;align=left;verticalAlign=top;spacingLeft=4;spacingRight=4;overflow=hidden;rotatable=0;points=[[0,0.5],[1,0.5]];portConstraint=eastwest;swimlaneFillColor=#ffffff;whiteSpace=wrap;fontSize=13;fontColor=default;fillColor=none;strokeOpacity=100;fillOpacity=100;spacing=0;strokeColor=#5e5e5e;rounded=1;absoluteArcSize=1;arcSize=9;strokeWidth=2.3;" vertex="1" parent="C1Lx6RwTq1piZFSp2DUt-181">
          <mxGeometry x="30" y="54" width="124" height="24" as="geometry" />
        </mxCell>
        <mxCell id="C1Lx6RwTq1piZFSp2DUt-187" value="UUID" style="shape=partialRectangle;top=0;right=0;bottom=0;part=1;resizeHeight=0;align=left;verticalAlign=top;spacingLeft=4;spacingRight=4;overflow=hidden;rotatable=0;points=[[0,0.5],[1,0.5]];portConstraint=eastwest;swimlaneFillColor=#ffffff;whiteSpace=wrap;fontSize=13;fontColor=default;fillColor=none;strokeOpacity=100;fillOpacity=100;spacing=0;strokeColor=#5e5e5e;rounded=1;absoluteArcSize=1;arcSize=9;strokeWidth=2.3;" vertex="1" parent="C1Lx6RwTq1piZFSp2DUt-181">
          <mxGeometry x="154" y="54" width="40" height="24" as="geometry" />
        </mxCell>
        <mxCell id="C1Lx6RwTq1piZFSp2DUt-188" value="FK" style="strokeColor=none;part=1;resizeHeight=0;align=center;verticalAlign=top;spacingLeft=4;spacingRight=4;overflow=hidden;rotatable=0;points=[[0,0.5],[1,0.5]];portConstraint=eastwest;swimlaneFillColor=#ffffff;whiteSpace=wrap;fontSize=13;fontColor=default;fillColor=none;strokeOpacity=100;fillOpacity=100;spacing=0;rounded=1;absoluteArcSize=1;arcSize=9;strokeWidth=2.3;" vertex="1" parent="C1Lx6RwTq1piZFSp2DUt-181">
          <mxGeometry y="78" width="30" height="24" as="geometry" />
        </mxCell>
        <mxCell id="C1Lx6RwTq1piZFSp2DUt-189" value="CV" style="shape=partialRectangle;top=0;right=0;bottom=0;part=1;resizeHeight=0;align=left;verticalAlign=top;spacingLeft=4;spacingRight=4;overflow=hidden;rotatable=0;points=[[0,0.5],[1,0.5]];portConstraint=eastwest;swimlaneFillColor=#ffffff;whiteSpace=wrap;fontSize=13;fontColor=default;fillColor=none;strokeOpacity=100;fillOpacity=100;spacing=0;strokeColor=#5e5e5e;rounded=1;absoluteArcSize=1;arcSize=9;strokeWidth=2.3;" vertex="1" parent="C1Lx6RwTq1piZFSp2DUt-181">
          <mxGeometry x="30" y="78" width="124" height="24" as="geometry" />
        </mxCell>
        <mxCell id="C1Lx6RwTq1piZFSp2DUt-190" value="UUID" style="shape=partialRectangle;top=0;right=0;bottom=0;part=1;resizeHeight=0;align=left;verticalAlign=top;spacingLeft=4;spacingRight=4;overflow=hidden;rotatable=0;points=[[0,0.5],[1,0.5]];portConstraint=eastwest;swimlaneFillColor=#ffffff;whiteSpace=wrap;fontSize=13;fontColor=default;fillColor=none;strokeOpacity=100;fillOpacity=100;spacing=0;strokeColor=#5e5e5e;rounded=1;absoluteArcSize=1;arcSize=9;strokeWidth=2.3;" vertex="1" parent="C1Lx6RwTq1piZFSp2DUt-181">
          <mxGeometry x="154" y="78" width="40" height="24" as="geometry" />
        </mxCell>
        <mxCell id="C1Lx6RwTq1piZFSp2DUt-191" value="FK" style="strokeColor=none;part=1;resizeHeight=0;align=center;verticalAlign=top;spacingLeft=4;spacingRight=4;overflow=hidden;rotatable=0;points=[[0,0.5],[1,0.5]];portConstraint=eastwest;swimlaneFillColor=#ffffff;whiteSpace=wrap;fontSize=13;fontColor=default;fillColor=none;strokeOpacity=100;fillOpacity=100;spacing=0;rounded=1;absoluteArcSize=1;arcSize=9;strokeWidth=2.3;" vertex="1" parent="C1Lx6RwTq1piZFSp2DUt-181">
          <mxGeometry y="102" width="30" height="24" as="geometry" />
        </mxCell>
        <mxCell id="C1Lx6RwTq1piZFSp2DUt-192" value="Project" style="shape=partialRectangle;top=0;right=0;bottom=0;part=1;resizeHeight=0;align=left;verticalAlign=top;spacingLeft=4;spacingRight=4;overflow=hidden;rotatable=0;points=[[0,0.5],[1,0.5]];portConstraint=eastwest;swimlaneFillColor=#ffffff;whiteSpace=wrap;fontSize=13;fontColor=default;fillColor=none;strokeOpacity=100;fillOpacity=100;spacing=0;strokeColor=#5e5e5e;rounded=1;absoluteArcSize=1;arcSize=9;strokeWidth=2.3;" vertex="1" parent="C1Lx6RwTq1piZFSp2DUt-181">
          <mxGeometry x="30" y="102" width="124" height="24" as="geometry" />
        </mxCell>
        <mxCell id="C1Lx6RwTq1piZFSp2DUt-193" value="UUID" style="shape=partialRectangle;top=0;right=0;bottom=0;part=1;resizeHeight=0;align=left;verticalAlign=top;spacingLeft=4;spacingRight=4;overflow=hidden;rotatable=0;points=[[0,0.5],[1,0.5]];portConstraint=eastwest;swimlaneFillColor=#ffffff;whiteSpace=wrap;fontSize=13;fontColor=default;fillColor=none;strokeOpacity=100;fillOpacity=100;spacing=0;strokeColor=#5e5e5e;rounded=1;absoluteArcSize=1;arcSize=9;strokeWidth=2.3;" vertex="1" parent="C1Lx6RwTq1piZFSp2DUt-181">
          <mxGeometry x="154" y="102" width="40" height="24" as="geometry" />
        </mxCell>
        <mxCell id="C1Lx6RwTq1piZFSp2DUt-194" value="" style="strokeColor=none;part=1;resizeHeight=0;align=center;verticalAlign=top;spacingLeft=4;spacingRight=4;overflow=hidden;rotatable=0;points=[[0,0.5],[1,0.5]];portConstraint=eastwest;swimlaneFillColor=#ffffff;whiteSpace=wrap;fontSize=13;fillColor=none;strokeOpacity=100;fillOpacity=100;spacing=0;rounded=1;absoluteArcSize=1;arcSize=9;strokeWidth=2.3;" vertex="1" parent="C1Lx6RwTq1piZFSp2DUt-181">
          <mxGeometry y="126" width="30" height="24" as="geometry" />
        </mxCell>
        <mxCell id="C1Lx6RwTq1piZFSp2DUt-195" value="Title" style="shape=partialRectangle;top=0;right=0;bottom=0;part=1;resizeHeight=0;align=left;verticalAlign=top;spacingLeft=4;spacingRight=4;overflow=hidden;rotatable=0;points=[[0,0.5],[1,0.5]];portConstraint=eastwest;swimlaneFillColor=#ffffff;whiteSpace=wrap;fontSize=13;fontColor=default;fillColor=none;strokeOpacity=100;fillOpacity=100;spacing=0;strokeColor=#5e5e5e;rounded=1;absoluteArcSize=1;arcSize=9;strokeWidth=2.3;" vertex="1" parent="C1Lx6RwTq1piZFSp2DUt-181">
          <mxGeometry x="30" y="126" width="124" height="24" as="geometry" />
        </mxCell>
        <mxCell id="C1Lx6RwTq1piZFSp2DUt-196" value="char()" style="shape=partialRectangle;top=0;right=0;bottom=0;part=1;resizeHeight=0;align=left;verticalAlign=top;spacingLeft=4;spacingRight=4;overflow=hidden;rotatable=0;points=[[0,0.5],[1,0.5]];portConstraint=eastwest;swimlaneFillColor=#ffffff;whiteSpace=wrap;fontSize=13;fontColor=default;fillColor=none;strokeOpacity=100;fillOpacity=100;spacing=0;strokeColor=#5e5e5e;rounded=1;absoluteArcSize=1;arcSize=9;strokeWidth=2.3;" vertex="1" parent="C1Lx6RwTq1piZFSp2DUt-181">
          <mxGeometry x="154" y="126" width="40" height="24" as="geometry" />
        </mxCell>
        <mxCell id="C1Lx6RwTq1piZFSp2DUt-197" value="" style="strokeColor=none;part=1;resizeHeight=0;align=center;verticalAlign=top;spacingLeft=4;spacingRight=4;overflow=hidden;rotatable=0;points=[[0,0.5],[1,0.5]];portConstraint=eastwest;swimlaneFillColor=#ffffff;whiteSpace=wrap;fontSize=13;fillColor=none;strokeOpacity=100;fillOpacity=100;spacing=0;rounded=1;absoluteArcSize=1;arcSize=9;strokeWidth=2.3;" vertex="1" parent="C1Lx6RwTq1piZFSp2DUt-181">
          <mxGeometry y="150" width="30" height="24" as="geometry" />
        </mxCell>
        <mxCell id="C1Lx6RwTq1piZFSp2DUt-198" value="Bullet" style="shape=partialRectangle;top=0;right=0;bottom=0;part=1;resizeHeight=0;align=left;verticalAlign=top;spacingLeft=4;spacingRight=4;overflow=hidden;rotatable=0;points=[[0,0.5],[1,0.5]];portConstraint=eastwest;swimlaneFillColor=#ffffff;whiteSpace=wrap;fontSize=13;fontColor=default;fillColor=none;strokeOpacity=100;fillOpacity=100;spacing=0;strokeColor=#5e5e5e;rounded=1;absoluteArcSize=1;arcSize=9;strokeWidth=2.3;" vertex="1" parent="C1Lx6RwTq1piZFSp2DUt-181">
          <mxGeometry x="30" y="150" width="124" height="24" as="geometry" />
        </mxCell>
        <mxCell id="C1Lx6RwTq1piZFSp2DUt-199" value="char()" style="shape=partialRectangle;top=0;right=0;bottom=0;part=1;resizeHeight=0;align=left;verticalAlign=top;spacingLeft=4;spacingRight=4;overflow=hidden;rotatable=0;points=[[0,0.5],[1,0.5]];portConstraint=eastwest;swimlaneFillColor=#ffffff;whiteSpace=wrap;fontSize=13;fontColor=default;fillColor=none;strokeOpacity=100;fillOpacity=100;spacing=0;strokeColor=#5e5e5e;rounded=1;absoluteArcSize=1;arcSize=9;strokeWidth=2.3;" vertex="1" parent="C1Lx6RwTq1piZFSp2DUt-181">
          <mxGeometry x="154" y="150" width="40" height="24" as="geometry" />
        </mxCell>
        <mxCell id="C1Lx6RwTq1piZFSp2DUt-200" value="" style="strokeColor=none;part=1;resizeHeight=0;align=center;verticalAlign=top;spacingLeft=4;spacingRight=4;overflow=hidden;rotatable=0;points=[[0,0.5],[1,0.5]];portConstraint=eastwest;swimlaneFillColor=#ffffff;whiteSpace=wrap;fontSize=13;fillColor=none;strokeOpacity=100;fillOpacity=100;spacing=0;rounded=1;absoluteArcSize=1;arcSize=9;strokeWidth=2.3;" vertex="1" parent="C1Lx6RwTq1piZFSp2DUt-181">
          <mxGeometry y="174" width="30" height="24" as="geometry" />
        </mxCell>
        <mxCell id="C1Lx6RwTq1piZFSp2DUt-201" value="Copy" style="shape=partialRectangle;top=0;right=0;bottom=0;part=1;resizeHeight=0;align=left;verticalAlign=top;spacingLeft=4;spacingRight=4;overflow=hidden;rotatable=0;points=[[0,0.5],[1,0.5]];portConstraint=eastwest;swimlaneFillColor=#ffffff;whiteSpace=wrap;fontSize=13;fontColor=default;fillColor=none;strokeOpacity=100;fillOpacity=100;spacing=0;strokeColor=#5e5e5e;rounded=1;absoluteArcSize=1;arcSize=9;strokeWidth=2.3;" vertex="1" parent="C1Lx6RwTq1piZFSp2DUt-181">
          <mxGeometry x="30" y="174" width="124" height="24" as="geometry" />
        </mxCell>
        <mxCell id="C1Lx6RwTq1piZFSp2DUt-202" value="Markdown" style="shape=partialRectangle;top=0;right=0;bottom=0;part=1;resizeHeight=0;align=left;verticalAlign=top;spacingLeft=4;spacingRight=4;overflow=hidden;rotatable=0;points=[[0,0.5],[1,0.5]];portConstraint=eastwest;swimlaneFillColor=#ffffff;whiteSpace=wrap;fontSize=13;fontColor=default;fillColor=none;strokeOpacity=100;fillOpacity=100;spacing=0;strokeColor=#5e5e5e;rounded=1;absoluteArcSize=1;arcSize=9;strokeWidth=2.3;" vertex="1" parent="C1Lx6RwTq1piZFSp2DUt-181">
          <mxGeometry x="154" y="174" width="40" height="24" as="geometry" />
        </mxCell>
        <mxCell id="C1Lx6RwTq1piZFSp2DUt-203" value="Skill" style="html=1;overflow=block;blockSpacing=1;swimlane;resizeParent=1;resizeParentMax=0;resizeLast=0;collapsible=0;marginBottom=0;fontStyle=0;swimlaneFillColor=#ffffff;startSize=30;whiteSpace=wrap;fontSize=13;fontColor=default;fillColor=#ffffff;spacing=0;strokeColor=#5e5e5e;strokeOpacity=100;fillOpacity=100;rounded=1;absoluteArcSize=1;arcSize=9;strokeWidth=2.3;" vertex="1" parent="1">
          <mxGeometry x="1184" y="1558" width="210" height="174" as="geometry" />
        </mxCell>
        <mxCell id="C1Lx6RwTq1piZFSp2DUt-204" value="PK" style="strokeColor=none;part=1;resizeHeight=0;align=center;verticalAlign=top;spacingLeft=4;spacingRight=4;overflow=hidden;rotatable=0;points=[[0,0.5],[1,0.5]];portConstraint=eastwest;swimlaneFillColor=#ffffff;whiteSpace=wrap;fontSize=13;fontColor=default;fillColor=none;strokeOpacity=100;fillOpacity=100;spacing=0;rounded=1;absoluteArcSize=1;arcSize=9;strokeWidth=2.3;" vertex="1" parent="C1Lx6RwTq1piZFSp2DUt-203">
          <mxGeometry y="30" width="30" height="24" as="geometry" />
        </mxCell>
        <mxCell id="C1Lx6RwTq1piZFSp2DUt-205" value="ID" style="shape=partialRectangle;top=0;right=0;bottom=0;part=1;resizeHeight=0;align=left;verticalAlign=top;spacingLeft=4;spacingRight=4;overflow=hidden;rotatable=0;points=[[0,0.5],[1,0.5]];portConstraint=eastwest;swimlaneFillColor=#ffffff;whiteSpace=wrap;fontSize=13;fontColor=default;fillColor=none;strokeOpacity=100;fillOpacity=100;spacing=0;strokeColor=#5e5e5e;rounded=1;absoluteArcSize=1;arcSize=9;strokeWidth=2.3;" vertex="1" parent="C1Lx6RwTq1piZFSp2DUt-203">
          <mxGeometry x="30" y="30" width="140" height="24" as="geometry" />
        </mxCell>
        <mxCell id="C1Lx6RwTq1piZFSp2DUt-206" value="UUID" style="shape=partialRectangle;top=0;right=0;bottom=0;part=1;resizeHeight=0;align=left;verticalAlign=top;spacingLeft=4;spacingRight=4;overflow=hidden;rotatable=0;points=[[0,0.5],[1,0.5]];portConstraint=eastwest;swimlaneFillColor=#ffffff;whiteSpace=wrap;fontSize=13;fontColor=default;fillColor=none;strokeOpacity=100;fillOpacity=100;spacing=0;strokeColor=#5e5e5e;rounded=1;absoluteArcSize=1;arcSize=9;strokeWidth=2.3;" vertex="1" parent="C1Lx6RwTq1piZFSp2DUt-203">
          <mxGeometry x="170" y="30" width="40" height="24" as="geometry" />
        </mxCell>
        <mxCell id="C1Lx6RwTq1piZFSp2DUt-207" value="FK" style="strokeColor=none;part=1;resizeHeight=0;align=center;verticalAlign=top;spacingLeft=4;spacingRight=4;overflow=hidden;rotatable=0;points=[[0,0.5],[1,0.5]];portConstraint=eastwest;swimlaneFillColor=#ffffff;whiteSpace=wrap;fontSize=13;fontColor=default;fillColor=none;strokeOpacity=100;fillOpacity=100;spacing=0;rounded=1;absoluteArcSize=1;arcSize=9;strokeWidth=2.3;" vertex="1" parent="C1Lx6RwTq1piZFSp2DUt-203">
          <mxGeometry y="54" width="30" height="24" as="geometry" />
        </mxCell>
        <mxCell id="C1Lx6RwTq1piZFSp2DUt-208" value="Resume" style="shape=partialRectangle;top=0;right=0;bottom=0;part=1;resizeHeight=0;align=left;verticalAlign=top;spacingLeft=4;spacingRight=4;overflow=hidden;rotatable=0;points=[[0,0.5],[1,0.5]];portConstraint=eastwest;swimlaneFillColor=#ffffff;whiteSpace=wrap;fontSize=13;fontColor=default;fillColor=none;strokeOpacity=100;fillOpacity=100;spacing=0;strokeColor=#5e5e5e;rounded=1;absoluteArcSize=1;arcSize=9;strokeWidth=2.3;" vertex="1" parent="C1Lx6RwTq1piZFSp2DUt-203">
          <mxGeometry x="30" y="54" width="140" height="24" as="geometry" />
        </mxCell>
        <mxCell id="C1Lx6RwTq1piZFSp2DUt-209" value="UUID" style="shape=partialRectangle;top=0;right=0;bottom=0;part=1;resizeHeight=0;align=left;verticalAlign=top;spacingLeft=4;spacingRight=4;overflow=hidden;rotatable=0;points=[[0,0.5],[1,0.5]];portConstraint=eastwest;swimlaneFillColor=#ffffff;whiteSpace=wrap;fontSize=13;fontColor=default;fillColor=none;strokeOpacity=100;fillOpacity=100;spacing=0;strokeColor=#5e5e5e;rounded=1;absoluteArcSize=1;arcSize=9;strokeWidth=2.3;" vertex="1" parent="C1Lx6RwTq1piZFSp2DUt-203">
          <mxGeometry x="170" y="54" width="40" height="24" as="geometry" />
        </mxCell>
        <mxCell id="C1Lx6RwTq1piZFSp2DUt-210" value="FK" style="strokeColor=none;part=1;resizeHeight=0;align=center;verticalAlign=top;spacingLeft=4;spacingRight=4;overflow=hidden;rotatable=0;points=[[0,0.5],[1,0.5]];portConstraint=eastwest;swimlaneFillColor=#ffffff;whiteSpace=wrap;fontSize=13;fontColor=default;fillColor=none;strokeOpacity=100;fillOpacity=100;spacing=0;rounded=1;absoluteArcSize=1;arcSize=9;strokeWidth=2.3;" vertex="1" parent="C1Lx6RwTq1piZFSp2DUt-203">
          <mxGeometry y="78" width="30" height="24" as="geometry" />
        </mxCell>
        <mxCell id="C1Lx6RwTq1piZFSp2DUt-211" value="CV" style="shape=partialRectangle;top=0;right=0;bottom=0;part=1;resizeHeight=0;align=left;verticalAlign=top;spacingLeft=4;spacingRight=4;overflow=hidden;rotatable=0;points=[[0,0.5],[1,0.5]];portConstraint=eastwest;swimlaneFillColor=#ffffff;whiteSpace=wrap;fontSize=13;fontColor=default;fillColor=none;strokeOpacity=100;fillOpacity=100;spacing=0;strokeColor=#5e5e5e;rounded=1;absoluteArcSize=1;arcSize=9;strokeWidth=2.3;" vertex="1" parent="C1Lx6RwTq1piZFSp2DUt-203">
          <mxGeometry x="30" y="78" width="140" height="24" as="geometry" />
        </mxCell>
        <mxCell id="C1Lx6RwTq1piZFSp2DUt-212" value="UUID" style="shape=partialRectangle;top=0;right=0;bottom=0;part=1;resizeHeight=0;align=left;verticalAlign=top;spacingLeft=4;spacingRight=4;overflow=hidden;rotatable=0;points=[[0,0.5],[1,0.5]];portConstraint=eastwest;swimlaneFillColor=#ffffff;whiteSpace=wrap;fontSize=13;fontColor=default;fillColor=none;strokeOpacity=100;fillOpacity=100;spacing=0;strokeColor=#5e5e5e;rounded=1;absoluteArcSize=1;arcSize=9;strokeWidth=2.3;" vertex="1" parent="C1Lx6RwTq1piZFSp2DUt-203">
          <mxGeometry x="170" y="78" width="40" height="24" as="geometry" />
        </mxCell>
        <mxCell id="C1Lx6RwTq1piZFSp2DUt-213" value="FK" style="strokeColor=none;part=1;resizeHeight=0;align=center;verticalAlign=top;spacingLeft=4;spacingRight=4;overflow=hidden;rotatable=0;points=[[0,0.5],[1,0.5]];portConstraint=eastwest;swimlaneFillColor=#ffffff;whiteSpace=wrap;fontSize=13;fontColor=default;fillColor=none;strokeOpacity=100;fillOpacity=100;spacing=0;rounded=1;absoluteArcSize=1;arcSize=9;strokeWidth=2.3;" vertex="1" parent="C1Lx6RwTq1piZFSp2DUt-203">
          <mxGeometry y="102" width="30" height="24" as="geometry" />
        </mxCell>
        <mxCell id="C1Lx6RwTq1piZFSp2DUt-214" value="Project" style="shape=partialRectangle;top=0;right=0;bottom=0;part=1;resizeHeight=0;align=left;verticalAlign=top;spacingLeft=4;spacingRight=4;overflow=hidden;rotatable=0;points=[[0,0.5],[1,0.5]];portConstraint=eastwest;swimlaneFillColor=#ffffff;whiteSpace=wrap;fontSize=13;fontColor=default;fillColor=none;strokeOpacity=100;fillOpacity=100;spacing=0;strokeColor=#5e5e5e;rounded=1;absoluteArcSize=1;arcSize=9;strokeWidth=2.3;" vertex="1" parent="C1Lx6RwTq1piZFSp2DUt-203">
          <mxGeometry x="30" y="102" width="140" height="24" as="geometry" />
        </mxCell>
        <mxCell id="C1Lx6RwTq1piZFSp2DUt-215" value="UUID" style="shape=partialRectangle;top=0;right=0;bottom=0;part=1;resizeHeight=0;align=left;verticalAlign=top;spacingLeft=4;spacingRight=4;overflow=hidden;rotatable=0;points=[[0,0.5],[1,0.5]];portConstraint=eastwest;swimlaneFillColor=#ffffff;whiteSpace=wrap;fontSize=13;fontColor=default;fillColor=none;strokeOpacity=100;fillOpacity=100;spacing=0;strokeColor=#5e5e5e;rounded=1;absoluteArcSize=1;arcSize=9;strokeWidth=2.3;" vertex="1" parent="C1Lx6RwTq1piZFSp2DUt-203">
          <mxGeometry x="170" y="102" width="40" height="24" as="geometry" />
        </mxCell>
        <mxCell id="C1Lx6RwTq1piZFSp2DUt-216" value="" style="strokeColor=none;part=1;resizeHeight=0;align=center;verticalAlign=top;spacingLeft=4;spacingRight=4;overflow=hidden;rotatable=0;points=[[0,0.5],[1,0.5]];portConstraint=eastwest;swimlaneFillColor=#ffffff;whiteSpace=wrap;fontSize=13;fillColor=none;strokeOpacity=100;fillOpacity=100;spacing=0;rounded=1;absoluteArcSize=1;arcSize=9;strokeWidth=2.3;" vertex="1" parent="C1Lx6RwTq1piZFSp2DUt-203">
          <mxGeometry y="126" width="30" height="24" as="geometry" />
        </mxCell>
        <mxCell id="C1Lx6RwTq1piZFSp2DUt-217" value="Title" style="shape=partialRectangle;top=0;right=0;bottom=0;part=1;resizeHeight=0;align=left;verticalAlign=top;spacingLeft=4;spacingRight=4;overflow=hidden;rotatable=0;points=[[0,0.5],[1,0.5]];portConstraint=eastwest;swimlaneFillColor=#ffffff;whiteSpace=wrap;fontSize=13;fontColor=default;fillColor=none;strokeOpacity=100;fillOpacity=100;spacing=0;strokeColor=#5e5e5e;rounded=1;absoluteArcSize=1;arcSize=9;strokeWidth=2.3;" vertex="1" parent="C1Lx6RwTq1piZFSp2DUt-203">
          <mxGeometry x="30" y="126" width="140" height="24" as="geometry" />
        </mxCell>
        <mxCell id="C1Lx6RwTq1piZFSp2DUt-218" value="char()" style="shape=partialRectangle;top=0;right=0;bottom=0;part=1;resizeHeight=0;align=left;verticalAlign=top;spacingLeft=4;spacingRight=4;overflow=hidden;rotatable=0;points=[[0,0.5],[1,0.5]];portConstraint=eastwest;swimlaneFillColor=#ffffff;whiteSpace=wrap;fontSize=13;fontColor=default;fillColor=none;strokeOpacity=100;fillOpacity=100;spacing=0;strokeColor=#5e5e5e;rounded=1;absoluteArcSize=1;arcSize=9;strokeWidth=2.3;" vertex="1" parent="C1Lx6RwTq1piZFSp2DUt-203">
          <mxGeometry x="170" y="126" width="40" height="24" as="geometry" />
        </mxCell>
        <mxCell id="C1Lx6RwTq1piZFSp2DUt-219" value="" style="strokeColor=none;part=1;resizeHeight=0;align=center;verticalAlign=top;spacingLeft=4;spacingRight=4;overflow=hidden;rotatable=0;points=[[0,0.5],[1,0.5]];portConstraint=eastwest;swimlaneFillColor=#ffffff;whiteSpace=wrap;fontSize=13;fillColor=none;strokeOpacity=100;fillOpacity=100;spacing=0;rounded=1;absoluteArcSize=1;arcSize=9;strokeWidth=2.3;" vertex="1" parent="C1Lx6RwTq1piZFSp2DUt-203">
          <mxGeometry y="150" width="30" height="24" as="geometry" />
        </mxCell>
        <mxCell id="C1Lx6RwTq1piZFSp2DUt-220" value="Copy" style="shape=partialRectangle;top=0;right=0;bottom=0;part=1;resizeHeight=0;align=left;verticalAlign=top;spacingLeft=4;spacingRight=4;overflow=hidden;rotatable=0;points=[[0,0.5],[1,0.5]];portConstraint=eastwest;swimlaneFillColor=#ffffff;whiteSpace=wrap;fontSize=13;fillColor=none;strokeOpacity=100;fillOpacity=100;spacing=0;strokeColor=#5e5e5e;rounded=1;absoluteArcSize=1;arcSize=9;strokeWidth=2.3;" vertex="1" parent="C1Lx6RwTq1piZFSp2DUt-203">
          <mxGeometry x="30" y="150" width="140" height="24" as="geometry" />
        </mxCell>
        <mxCell id="C1Lx6RwTq1piZFSp2DUt-221" value="MarkDown" style="shape=partialRectangle;top=0;right=0;bottom=0;part=1;resizeHeight=0;align=left;verticalAlign=top;spacingLeft=4;spacingRight=4;overflow=hidden;rotatable=0;points=[[0,0.5],[1,0.5]];portConstraint=eastwest;swimlaneFillColor=#ffffff;whiteSpace=wrap;fontSize=13;fillColor=none;strokeOpacity=100;fillOpacity=100;spacing=0;strokeColor=#5e5e5e;rounded=1;absoluteArcSize=1;arcSize=9;strokeWidth=2.3;" vertex="1" parent="C1Lx6RwTq1piZFSp2DUt-203">
          <mxGeometry x="170" y="150" width="40" height="24" as="geometry" />
        </mxCell>
        <UserObject label="" lucidchartObjectId="ZgxZWNPb074P" id="C1Lx6RwTq1piZFSp2DUt-222">
          <mxCell style="html=1;jettySize=18;whiteSpace=wrap;fontSize=13;strokeColor=#5E5E5E;strokeWidth=1.5;rounded=1;arcSize=12;edgeStyle=orthogonalEdgeStyle;startArrow=ERone;startSize=16;endArrow=ERzeroToMany;endSize=10;exitX=1.006;exitY=0.412;exitPerimeter=0;entryX=-0.006;entryY=0.334;entryPerimeter=0;" edge="1" parent="1" source="C1Lx6RwTq1piZFSp2DUt-49" target="C1Lx6RwTq1piZFSp2DUt-181">
            <mxGeometry width="100" height="100" relative="1" as="geometry">
              <Array as="points">
                <mxPoint x="1100" y="1600" />
                <mxPoint x="1100" y="1877" />
              </Array>
            </mxGeometry>
          </mxCell>
        </UserObject>
        <UserObject label="" lucidchartObjectId="6gxZ20lumf~~" id="C1Lx6RwTq1piZFSp2DUt-223">
          <mxCell style="html=1;jettySize=18;whiteSpace=wrap;fontSize=13;strokeColor=#5E5E5E;strokeWidth=1.5;rounded=1;arcSize=12;edgeStyle=orthogonalEdgeStyle;startArrow=ERone;startSize=16;endArrow=ERzeroToMany;endSize=10;exitX=1.006;exitY=0.412;exitPerimeter=0;entryX=-0.005;entryY=0.379;entryPerimeter=0;" edge="1" parent="1" source="C1Lx6RwTq1piZFSp2DUt-49" target="C1Lx6RwTq1piZFSp2DUt-203">
            <mxGeometry width="100" height="100" relative="1" as="geometry">
              <Array as="points">
                <mxPoint x="1100" y="1600" />
                <mxPoint x="1100" y="1624" />
              </Array>
            </mxGeometry>
          </mxCell>
        </UserObject>
        <mxCell id="C1Lx6RwTq1piZFSp2DUt-224" value="Work Experience" style="html=1;overflow=block;blockSpacing=1;swimlane;resizeParent=1;resizeParentMax=0;resizeLast=0;collapsible=0;marginBottom=0;fontStyle=0;swimlaneFillColor=#ffffff;startSize=30;whiteSpace=wrap;fontSize=13;fontColor=default;fillColor=#ffffff;spacing=0;strokeColor=#5e5e5e;strokeOpacity=100;fillOpacity=100;rounded=1;absoluteArcSize=1;arcSize=9;strokeWidth=2.3;" vertex="1" parent="1">
          <mxGeometry x="1336" y="2051" width="210" height="126" as="geometry" />
        </mxCell>
        <mxCell id="C1Lx6RwTq1piZFSp2DUt-225" value="PK" style="strokeColor=none;part=1;resizeHeight=0;align=center;verticalAlign=top;spacingLeft=4;spacingRight=4;overflow=hidden;rotatable=0;points=[[0,0.5],[1,0.5]];portConstraint=eastwest;swimlaneFillColor=#ffffff;whiteSpace=wrap;fontSize=13;fontColor=default;fillColor=none;strokeOpacity=100;fillOpacity=100;spacing=0;rounded=1;absoluteArcSize=1;arcSize=9;strokeWidth=2.3;" vertex="1" parent="C1Lx6RwTq1piZFSp2DUt-224">
          <mxGeometry y="30" width="30" height="24" as="geometry" />
        </mxCell>
        <mxCell id="C1Lx6RwTq1piZFSp2DUt-226" value="ID" style="shape=partialRectangle;top=0;right=0;bottom=0;part=1;resizeHeight=0;align=left;verticalAlign=top;spacingLeft=4;spacingRight=4;overflow=hidden;rotatable=0;points=[[0,0.5],[1,0.5]];portConstraint=eastwest;swimlaneFillColor=#ffffff;whiteSpace=wrap;fontSize=13;fontColor=default;fillColor=none;strokeOpacity=100;fillOpacity=100;spacing=0;strokeColor=#5e5e5e;rounded=1;absoluteArcSize=1;arcSize=9;strokeWidth=2.3;" vertex="1" parent="C1Lx6RwTq1piZFSp2DUt-224">
          <mxGeometry x="30" y="30" width="140" height="24" as="geometry" />
        </mxCell>
        <mxCell id="C1Lx6RwTq1piZFSp2DUt-227" value="UUID" style="shape=partialRectangle;top=0;right=0;bottom=0;part=1;resizeHeight=0;align=left;verticalAlign=top;spacingLeft=4;spacingRight=4;overflow=hidden;rotatable=0;points=[[0,0.5],[1,0.5]];portConstraint=eastwest;swimlaneFillColor=#ffffff;whiteSpace=wrap;fontSize=13;fontColor=default;fillColor=none;strokeOpacity=100;fillOpacity=100;spacing=0;strokeColor=#5e5e5e;rounded=1;absoluteArcSize=1;arcSize=9;strokeWidth=2.3;" vertex="1" parent="C1Lx6RwTq1piZFSp2DUt-224">
          <mxGeometry x="170" y="30" width="40" height="24" as="geometry" />
        </mxCell>
        <mxCell id="C1Lx6RwTq1piZFSp2DUt-228" value="FK" style="strokeColor=none;part=1;resizeHeight=0;align=center;verticalAlign=top;spacingLeft=4;spacingRight=4;overflow=hidden;rotatable=0;points=[[0,0.5],[1,0.5]];portConstraint=eastwest;swimlaneFillColor=#ffffff;whiteSpace=wrap;fontSize=13;fontColor=default;fillColor=none;strokeOpacity=100;fillOpacity=100;spacing=0;rounded=1;absoluteArcSize=1;arcSize=9;strokeWidth=2.3;" vertex="1" parent="C1Lx6RwTq1piZFSp2DUt-224">
          <mxGeometry y="54" width="30" height="24" as="geometry" />
        </mxCell>
        <mxCell id="C1Lx6RwTq1piZFSp2DUt-229" value="Resume" style="shape=partialRectangle;top=0;right=0;bottom=0;part=1;resizeHeight=0;align=left;verticalAlign=top;spacingLeft=4;spacingRight=4;overflow=hidden;rotatable=0;points=[[0,0.5],[1,0.5]];portConstraint=eastwest;swimlaneFillColor=#ffffff;whiteSpace=wrap;fontSize=13;fontColor=default;fillColor=none;strokeOpacity=100;fillOpacity=100;spacing=0;strokeColor=#5e5e5e;rounded=1;absoluteArcSize=1;arcSize=9;strokeWidth=2.3;" vertex="1" parent="C1Lx6RwTq1piZFSp2DUt-224">
          <mxGeometry x="30" y="54" width="140" height="24" as="geometry" />
        </mxCell>
        <mxCell id="C1Lx6RwTq1piZFSp2DUt-230" value="UUID" style="shape=partialRectangle;top=0;right=0;bottom=0;part=1;resizeHeight=0;align=left;verticalAlign=top;spacingLeft=4;spacingRight=4;overflow=hidden;rotatable=0;points=[[0,0.5],[1,0.5]];portConstraint=eastwest;swimlaneFillColor=#ffffff;whiteSpace=wrap;fontSize=13;fontColor=default;fillColor=none;strokeOpacity=100;fillOpacity=100;spacing=0;strokeColor=#5e5e5e;rounded=1;absoluteArcSize=1;arcSize=9;strokeWidth=2.3;" vertex="1" parent="C1Lx6RwTq1piZFSp2DUt-224">
          <mxGeometry x="170" y="54" width="40" height="24" as="geometry" />
        </mxCell>
        <mxCell id="C1Lx6RwTq1piZFSp2DUt-231" value="FK" style="strokeColor=none;part=1;resizeHeight=0;align=center;verticalAlign=top;spacingLeft=4;spacingRight=4;overflow=hidden;rotatable=0;points=[[0,0.5],[1,0.5]];portConstraint=eastwest;swimlaneFillColor=#ffffff;whiteSpace=wrap;fontSize=13;fontColor=default;fillColor=none;strokeOpacity=100;fillOpacity=100;spacing=0;rounded=1;absoluteArcSize=1;arcSize=9;strokeWidth=2.3;" vertex="1" parent="C1Lx6RwTq1piZFSp2DUt-224">
          <mxGeometry y="78" width="30" height="24" as="geometry" />
        </mxCell>
        <mxCell id="C1Lx6RwTq1piZFSp2DUt-232" value="CV" style="shape=partialRectangle;top=0;right=0;bottom=0;part=1;resizeHeight=0;align=left;verticalAlign=top;spacingLeft=4;spacingRight=4;overflow=hidden;rotatable=0;points=[[0,0.5],[1,0.5]];portConstraint=eastwest;swimlaneFillColor=#ffffff;whiteSpace=wrap;fontSize=13;fontColor=default;fillColor=none;strokeOpacity=100;fillOpacity=100;spacing=0;strokeColor=#5e5e5e;rounded=1;absoluteArcSize=1;arcSize=9;strokeWidth=2.3;" vertex="1" parent="C1Lx6RwTq1piZFSp2DUt-224">
          <mxGeometry x="30" y="78" width="140" height="24" as="geometry" />
        </mxCell>
        <mxCell id="C1Lx6RwTq1piZFSp2DUt-233" value="UUID" style="shape=partialRectangle;top=0;right=0;bottom=0;part=1;resizeHeight=0;align=left;verticalAlign=top;spacingLeft=4;spacingRight=4;overflow=hidden;rotatable=0;points=[[0,0.5],[1,0.5]];portConstraint=eastwest;swimlaneFillColor=#ffffff;whiteSpace=wrap;fontSize=13;fontColor=default;fillColor=none;strokeOpacity=100;fillOpacity=100;spacing=0;strokeColor=#5e5e5e;rounded=1;absoluteArcSize=1;arcSize=9;strokeWidth=2.3;" vertex="1" parent="C1Lx6RwTq1piZFSp2DUt-224">
          <mxGeometry x="170" y="78" width="40" height="24" as="geometry" />
        </mxCell>
        <mxCell id="C1Lx6RwTq1piZFSp2DUt-234" value="FK" style="strokeColor=none;part=1;resizeHeight=0;align=center;verticalAlign=top;spacingLeft=4;spacingRight=4;overflow=hidden;rotatable=0;points=[[0,0.5],[1,0.5]];portConstraint=eastwest;swimlaneFillColor=#ffffff;whiteSpace=wrap;fontSize=13;fillColor=none;strokeOpacity=100;fillOpacity=100;spacing=0;rounded=1;absoluteArcSize=1;arcSize=9;strokeWidth=2.3;" vertex="1" parent="C1Lx6RwTq1piZFSp2DUt-224">
          <mxGeometry y="102" width="30" height="24" as="geometry" />
        </mxCell>
        <mxCell id="C1Lx6RwTq1piZFSp2DUt-235" value="Project" style="shape=partialRectangle;top=0;right=0;bottom=0;part=1;resizeHeight=0;align=left;verticalAlign=top;spacingLeft=4;spacingRight=4;overflow=hidden;rotatable=0;points=[[0,0.5],[1,0.5]];portConstraint=eastwest;swimlaneFillColor=#ffffff;whiteSpace=wrap;fontSize=13;fillColor=none;strokeOpacity=100;fillOpacity=100;spacing=0;strokeColor=#5e5e5e;rounded=1;absoluteArcSize=1;arcSize=9;strokeWidth=2.3;" vertex="1" parent="C1Lx6RwTq1piZFSp2DUt-224">
          <mxGeometry x="30" y="102" width="140" height="24" as="geometry" />
        </mxCell>
        <mxCell id="C1Lx6RwTq1piZFSp2DUt-236" value="UUID" style="shape=partialRectangle;top=0;right=0;bottom=0;part=1;resizeHeight=0;align=left;verticalAlign=top;spacingLeft=4;spacingRight=4;overflow=hidden;rotatable=0;points=[[0,0.5],[1,0.5]];portConstraint=eastwest;swimlaneFillColor=#ffffff;whiteSpace=wrap;fontSize=13;fillColor=none;strokeOpacity=100;fillOpacity=100;spacing=0;strokeColor=#5e5e5e;rounded=1;absoluteArcSize=1;arcSize=9;strokeWidth=2.3;" vertex="1" parent="C1Lx6RwTq1piZFSp2DUt-224">
          <mxGeometry x="170" y="102" width="40" height="24" as="geometry" />
        </mxCell>
        <UserObject label="" lucidchartObjectId="RhxZedWc1Z8Q" id="C1Lx6RwTq1piZFSp2DUt-237">
          <mxCell style="html=1;jettySize=18;whiteSpace=wrap;fontSize=13;strokeColor=#5E5E5E;strokeWidth=1.5;rounded=1;arcSize=12;edgeStyle=orthogonalEdgeStyle;startArrow=ERmany;startSize=10;endArrow=ERone;endSize=16;exitX=-0.005;exitY=0.524;exitPerimeter=0;entryX=1.006;entryY=0.412;entryPerimeter=0;" edge="1" parent="1" source="C1Lx6RwTq1piZFSp2DUt-224" target="C1Lx6RwTq1piZFSp2DUt-49">
            <mxGeometry width="100" height="100" relative="1" as="geometry">
              <Array as="points">
                <mxPoint x="1080" y="2117" />
                <mxPoint x="1080" y="1600" />
              </Array>
            </mxGeometry>
          </mxCell>
        </UserObject>
        <mxCell id="C1Lx6RwTq1piZFSp2DUt-238" value="Education" style="html=1;overflow=block;blockSpacing=1;swimlane;resizeParent=1;resizeParentMax=0;resizeLast=0;collapsible=0;marginBottom=0;fontStyle=0;swimlaneFillColor=#ffffff;startSize=30;whiteSpace=wrap;fontSize=13;fontColor=default;fillColor=#ffffff;spacing=0;strokeColor=#5e5e5e;strokeOpacity=100;fillOpacity=100;rounded=1;absoluteArcSize=1;arcSize=9;strokeWidth=2.3;" vertex="1" parent="1">
          <mxGeometry x="1350" y="2233" width="165" height="126" as="geometry" />
        </mxCell>
        <mxCell id="C1Lx6RwTq1piZFSp2DUt-239" value="PK" style="strokeColor=none;part=1;resizeHeight=0;align=center;verticalAlign=top;spacingLeft=4;spacingRight=4;overflow=hidden;rotatable=0;points=[[0,0.5],[1,0.5]];portConstraint=eastwest;swimlaneFillColor=#ffffff;whiteSpace=wrap;fontSize=13;fontColor=default;fillColor=none;strokeOpacity=100;fillOpacity=100;spacing=0;rounded=1;absoluteArcSize=1;arcSize=9;strokeWidth=2.3;" vertex="1" parent="C1Lx6RwTq1piZFSp2DUt-238">
          <mxGeometry y="30" width="30" height="24" as="geometry" />
        </mxCell>
        <mxCell id="C1Lx6RwTq1piZFSp2DUt-240" value="ID" style="shape=partialRectangle;top=0;right=0;bottom=0;part=1;resizeHeight=0;align=left;verticalAlign=top;spacingLeft=4;spacingRight=4;overflow=hidden;rotatable=0;points=[[0,0.5],[1,0.5]];portConstraint=eastwest;swimlaneFillColor=#ffffff;whiteSpace=wrap;fontSize=13;fontColor=default;fillColor=none;strokeOpacity=100;fillOpacity=100;spacing=0;strokeColor=#5e5e5e;rounded=1;absoluteArcSize=1;arcSize=9;strokeWidth=2.3;" vertex="1" parent="C1Lx6RwTq1piZFSp2DUt-238">
          <mxGeometry x="30" y="30" width="95" height="24" as="geometry" />
        </mxCell>
        <mxCell id="C1Lx6RwTq1piZFSp2DUt-241" value="UUID" style="shape=partialRectangle;top=0;right=0;bottom=0;part=1;resizeHeight=0;align=left;verticalAlign=top;spacingLeft=4;spacingRight=4;overflow=hidden;rotatable=0;points=[[0,0.5],[1,0.5]];portConstraint=eastwest;swimlaneFillColor=#ffffff;whiteSpace=wrap;fontSize=13;fontColor=default;fillColor=none;strokeOpacity=100;fillOpacity=100;spacing=0;strokeColor=#5e5e5e;rounded=1;absoluteArcSize=1;arcSize=9;strokeWidth=2.3;" vertex="1" parent="C1Lx6RwTq1piZFSp2DUt-238">
          <mxGeometry x="125" y="30" width="40" height="24" as="geometry" />
        </mxCell>
        <mxCell id="C1Lx6RwTq1piZFSp2DUt-242" value="FK" style="strokeColor=none;part=1;resizeHeight=0;align=center;verticalAlign=top;spacingLeft=4;spacingRight=4;overflow=hidden;rotatable=0;points=[[0,0.5],[1,0.5]];portConstraint=eastwest;swimlaneFillColor=#ffffff;whiteSpace=wrap;fontSize=13;fontColor=default;fillColor=none;strokeOpacity=100;fillOpacity=100;spacing=0;rounded=1;absoluteArcSize=1;arcSize=9;strokeWidth=2.3;" vertex="1" parent="C1Lx6RwTq1piZFSp2DUt-238">
          <mxGeometry y="54" width="30" height="24" as="geometry" />
        </mxCell>
        <mxCell id="C1Lx6RwTq1piZFSp2DUt-243" value="Resume" style="shape=partialRectangle;top=0;right=0;bottom=0;part=1;resizeHeight=0;align=left;verticalAlign=top;spacingLeft=4;spacingRight=4;overflow=hidden;rotatable=0;points=[[0,0.5],[1,0.5]];portConstraint=eastwest;swimlaneFillColor=#ffffff;whiteSpace=wrap;fontSize=13;fontColor=default;fillColor=none;strokeOpacity=100;fillOpacity=100;spacing=0;strokeColor=#5e5e5e;rounded=1;absoluteArcSize=1;arcSize=9;strokeWidth=2.3;" vertex="1" parent="C1Lx6RwTq1piZFSp2DUt-238">
          <mxGeometry x="30" y="54" width="95" height="24" as="geometry" />
        </mxCell>
        <mxCell id="C1Lx6RwTq1piZFSp2DUt-244" value="UUID" style="shape=partialRectangle;top=0;right=0;bottom=0;part=1;resizeHeight=0;align=left;verticalAlign=top;spacingLeft=4;spacingRight=4;overflow=hidden;rotatable=0;points=[[0,0.5],[1,0.5]];portConstraint=eastwest;swimlaneFillColor=#ffffff;whiteSpace=wrap;fontSize=13;fontColor=default;fillColor=none;strokeOpacity=100;fillOpacity=100;spacing=0;strokeColor=#5e5e5e;rounded=1;absoluteArcSize=1;arcSize=9;strokeWidth=2.3;" vertex="1" parent="C1Lx6RwTq1piZFSp2DUt-238">
          <mxGeometry x="125" y="54" width="40" height="24" as="geometry" />
        </mxCell>
        <mxCell id="C1Lx6RwTq1piZFSp2DUt-245" value="FK" style="strokeColor=none;part=1;resizeHeight=0;align=center;verticalAlign=top;spacingLeft=4;spacingRight=4;overflow=hidden;rotatable=0;points=[[0,0.5],[1,0.5]];portConstraint=eastwest;swimlaneFillColor=#ffffff;whiteSpace=wrap;fontSize=13;fontColor=default;fillColor=none;strokeOpacity=100;fillOpacity=100;spacing=0;rounded=1;absoluteArcSize=1;arcSize=9;strokeWidth=2.3;" vertex="1" parent="C1Lx6RwTq1piZFSp2DUt-238">
          <mxGeometry y="78" width="30" height="24" as="geometry" />
        </mxCell>
        <mxCell id="C1Lx6RwTq1piZFSp2DUt-246" value="CV" style="shape=partialRectangle;top=0;right=0;bottom=0;part=1;resizeHeight=0;align=left;verticalAlign=top;spacingLeft=4;spacingRight=4;overflow=hidden;rotatable=0;points=[[0,0.5],[1,0.5]];portConstraint=eastwest;swimlaneFillColor=#ffffff;whiteSpace=wrap;fontSize=13;fontColor=default;fillColor=none;strokeOpacity=100;fillOpacity=100;spacing=0;strokeColor=#5e5e5e;rounded=1;absoluteArcSize=1;arcSize=9;strokeWidth=2.3;" vertex="1" parent="C1Lx6RwTq1piZFSp2DUt-238">
          <mxGeometry x="30" y="78" width="95" height="24" as="geometry" />
        </mxCell>
        <mxCell id="C1Lx6RwTq1piZFSp2DUt-247" value="UUID" style="shape=partialRectangle;top=0;right=0;bottom=0;part=1;resizeHeight=0;align=left;verticalAlign=top;spacingLeft=4;spacingRight=4;overflow=hidden;rotatable=0;points=[[0,0.5],[1,0.5]];portConstraint=eastwest;swimlaneFillColor=#ffffff;whiteSpace=wrap;fontSize=13;fontColor=default;fillColor=none;strokeOpacity=100;fillOpacity=100;spacing=0;strokeColor=#5e5e5e;rounded=1;absoluteArcSize=1;arcSize=9;strokeWidth=2.3;" vertex="1" parent="C1Lx6RwTq1piZFSp2DUt-238">
          <mxGeometry x="125" y="78" width="40" height="24" as="geometry" />
        </mxCell>
        <mxCell id="C1Lx6RwTq1piZFSp2DUt-248" value="Key" style="strokeColor=none;part=1;resizeHeight=0;align=center;verticalAlign=top;spacingLeft=4;spacingRight=4;overflow=hidden;rotatable=0;points=[[0,0.5],[1,0.5]];portConstraint=eastwest;swimlaneFillColor=#ffffff;whiteSpace=wrap;fontSize=13;fillColor=none;strokeOpacity=100;fillOpacity=100;spacing=0;rounded=1;absoluteArcSize=1;arcSize=9;strokeWidth=2.3;" vertex="1" parent="C1Lx6RwTq1piZFSp2DUt-238">
          <mxGeometry y="102" width="30" height="24" as="geometry" />
        </mxCell>
        <mxCell id="C1Lx6RwTq1piZFSp2DUt-249" value="Field" style="shape=partialRectangle;top=0;right=0;bottom=0;part=1;resizeHeight=0;align=left;verticalAlign=top;spacingLeft=4;spacingRight=4;overflow=hidden;rotatable=0;points=[[0,0.5],[1,0.5]];portConstraint=eastwest;swimlaneFillColor=#ffffff;whiteSpace=wrap;fontSize=13;fillColor=none;strokeOpacity=100;fillOpacity=100;spacing=0;strokeColor=#5e5e5e;rounded=1;absoluteArcSize=1;arcSize=9;strokeWidth=2.3;" vertex="1" parent="C1Lx6RwTq1piZFSp2DUt-238">
          <mxGeometry x="30" y="102" width="95" height="24" as="geometry" />
        </mxCell>
        <mxCell id="C1Lx6RwTq1piZFSp2DUt-250" value="Type" style="shape=partialRectangle;top=0;right=0;bottom=0;part=1;resizeHeight=0;align=left;verticalAlign=top;spacingLeft=4;spacingRight=4;overflow=hidden;rotatable=0;points=[[0,0.5],[1,0.5]];portConstraint=eastwest;swimlaneFillColor=#ffffff;whiteSpace=wrap;fontSize=13;fillColor=none;strokeOpacity=100;fillOpacity=100;spacing=0;strokeColor=#5e5e5e;rounded=1;absoluteArcSize=1;arcSize=9;strokeWidth=2.3;" vertex="1" parent="C1Lx6RwTq1piZFSp2DUt-238">
          <mxGeometry x="125" y="102" width="40" height="24" as="geometry" />
        </mxCell>
        <UserObject label="" lucidchartObjectId="3oxZyW_TM-FC" id="C1Lx6RwTq1piZFSp2DUt-251">
          <mxCell style="html=1;jettySize=18;whiteSpace=wrap;fontSize=13;strokeColor=#5E5E5E;strokeWidth=1.5;rounded=1;arcSize=12;edgeStyle=orthogonalEdgeStyle;startArrow=ERmany;startSize=10;endArrow=ERone;endSize=16;exitX=-0.007;exitY=0.524;exitPerimeter=0;entryX=1.006;entryY=0.412;entryPerimeter=0;" edge="1" parent="1" source="C1Lx6RwTq1piZFSp2DUt-238" target="C1Lx6RwTq1piZFSp2DUt-49">
            <mxGeometry width="100" height="100" relative="1" as="geometry">
              <Array as="points">
                <mxPoint x="1080" y="2299" />
                <mxPoint x="1080" y="1600" />
              </Array>
            </mxGeometry>
          </mxCell>
        </UserObject>
        <UserObject label="" lucidchartObjectId="8GxZQJTCxgkr" id="C1Lx6RwTq1piZFSp2DUt-252">
          <mxCell style="html=1;jettySize=18;whiteSpace=wrap;fontSize=13;strokeColor=#5E5E5E;strokeWidth=1.5;rounded=1;arcSize=12;edgeStyle=orthogonalEdgeStyle;jumpStyle=arc;startArrow=ERzeroToMany;startSize=10;endArrow=ERone;endSize=16;exitX=-0.006;exitY=0.455;exitPerimeter=0;entryX=1.006;entryY=0.412;entryPerimeter=0;" edge="1" parent="1" source="C1Lx6RwTq1piZFSp2DUt-181" target="C1Lx6RwTq1piZFSp2DUt-59">
            <mxGeometry width="100" height="100" relative="1" as="geometry">
              <Array as="points">
                <mxPoint x="1050" y="1901" />
                <mxPoint x="1050" y="1840" />
                <mxPoint x="853" y="1840" />
                <mxPoint x="853" y="1759" />
              </Array>
            </mxGeometry>
          </mxCell>
        </UserObject>
        <UserObject label="" lucidchartObjectId="JOxZxpumRNSY" id="C1Lx6RwTq1piZFSp2DUt-266">
          <mxCell style="html=1;jettySize=18;whiteSpace=wrap;fontSize=13;strokeColor=#5E5E5E;strokeWidth=1.5;rounded=1;arcSize=12;edgeStyle=orthogonalEdgeStyle;jumpStyle=arc;startArrow=ERzeroToMany;startSize=10;endArrow=ERone;endSize=16;exitX=-0.005;exitY=0.517;exitPerimeter=0;entryX=1.006;entryY=0.412;entryPerimeter=0;" edge="1" parent="1" source="C1Lx6RwTq1piZFSp2DUt-203" target="C1Lx6RwTq1piZFSp2DUt-59">
            <mxGeometry width="100" height="100" relative="1" as="geometry">
              <Array as="points" />
            </mxGeometry>
          </mxCell>
        </UserObject>
        <UserObject label="" lucidchartObjectId="0RxZ_axoYBpB" id="C1Lx6RwTq1piZFSp2DUt-267">
          <mxCell style="html=1;jettySize=18;whiteSpace=wrap;fontSize=13;strokeColor=#1A1A1A;strokeWidth=1.5;rounded=1;arcSize=12;edgeStyle=orthogonalEdgeStyle;startArrow=ERone;startSize=16;endArrow=ERone;endSize=16;entryX=1;entryY=0.5;entryDx=0;entryDy=0;exitX=0;exitY=0.5;exitDx=0;exitDy=0;" edge="1" parent="1" source="C1Lx6RwTq1piZFSp2DUt-531" target="C1Lx6RwTq1piZFSp2DUt-316">
            <mxGeometry width="100" height="100" relative="1" as="geometry">
              <Array as="points">
                <mxPoint x="420" y="1055" />
                <mxPoint x="420" y="1365" />
              </Array>
              <mxPoint x="450" y="1000" as="sourcePoint" />
              <mxPoint x="260" y="1390" as="targetPoint" />
            </mxGeometry>
          </mxCell>
        </UserObject>
        <UserObject label="" lucidchartObjectId="wTxZoXbYwXDJ" id="C1Lx6RwTq1piZFSp2DUt-268">
          <mxCell style="html=1;jettySize=18;whiteSpace=wrap;fontSize=13;strokeColor=#5E5E5E;strokeWidth=1.5;rounded=1;arcSize=12;edgeStyle=orthogonalEdgeStyle;jumpStyle=arc;startArrow=ERzeroToMany;startSize=10;endArrow=ERone;endSize=16;exitX=-0.005;exitY=0.714;exitPerimeter=0;entryX=1.006;entryY=0.412;entryPerimeter=0;" edge="1" parent="1" source="C1Lx6RwTq1piZFSp2DUt-224" target="C1Lx6RwTq1piZFSp2DUt-59">
            <mxGeometry width="100" height="100" relative="1" as="geometry">
              <Array as="points">
                <mxPoint x="1050" y="2141" />
                <mxPoint x="1050" y="1840" />
                <mxPoint x="853" y="1840" />
                <mxPoint x="853" y="1759" />
              </Array>
            </mxGeometry>
          </mxCell>
        </UserObject>
        <UserObject label="" lucidchartObjectId="MVxZ73rs-OnB" id="C1Lx6RwTq1piZFSp2DUt-269">
          <mxCell style="html=1;jettySize=18;whiteSpace=wrap;fontSize=13;strokeColor=#5E5E5E;strokeWidth=1.5;rounded=1;arcSize=12;edgeStyle=orthogonalEdgeStyle;jumpStyle=arc;startArrow=ERzeroToMany;startSize=10;endArrow=ERone;endSize=16;exitX=-0.007;exitY=0.714;exitPerimeter=0;entryX=1.006;entryY=0.412;entryPerimeter=0;" edge="1" parent="1" source="C1Lx6RwTq1piZFSp2DUt-238" target="C1Lx6RwTq1piZFSp2DUt-59">
            <mxGeometry width="100" height="100" relative="1" as="geometry">
              <Array as="points">
                <mxPoint x="1050" y="2323" />
                <mxPoint x="1050" y="1840" />
                <mxPoint x="853" y="1840" />
                <mxPoint x="853" y="1759" />
              </Array>
            </mxGeometry>
          </mxCell>
        </UserObject>
        <UserObject label="" lucidchartObjectId="x1xZpTevbE~_" id="C1Lx6RwTq1piZFSp2DUt-270">
          <mxCell style="html=1;jettySize=18;whiteSpace=wrap;fontSize=13;strokeColor=#5E5E5E;strokeWidth=1.5;rounded=1;arcSize=12;edgeStyle=orthogonalEdgeStyle;startArrow=ERone;startSize=16;endArrow=ERmany;endSize=10;exitX=-0.005;exitY=0.333;exitPerimeter=0;entryX=-0.004;entryY=0.88;entryPerimeter=0;" edge="1" parent="1" source="C1Lx6RwTq1piZFSp2DUt-224" target="C1Lx6RwTq1piZFSp2DUt-271">
            <mxGeometry width="100" height="100" relative="1" as="geometry">
              <Array as="points">
                <mxPoint x="1280" y="2093" />
                <mxPoint x="1280" y="2028" />
                <mxPoint x="1400" y="2028" />
                <mxPoint x="1400" y="1812" />
              </Array>
            </mxGeometry>
          </mxCell>
        </UserObject>
        <mxCell id="C1Lx6RwTq1piZFSp2DUt-271" value="WorkExperience_Skill" style="html=1;overflow=block;blockSpacing=1;swimlane;resizeParent=1;resizeParentMax=0;resizeLast=0;collapsible=0;marginBottom=0;fontStyle=0;swimlaneFillColor=#ffffff;startSize=30;whiteSpace=wrap;fontSize=13;fontColor=default;fillColor=#ffffff;spacing=0;strokeColor=#5e5e5e;strokeOpacity=100;fillOpacity=100;rounded=1;absoluteArcSize=1;arcSize=9;strokeWidth=2.3;" vertex="1" parent="1">
          <mxGeometry x="1515" y="1723" width="268" height="102" as="geometry" />
        </mxCell>
        <mxCell id="C1Lx6RwTq1piZFSp2DUt-272" value="PK" style="strokeColor=none;part=1;resizeHeight=0;align=center;verticalAlign=top;spacingLeft=4;spacingRight=4;overflow=hidden;rotatable=0;points=[[0,0.5],[1,0.5]];portConstraint=eastwest;swimlaneFillColor=#ffffff;whiteSpace=wrap;fontSize=13;fontColor=default;fillColor=none;strokeOpacity=100;fillOpacity=100;spacing=0;rounded=1;absoluteArcSize=1;arcSize=9;strokeWidth=2.3;" vertex="1" parent="C1Lx6RwTq1piZFSp2DUt-271">
          <mxGeometry y="30" width="30" height="24" as="geometry" />
        </mxCell>
        <mxCell id="C1Lx6RwTq1piZFSp2DUt-273" value="ID" style="shape=partialRectangle;top=0;right=0;bottom=0;part=1;resizeHeight=0;align=left;verticalAlign=top;spacingLeft=4;spacingRight=4;overflow=hidden;rotatable=0;points=[[0,0.5],[1,0.5]];portConstraint=eastwest;swimlaneFillColor=#ffffff;whiteSpace=wrap;fontSize=13;fontColor=default;fillColor=none;strokeOpacity=100;fillOpacity=100;spacing=0;strokeColor=#5e5e5e;rounded=1;absoluteArcSize=1;arcSize=9;strokeWidth=2.3;" vertex="1" parent="C1Lx6RwTq1piZFSp2DUt-271">
          <mxGeometry x="30" y="30" width="198" height="24" as="geometry" />
        </mxCell>
        <mxCell id="C1Lx6RwTq1piZFSp2DUt-274" value="UUID" style="shape=partialRectangle;top=0;right=0;bottom=0;part=1;resizeHeight=0;align=left;verticalAlign=top;spacingLeft=4;spacingRight=4;overflow=hidden;rotatable=0;points=[[0,0.5],[1,0.5]];portConstraint=eastwest;swimlaneFillColor=#ffffff;whiteSpace=wrap;fontSize=13;fontColor=default;fillColor=none;strokeOpacity=100;fillOpacity=100;spacing=0;strokeColor=#5e5e5e;rounded=1;absoluteArcSize=1;arcSize=9;strokeWidth=2.3;" vertex="1" parent="C1Lx6RwTq1piZFSp2DUt-271">
          <mxGeometry x="228" y="30" width="40" height="24" as="geometry" />
        </mxCell>
        <mxCell id="C1Lx6RwTq1piZFSp2DUt-275" value="FK" style="strokeColor=none;part=1;resizeHeight=0;align=center;verticalAlign=top;spacingLeft=4;spacingRight=4;overflow=hidden;rotatable=0;points=[[0,0.5],[1,0.5]];portConstraint=eastwest;swimlaneFillColor=#ffffff;whiteSpace=wrap;fontSize=13;fontColor=default;fillColor=none;strokeOpacity=100;fillOpacity=100;spacing=0;rounded=1;absoluteArcSize=1;arcSize=9;strokeWidth=2.3;" vertex="1" parent="C1Lx6RwTq1piZFSp2DUt-271">
          <mxGeometry y="54" width="30" height="24" as="geometry" />
        </mxCell>
        <mxCell id="C1Lx6RwTq1piZFSp2DUt-276" value="Skill" style="shape=partialRectangle;top=0;right=0;bottom=0;part=1;resizeHeight=0;align=left;verticalAlign=top;spacingLeft=4;spacingRight=4;overflow=hidden;rotatable=0;points=[[0,0.5],[1,0.5]];portConstraint=eastwest;swimlaneFillColor=#ffffff;whiteSpace=wrap;fontSize=13;fontColor=default;fillColor=none;strokeOpacity=100;fillOpacity=100;spacing=0;strokeColor=#5e5e5e;rounded=1;absoluteArcSize=1;arcSize=9;strokeWidth=2.3;" vertex="1" parent="C1Lx6RwTq1piZFSp2DUt-271">
          <mxGeometry x="30" y="54" width="198" height="24" as="geometry" />
        </mxCell>
        <mxCell id="C1Lx6RwTq1piZFSp2DUt-277" value="UUID" style="shape=partialRectangle;top=0;right=0;bottom=0;part=1;resizeHeight=0;align=left;verticalAlign=top;spacingLeft=4;spacingRight=4;overflow=hidden;rotatable=0;points=[[0,0.5],[1,0.5]];portConstraint=eastwest;swimlaneFillColor=#ffffff;whiteSpace=wrap;fontSize=13;fontColor=default;fillColor=none;strokeOpacity=100;fillOpacity=100;spacing=0;strokeColor=#5e5e5e;rounded=1;absoluteArcSize=1;arcSize=9;strokeWidth=2.3;" vertex="1" parent="C1Lx6RwTq1piZFSp2DUt-271">
          <mxGeometry x="228" y="54" width="40" height="24" as="geometry" />
        </mxCell>
        <mxCell id="C1Lx6RwTq1piZFSp2DUt-278" value="FK" style="strokeColor=none;part=1;resizeHeight=0;align=center;verticalAlign=top;spacingLeft=4;spacingRight=4;overflow=hidden;rotatable=0;points=[[0,0.5],[1,0.5]];portConstraint=eastwest;swimlaneFillColor=#ffffff;whiteSpace=wrap;fontSize=13;fontColor=default;fillColor=none;strokeOpacity=100;fillOpacity=100;spacing=0;rounded=1;absoluteArcSize=1;arcSize=9;strokeWidth=2.3;" vertex="1" parent="C1Lx6RwTq1piZFSp2DUt-271">
          <mxGeometry y="78" width="30" height="24" as="geometry" />
        </mxCell>
        <mxCell id="C1Lx6RwTq1piZFSp2DUt-279" value="WorkExperience" style="shape=partialRectangle;top=0;right=0;bottom=0;part=1;resizeHeight=0;align=left;verticalAlign=top;spacingLeft=4;spacingRight=4;overflow=hidden;rotatable=0;points=[[0,0.5],[1,0.5]];portConstraint=eastwest;swimlaneFillColor=#ffffff;whiteSpace=wrap;fontSize=13;fontColor=default;fillColor=none;strokeOpacity=100;fillOpacity=100;spacing=0;strokeColor=#5e5e5e;rounded=1;absoluteArcSize=1;arcSize=9;strokeWidth=2.3;" vertex="1" parent="C1Lx6RwTq1piZFSp2DUt-271">
          <mxGeometry x="30" y="78" width="198" height="24" as="geometry" />
        </mxCell>
        <mxCell id="C1Lx6RwTq1piZFSp2DUt-280" value="UUID" style="shape=partialRectangle;top=0;right=0;bottom=0;part=1;resizeHeight=0;align=left;verticalAlign=top;spacingLeft=4;spacingRight=4;overflow=hidden;rotatable=0;points=[[0,0.5],[1,0.5]];portConstraint=eastwest;swimlaneFillColor=#ffffff;whiteSpace=wrap;fontSize=13;fontColor=default;fillColor=none;strokeOpacity=100;fillOpacity=100;spacing=0;strokeColor=#5e5e5e;rounded=1;absoluteArcSize=1;arcSize=9;strokeWidth=2.3;" vertex="1" parent="C1Lx6RwTq1piZFSp2DUt-271">
          <mxGeometry x="228" y="78" width="40" height="24" as="geometry" />
        </mxCell>
        <UserObject label="" lucidchartObjectId="A3xZMXd54UBz" id="C1Lx6RwTq1piZFSp2DUt-281">
          <mxCell style="html=1;jettySize=18;whiteSpace=wrap;fontSize=13;strokeColor=#5E5E5E;strokeWidth=1.5;rounded=1;arcSize=12;edgeStyle=orthogonalEdgeStyle;startArrow=ERone;startSize=16;endArrow=ERmany;endSize=10;exitX=-0.005;exitY=0.241;exitPerimeter=0;entryX=-0.004;entryY=0.646;entryPerimeter=0;" edge="1" parent="1" source="C1Lx6RwTq1piZFSp2DUt-203" target="C1Lx6RwTq1piZFSp2DUt-271">
            <mxGeometry width="100" height="100" relative="1" as="geometry">
              <Array as="points">
                <mxPoint x="1153" y="1599" />
                <mxPoint x="1153" y="1528" />
                <mxPoint x="1453" y="1528" />
                <mxPoint x="1453" y="1789" />
              </Array>
            </mxGeometry>
          </mxCell>
        </UserObject>
        <mxCell id="C1Lx6RwTq1piZFSp2DUt-282" value="WorkExperience_Achievment" style="html=1;overflow=block;blockSpacing=1;swimlane;resizeParent=1;resizeParentMax=0;resizeLast=0;collapsible=0;marginBottom=0;fontStyle=0;swimlaneFillColor=#ffffff;startSize=30;whiteSpace=wrap;fontSize=13;fontColor=default;fillColor=#ffffff;spacing=0;strokeColor=#5e5e5e;strokeOpacity=100;fillOpacity=100;rounded=1;absoluteArcSize=1;arcSize=9;strokeWidth=2.3;" vertex="1" parent="1">
          <mxGeometry x="1513" y="1843" width="270" height="102" as="geometry" />
        </mxCell>
        <mxCell id="C1Lx6RwTq1piZFSp2DUt-283" value="PK" style="strokeColor=none;part=1;resizeHeight=0;align=center;verticalAlign=top;spacingLeft=4;spacingRight=4;overflow=hidden;rotatable=0;points=[[0,0.5],[1,0.5]];portConstraint=eastwest;swimlaneFillColor=#ffffff;whiteSpace=wrap;fontSize=13;fontColor=default;fillColor=none;strokeOpacity=100;fillOpacity=100;spacing=0;rounded=1;absoluteArcSize=1;arcSize=9;strokeWidth=2.3;" vertex="1" parent="C1Lx6RwTq1piZFSp2DUt-282">
          <mxGeometry y="30" width="30" height="24" as="geometry" />
        </mxCell>
        <mxCell id="C1Lx6RwTq1piZFSp2DUt-284" value="ID" style="shape=partialRectangle;top=0;right=0;bottom=0;part=1;resizeHeight=0;align=left;verticalAlign=top;spacingLeft=4;spacingRight=4;overflow=hidden;rotatable=0;points=[[0,0.5],[1,0.5]];portConstraint=eastwest;swimlaneFillColor=#ffffff;whiteSpace=wrap;fontSize=13;fontColor=default;fillColor=none;strokeOpacity=100;fillOpacity=100;spacing=0;strokeColor=#5e5e5e;rounded=1;absoluteArcSize=1;arcSize=9;strokeWidth=2.3;" vertex="1" parent="C1Lx6RwTq1piZFSp2DUt-282">
          <mxGeometry x="30" y="30" width="200" height="24" as="geometry" />
        </mxCell>
        <mxCell id="C1Lx6RwTq1piZFSp2DUt-285" value="UUID" style="shape=partialRectangle;top=0;right=0;bottom=0;part=1;resizeHeight=0;align=left;verticalAlign=top;spacingLeft=4;spacingRight=4;overflow=hidden;rotatable=0;points=[[0,0.5],[1,0.5]];portConstraint=eastwest;swimlaneFillColor=#ffffff;whiteSpace=wrap;fontSize=13;fontColor=default;fillColor=none;strokeOpacity=100;fillOpacity=100;spacing=0;strokeColor=#5e5e5e;rounded=1;absoluteArcSize=1;arcSize=9;strokeWidth=2.3;" vertex="1" parent="C1Lx6RwTq1piZFSp2DUt-282">
          <mxGeometry x="230" y="30" width="40" height="24" as="geometry" />
        </mxCell>
        <mxCell id="C1Lx6RwTq1piZFSp2DUt-286" value="FK" style="strokeColor=none;part=1;resizeHeight=0;align=center;verticalAlign=top;spacingLeft=4;spacingRight=4;overflow=hidden;rotatable=0;points=[[0,0.5],[1,0.5]];portConstraint=eastwest;swimlaneFillColor=#ffffff;whiteSpace=wrap;fontSize=13;fontColor=default;fillColor=none;strokeOpacity=100;fillOpacity=100;spacing=0;rounded=1;absoluteArcSize=1;arcSize=9;strokeWidth=2.3;" vertex="1" parent="C1Lx6RwTq1piZFSp2DUt-282">
          <mxGeometry y="54" width="30" height="24" as="geometry" />
        </mxCell>
        <mxCell id="C1Lx6RwTq1piZFSp2DUt-287" value="Achievment" style="shape=partialRectangle;top=0;right=0;bottom=0;part=1;resizeHeight=0;align=left;verticalAlign=top;spacingLeft=4;spacingRight=4;overflow=hidden;rotatable=0;points=[[0,0.5],[1,0.5]];portConstraint=eastwest;swimlaneFillColor=#ffffff;whiteSpace=wrap;fontSize=13;fontColor=default;fillColor=none;strokeOpacity=100;fillOpacity=100;spacing=0;strokeColor=#5e5e5e;rounded=1;absoluteArcSize=1;arcSize=9;strokeWidth=2.3;" vertex="1" parent="C1Lx6RwTq1piZFSp2DUt-282">
          <mxGeometry x="30" y="54" width="200" height="24" as="geometry" />
        </mxCell>
        <mxCell id="C1Lx6RwTq1piZFSp2DUt-288" value="UUID" style="shape=partialRectangle;top=0;right=0;bottom=0;part=1;resizeHeight=0;align=left;verticalAlign=top;spacingLeft=4;spacingRight=4;overflow=hidden;rotatable=0;points=[[0,0.5],[1,0.5]];portConstraint=eastwest;swimlaneFillColor=#ffffff;whiteSpace=wrap;fontSize=13;fontColor=default;fillColor=none;strokeOpacity=100;fillOpacity=100;spacing=0;strokeColor=#5e5e5e;rounded=1;absoluteArcSize=1;arcSize=9;strokeWidth=2.3;" vertex="1" parent="C1Lx6RwTq1piZFSp2DUt-282">
          <mxGeometry x="230" y="54" width="40" height="24" as="geometry" />
        </mxCell>
        <mxCell id="C1Lx6RwTq1piZFSp2DUt-289" value="Key" style="strokeColor=none;part=1;resizeHeight=0;align=center;verticalAlign=top;spacingLeft=4;spacingRight=4;overflow=hidden;rotatable=0;points=[[0,0.5],[1,0.5]];portConstraint=eastwest;swimlaneFillColor=#ffffff;whiteSpace=wrap;fontSize=13;fontColor=default;fillColor=none;strokeOpacity=100;fillOpacity=100;spacing=0;rounded=1;absoluteArcSize=1;arcSize=9;strokeWidth=2.3;" vertex="1" parent="C1Lx6RwTq1piZFSp2DUt-282">
          <mxGeometry y="78" width="30" height="24" as="geometry" />
        </mxCell>
        <mxCell id="C1Lx6RwTq1piZFSp2DUt-290" value="WorkExperience" style="shape=partialRectangle;top=0;right=0;bottom=0;part=1;resizeHeight=0;align=left;verticalAlign=top;spacingLeft=4;spacingRight=4;overflow=hidden;rotatable=0;points=[[0,0.5],[1,0.5]];portConstraint=eastwest;swimlaneFillColor=#ffffff;whiteSpace=wrap;fontSize=13;fontColor=default;fillColor=none;strokeOpacity=100;fillOpacity=100;spacing=0;strokeColor=#5e5e5e;rounded=1;absoluteArcSize=1;arcSize=9;strokeWidth=2.3;" vertex="1" parent="C1Lx6RwTq1piZFSp2DUt-282">
          <mxGeometry x="30" y="78" width="200" height="24" as="geometry" />
        </mxCell>
        <mxCell id="C1Lx6RwTq1piZFSp2DUt-291" value="UUID" style="shape=partialRectangle;top=0;right=0;bottom=0;part=1;resizeHeight=0;align=left;verticalAlign=top;spacingLeft=4;spacingRight=4;overflow=hidden;rotatable=0;points=[[0,0.5],[1,0.5]];portConstraint=eastwest;swimlaneFillColor=#ffffff;whiteSpace=wrap;fontSize=13;fontColor=default;fillColor=none;strokeOpacity=100;fillOpacity=100;spacing=0;strokeColor=#5e5e5e;rounded=1;absoluteArcSize=1;arcSize=9;strokeWidth=2.3;" vertex="1" parent="C1Lx6RwTq1piZFSp2DUt-282">
          <mxGeometry x="230" y="78" width="40" height="24" as="geometry" />
        </mxCell>
        <UserObject label="" lucidchartObjectId="r5xZYvssaclC" id="C1Lx6RwTq1piZFSp2DUt-292">
          <mxCell style="html=1;jettySize=18;whiteSpace=wrap;fontSize=13;strokeColor=#5E5E5E;strokeWidth=1.5;rounded=1;arcSize=12;edgeStyle=orthogonalEdgeStyle;jumpStyle=arc;startArrow=ERone;startSize=16;endArrow=ERmany;endSize=10;exitX=-0.006;exitY=0.213;exitPerimeter=0;entryX=-0.004;entryY=0.647;entryPerimeter=0;" edge="1" parent="1" source="C1Lx6RwTq1piZFSp2DUt-181" target="C1Lx6RwTq1piZFSp2DUt-282">
            <mxGeometry width="100" height="100" relative="1" as="geometry">
              <Array as="points">
                <mxPoint x="1139" y="1853" />
                <mxPoint x="1139" y="1774" />
                <mxPoint x="1378" y="1774" />
                <mxPoint x="1378" y="1909" />
              </Array>
            </mxGeometry>
          </mxCell>
        </UserObject>
        <UserObject label="" lucidchartObjectId="O5xZjmJ51Efe" id="C1Lx6RwTq1piZFSp2DUt-293">
          <mxCell style="html=1;jettySize=18;whiteSpace=wrap;fontSize=13;strokeColor=#5E5E5E;strokeWidth=1.5;rounded=1;arcSize=12;edgeStyle=orthogonalEdgeStyle;jumpStyle=arc;startArrow=ERone;startSize=16;endArrow=ERmany;endSize=10;exitX=-0.005;exitY=0.333;exitPerimeter=0;entryX=-0.004;entryY=0.882;entryPerimeter=0;" edge="1" parent="1" source="C1Lx6RwTq1piZFSp2DUt-224" target="C1Lx6RwTq1piZFSp2DUt-282">
            <mxGeometry width="100" height="100" relative="1" as="geometry">
              <Array as="points">
                <mxPoint x="1280" y="2093" />
                <mxPoint x="1280" y="2028" />
                <mxPoint x="1423" y="2028" />
                <mxPoint x="1423" y="1933" />
              </Array>
            </mxGeometry>
          </mxCell>
        </UserObject>
        <UserObject label="" lucidchartObjectId="Z-xZgU64g.A2" id="C1Lx6RwTq1piZFSp2DUt-294">
          <mxCell style="html=1;jettySize=18;whiteSpace=wrap;fontSize=13;strokeColor=#1A1A1A;strokeWidth=1.5;rounded=1;arcSize=12;edgeStyle=orthogonalEdgeStyle;startArrow=ERone;startSize=16;endArrow=ERmany;endSize=10;exitX=1;exitY=0.5;exitDx=0;exitDy=0;entryX=0;entryY=0.5;entryDx=0;entryDy=0;" edge="1" parent="1" source="C1Lx6RwTq1piZFSp2DUt-378" target="C1Lx6RwTq1piZFSp2DUt-414">
            <mxGeometry width="100" height="100" relative="1" as="geometry">
              <Array as="points">
                <mxPoint x="2163" y="1195" />
                <mxPoint x="2200" y="1195" />
                <mxPoint x="2200" y="1324" />
                <mxPoint x="1850" y="1324" />
                <mxPoint x="1850" y="1415" />
              </Array>
              <mxPoint x="2161.205" y="1175.8509999999999" as="sourcePoint" />
              <mxPoint x="1880" y="1480" as="targetPoint" />
            </mxGeometry>
          </mxCell>
        </UserObject>
        <UserObject label="" lucidchartObjectId="k_xZLf5LtQvF" id="C1Lx6RwTq1piZFSp2DUt-296">
          <mxCell style="html=1;jettySize=18;whiteSpace=wrap;fontSize=13;strokeColor=#1A1A1A;strokeWidth=1.5;rounded=1;arcSize=12;edgeStyle=orthogonalEdgeStyle;startArrow=ERone;startSize=16;endArrow=ERmany;endSize=10;exitX=1;exitY=0.5;exitDx=0;exitDy=0;entryX=0;entryY=0.5;entryDx=0;entryDy=0;" edge="1" parent="1" source="C1Lx6RwTq1piZFSp2DUt-316" target="C1Lx6RwTq1piZFSp2DUt-423">
            <mxGeometry width="100" height="100" relative="1" as="geometry">
              <Array as="points">
                <mxPoint x="1760" y="1365" />
                <mxPoint x="1760" y="1445" />
              </Array>
              <mxPoint x="210" y="1370" as="sourcePoint" />
              <mxPoint x="1800" y="1530" as="targetPoint" />
            </mxGeometry>
          </mxCell>
        </UserObject>
        <UserObject label="" lucidchartObjectId="E_xZyQ_vH6gO" id="C1Lx6RwTq1piZFSp2DUt-297">
          <mxCell style="html=1;jettySize=18;whiteSpace=wrap;fontSize=13;strokeColor=#1A1A1A;strokeWidth=1.5;rounded=1;arcSize=12;edgeStyle=orthogonalEdgeStyle;startArrow=ERone;startSize=16;endArrow=ERmany;endSize=10;exitX=1;exitY=0.5;exitDx=0;exitDy=0;entryX=0;entryY=0.5;entryDx=0;entryDy=0;" edge="1" parent="1" source="C1Lx6RwTq1piZFSp2DUt-316" target="C1Lx6RwTq1piZFSp2DUt-381">
            <mxGeometry width="100" height="100" relative="1" as="geometry">
              <Array as="points">
                <mxPoint x="1760" y="1365" />
                <mxPoint x="1760" y="1154" />
              </Array>
              <mxPoint x="210" y="1370" as="sourcePoint" />
              <mxPoint x="1820" y="1290" as="targetPoint" />
            </mxGeometry>
          </mxCell>
        </UserObject>
        <UserObject label="" lucidchartObjectId="J~xZ2.eRDwL6" id="C1Lx6RwTq1piZFSp2DUt-308">
          <mxCell style="html=1;jettySize=18;whiteSpace=wrap;fontSize=13;strokeColor=#1A1A1A;strokeWidth=1.5;rounded=1;arcSize=12;edgeStyle=orthogonalEdgeStyle;startArrow=ERone;startSize=16;endArrow=ERmany;endSize=10;exitX=1;exitY=0.5;exitDx=0;exitDy=0;entryX=0;entryY=0.5;entryDx=0;entryDy=0;" edge="1" parent="1" source="C1Lx6RwTq1piZFSp2DUt-411" target="C1Lx6RwTq1piZFSp2DUt-433">
            <mxGeometry width="100" height="100" relative="1" as="geometry">
              <Array as="points" />
              <mxPoint x="2230" y="1480" as="sourcePoint" />
              <mxPoint x="2230" y="1320" as="targetPoint" />
            </mxGeometry>
          </mxCell>
        </UserObject>
        <UserObject label="" lucidchartObjectId="M~xZyoFV3AG." id="C1Lx6RwTq1piZFSp2DUt-309">
          <mxCell style="html=1;jettySize=18;whiteSpace=wrap;fontSize=13;strokeColor=#1A1A1A;strokeWidth=1.5;rounded=1;arcSize=12;edgeStyle=orthogonalEdgeStyle;startArrow=ERone;startSize=16;endArrow=ERmany;endSize=10;exitX=1;exitY=0.5;exitDx=0;exitDy=0;" edge="1" parent="1" source="C1Lx6RwTq1piZFSp2DUt-411" target="C1Lx6RwTq1piZFSp2DUt-442">
            <mxGeometry width="100" height="100" relative="1" as="geometry">
              <Array as="points" />
              <mxPoint x="2230" y="1500" as="sourcePoint" />
              <mxPoint x="2230" y="1320" as="targetPoint" />
            </mxGeometry>
          </mxCell>
        </UserObject>
        <UserObject label="" lucidchartObjectId="XQFZVeWvwNgx" id="C1Lx6RwTq1piZFSp2DUt-310">
          <mxCell style="html=1;jettySize=18;whiteSpace=wrap;fontSize=13;strokeColor=#5E5E5E;strokeWidth=1.5;rounded=1;arcSize=12;edgeStyle=orthogonalEdgeStyle;startArrow=ERone;startSize=16;endArrow=ERmany;endSize=10;exitX=1.005;exitY=0.28;exitPerimeter=0;entryX=-0.007;entryY=0.91;entryPerimeter=0;jumpStyle=arc;" edge="1" parent="1" source="C1Lx6RwTq1piZFSp2DUt-159" target="C1Lx6RwTq1piZFSp2DUt-238">
            <mxGeometry width="100" height="100" relative="1" as="geometry">
              <Array as="points">
                <mxPoint x="1040" y="1927" />
                <mxPoint x="1040" y="2348" />
              </Array>
            </mxGeometry>
          </mxCell>
        </UserObject>
        <UserObject label="" lucidchartObjectId="wRFZb34tsMdJ" id="C1Lx6RwTq1piZFSp2DUt-311">
          <mxCell style="html=1;jettySize=18;whiteSpace=wrap;fontSize=13;strokeColor=#5E5E5E;strokeWidth=1.5;rounded=1;arcSize=12;edgeStyle=orthogonalEdgeStyle;jumpStyle=arc;startArrow=ERone;startSize=16;endArrow=ERmany;endSize=10;exitX=1.005;exitY=0.28;exitPerimeter=0;entryX=-0.005;entryY=0.905;entryPerimeter=0;" edge="1" parent="1" source="C1Lx6RwTq1piZFSp2DUt-159" target="C1Lx6RwTq1piZFSp2DUt-224">
            <mxGeometry width="100" height="100" relative="1" as="geometry">
              <Array as="points">
                <mxPoint x="1040" y="1927" />
                <mxPoint x="1040" y="2165" />
              </Array>
            </mxGeometry>
          </mxCell>
        </UserObject>
        <UserObject label="" lucidchartObjectId="ESFZbGL8aBnH" id="C1Lx6RwTq1piZFSp2DUt-312">
          <mxCell style="html=1;jettySize=18;whiteSpace=wrap;fontSize=13;strokeColor=#5E5E5E;strokeWidth=1.5;rounded=1;arcSize=12;edgeStyle=orthogonalEdgeStyle;jumpStyle=arc;startArrow=ERone;startSize=16;endArrow=ERmany;endSize=10;exitX=1.005;exitY=0.28;exitPerimeter=0;entryX=-0.005;entryY=0.657;entryPerimeter=0;" edge="1" parent="1" source="C1Lx6RwTq1piZFSp2DUt-159" target="C1Lx6RwTq1piZFSp2DUt-203">
            <mxGeometry width="100" height="100" relative="1" as="geometry">
              <Array as="points">
                <mxPoint x="1120" y="1927" />
                <mxPoint x="1120" y="1672" />
              </Array>
            </mxGeometry>
          </mxCell>
        </UserObject>
        <UserObject label="" lucidchartObjectId="2SFZYrDE2naH" id="C1Lx6RwTq1piZFSp2DUt-313">
          <mxCell style="html=1;jettySize=18;whiteSpace=wrap;fontSize=13;strokeColor=#5E5E5E;strokeWidth=1.5;rounded=1;arcSize=12;edgeStyle=orthogonalEdgeStyle;jumpStyle=arc;startArrow=ERone;startSize=16;endArrow=ERmany;endSize=10;exitX=1.005;exitY=0.28;exitPerimeter=0;entryX=-0.006;entryY=0.576;entryPerimeter=0;" edge="1" parent="1" source="C1Lx6RwTq1piZFSp2DUt-159" target="C1Lx6RwTq1piZFSp2DUt-181">
            <mxGeometry width="100" height="100" relative="1" as="geometry">
              <Array as="points">
                <mxPoint x="1140" y="1927" />
                <mxPoint x="1140" y="1925" />
              </Array>
            </mxGeometry>
          </mxCell>
        </UserObject>
        <UserObject label="" lucidchartObjectId="KUFZy3f4OV.Q" id="C1Lx6RwTq1piZFSp2DUt-314">
          <mxCell style="html=1;jettySize=18;whiteSpace=wrap;fontSize=13;strokeColor=#5E5E5E;strokeWidth=1.5;rounded=1;arcSize=12;edgeStyle=orthogonalEdgeStyle;jumpStyle=arc;startArrow=ERone;startSize=16;endArrow=ERmany;endSize=10;exitX=1.006;exitY=0.412;exitPerimeter=0;entryX=-0.005;entryY=0.601;entryPerimeter=0;" edge="1" parent="1" source="C1Lx6RwTq1piZFSp2DUt-59" target="C1Lx6RwTq1piZFSp2DUt-159">
            <mxGeometry width="100" height="100" relative="1" as="geometry">
              <Array as="points">
                <mxPoint x="820" y="1759" />
                <mxPoint x="820" y="1852" />
                <mxPoint x="720" y="1852" />
                <mxPoint x="720" y="1975" />
              </Array>
            </mxGeometry>
          </mxCell>
        </UserObject>
        <mxCell id="C1Lx6RwTq1piZFSp2DUt-315" value="User" style="shape=table;startSize=30;container=1;collapsible=1;childLayout=tableLayout;fixedRows=1;rowLines=0;fontStyle=1;align=center;resizeLast=1;rounded=1;shadow=0;sketch=0;gradientColor=none;fillColor=default;swimlaneFillColor=default;" vertex="1" parent="1">
          <mxGeometry x="-10" y="1320" width="200" height="130" as="geometry" />
        </mxCell>
        <mxCell id="C1Lx6RwTq1piZFSp2DUt-316" value="" style="shape=tableRow;horizontal=0;startSize=0;swimlaneHead=0;swimlaneBody=0;fillColor=none;collapsible=0;dropTarget=0;points=[[0,0.5],[1,0.5]];portConstraint=eastwest;top=0;left=0;right=0;bottom=1;" vertex="1" parent="C1Lx6RwTq1piZFSp2DUt-315">
          <mxGeometry y="30" width="200" height="30" as="geometry" />
        </mxCell>
        <mxCell id="C1Lx6RwTq1piZFSp2DUt-317" value="PK" style="shape=partialRectangle;connectable=0;fillColor=none;top=0;left=0;bottom=0;right=0;fontStyle=1;overflow=hidden;" vertex="1" parent="C1Lx6RwTq1piZFSp2DUt-316">
          <mxGeometry width="30" height="30" as="geometry">
            <mxRectangle width="30" height="30" as="alternateBounds" />
          </mxGeometry>
        </mxCell>
        <mxCell id="C1Lx6RwTq1piZFSp2DUt-318" value="id int UNIQUE NOT NULL" style="shape=partialRectangle;connectable=0;fillColor=none;top=0;left=0;bottom=0;right=0;align=left;spacingLeft=6;fontStyle=5;overflow=hidden;" vertex="1" parent="C1Lx6RwTq1piZFSp2DUt-316">
          <mxGeometry x="30" width="170" height="30" as="geometry">
            <mxRectangle width="170" height="30" as="alternateBounds" />
          </mxGeometry>
        </mxCell>
        <mxCell id="C1Lx6RwTq1piZFSp2DUt-319" value="" style="shape=tableRow;horizontal=0;startSize=0;swimlaneHead=0;swimlaneBody=0;fillColor=none;collapsible=0;dropTarget=0;points=[[0,0.5],[1,0.5]];portConstraint=eastwest;top=0;left=0;right=0;bottom=0;" vertex="1" parent="C1Lx6RwTq1piZFSp2DUt-315">
          <mxGeometry y="60" width="200" height="30" as="geometry" />
        </mxCell>
        <mxCell id="C1Lx6RwTq1piZFSp2DUt-320" value="" style="shape=partialRectangle;connectable=0;fillColor=none;top=0;left=0;bottom=0;right=0;editable=1;overflow=hidden;" vertex="1" parent="C1Lx6RwTq1piZFSp2DUt-319">
          <mxGeometry width="30" height="30" as="geometry">
            <mxRectangle width="30" height="30" as="alternateBounds" />
          </mxGeometry>
        </mxCell>
        <mxCell id="C1Lx6RwTq1piZFSp2DUt-321" value="name char() NOT NULL" style="shape=partialRectangle;connectable=0;fillColor=none;top=0;left=0;bottom=0;right=0;align=left;spacingLeft=6;overflow=hidden;" vertex="1" parent="C1Lx6RwTq1piZFSp2DUt-319">
          <mxGeometry x="30" width="170" height="30" as="geometry">
            <mxRectangle width="170" height="30" as="alternateBounds" />
          </mxGeometry>
        </mxCell>
        <mxCell id="C1Lx6RwTq1piZFSp2DUt-322" value="" style="shape=tableRow;horizontal=0;startSize=0;swimlaneHead=0;swimlaneBody=0;fillColor=none;collapsible=0;dropTarget=0;points=[[0,0.5],[1,0.5]];portConstraint=eastwest;top=0;left=0;right=0;bottom=0;" vertex="1" parent="C1Lx6RwTq1piZFSp2DUt-315">
          <mxGeometry y="90" width="200" height="30" as="geometry" />
        </mxCell>
        <mxCell id="C1Lx6RwTq1piZFSp2DUt-323" value="" style="shape=partialRectangle;connectable=0;fillColor=none;top=0;left=0;bottom=0;right=0;editable=1;overflow=hidden;" vertex="1" parent="C1Lx6RwTq1piZFSp2DUt-322">
          <mxGeometry width="30" height="30" as="geometry">
            <mxRectangle width="30" height="30" as="alternateBounds" />
          </mxGeometry>
        </mxCell>
        <mxCell id="C1Lx6RwTq1piZFSp2DUt-324" value="email char()" style="shape=partialRectangle;connectable=0;fillColor=none;top=0;left=0;bottom=0;right=0;align=left;spacingLeft=6;overflow=hidden;" vertex="1" parent="C1Lx6RwTq1piZFSp2DUt-322">
          <mxGeometry x="30" width="170" height="30" as="geometry">
            <mxRectangle width="170" height="30" as="alternateBounds" />
          </mxGeometry>
        </mxCell>
        <mxCell id="C1Lx6RwTq1piZFSp2DUt-328" value="ContactCard" style="shape=table;startSize=30;container=1;collapsible=1;childLayout=tableLayout;fixedRows=1;rowLines=0;fontStyle=1;align=center;resizeLast=1;rounded=1;shadow=0;sketch=0;fillColor=default;gradientColor=none;swimlaneFillColor=default;" vertex="1" parent="1">
          <mxGeometry x="530" y="500" width="280" height="160" as="geometry" />
        </mxCell>
        <mxCell id="C1Lx6RwTq1piZFSp2DUt-329" value="" style="shape=tableRow;horizontal=0;startSize=0;swimlaneHead=0;swimlaneBody=0;fillColor=none;collapsible=0;dropTarget=0;points=[[0,0.5],[1,0.5]];portConstraint=eastwest;top=0;left=0;right=0;bottom=0;rounded=1;shadow=0;sketch=0;" vertex="1" parent="C1Lx6RwTq1piZFSp2DUt-328">
          <mxGeometry y="30" width="280" height="30" as="geometry" />
        </mxCell>
        <mxCell id="C1Lx6RwTq1piZFSp2DUt-330" value="PK" style="shape=partialRectangle;connectable=0;fillColor=none;top=0;left=0;bottom=0;right=0;fontStyle=1;overflow=hidden;rounded=1;shadow=0;sketch=0;" vertex="1" parent="C1Lx6RwTq1piZFSp2DUt-329">
          <mxGeometry width="60" height="30" as="geometry">
            <mxRectangle width="60" height="30" as="alternateBounds" />
          </mxGeometry>
        </mxCell>
        <mxCell id="C1Lx6RwTq1piZFSp2DUt-331" value="id uuid UNIQUE NOT NULL" style="shape=partialRectangle;connectable=0;fillColor=none;top=0;left=0;bottom=0;right=0;align=left;spacingLeft=6;fontStyle=1;overflow=hidden;rounded=1;shadow=0;sketch=0;" vertex="1" parent="C1Lx6RwTq1piZFSp2DUt-329">
          <mxGeometry x="60" width="220" height="30" as="geometry">
            <mxRectangle width="220" height="30" as="alternateBounds" />
          </mxGeometry>
        </mxCell>
        <mxCell id="C1Lx6RwTq1piZFSp2DUt-332" value="" style="shape=tableRow;horizontal=0;startSize=0;swimlaneHead=0;swimlaneBody=0;fillColor=none;collapsible=0;dropTarget=0;points=[[0,0.5],[1,0.5]];portConstraint=eastwest;top=0;left=0;right=0;bottom=1;rounded=1;shadow=0;sketch=0;" vertex="1" parent="C1Lx6RwTq1piZFSp2DUt-328">
          <mxGeometry y="60" width="280" height="30" as="geometry" />
        </mxCell>
        <mxCell id="C1Lx6RwTq1piZFSp2DUt-333" value="FK" style="shape=partialRectangle;connectable=0;fillColor=none;top=0;left=0;bottom=0;right=0;fontStyle=1;overflow=hidden;rounded=1;shadow=0;sketch=0;" vertex="1" parent="C1Lx6RwTq1piZFSp2DUt-332">
          <mxGeometry width="60" height="30" as="geometry">
            <mxRectangle width="60" height="30" as="alternateBounds" />
          </mxGeometry>
        </mxCell>
        <mxCell id="C1Lx6RwTq1piZFSp2DUt-334" value="user int UNIQUE NOT NULL" style="shape=partialRectangle;connectable=0;fillColor=none;top=0;left=0;bottom=0;right=0;align=left;spacingLeft=6;fontStyle=1;overflow=hidden;rounded=1;shadow=0;sketch=0;" vertex="1" parent="C1Lx6RwTq1piZFSp2DUt-332">
          <mxGeometry x="60" width="220" height="30" as="geometry">
            <mxRectangle width="220" height="30" as="alternateBounds" />
          </mxGeometry>
        </mxCell>
        <mxCell id="C1Lx6RwTq1piZFSp2DUt-335" value="" style="shape=tableRow;horizontal=0;startSize=0;swimlaneHead=0;swimlaneBody=0;fillColor=none;collapsible=0;dropTarget=0;points=[[0,0.5],[1,0.5]];portConstraint=eastwest;top=0;left=0;right=0;bottom=0;rounded=1;shadow=0;sketch=0;" vertex="1" parent="C1Lx6RwTq1piZFSp2DUt-328">
          <mxGeometry y="90" width="280" height="30" as="geometry" />
        </mxCell>
        <mxCell id="C1Lx6RwTq1piZFSp2DUt-336" value="" style="shape=partialRectangle;connectable=0;fillColor=none;top=0;left=0;bottom=0;right=0;editable=1;overflow=hidden;rounded=1;shadow=0;sketch=0;" vertex="1" parent="C1Lx6RwTq1piZFSp2DUt-335">
          <mxGeometry width="60" height="30" as="geometry">
            <mxRectangle width="60" height="30" as="alternateBounds" />
          </mxGeometry>
        </mxCell>
        <mxCell id="C1Lx6RwTq1piZFSp2DUt-337" value="website char()" style="shape=partialRectangle;connectable=0;fillColor=none;top=0;left=0;bottom=0;right=0;align=left;spacingLeft=6;overflow=hidden;rounded=1;shadow=0;sketch=0;" vertex="1" parent="C1Lx6RwTq1piZFSp2DUt-335">
          <mxGeometry x="60" width="220" height="30" as="geometry">
            <mxRectangle width="220" height="30" as="alternateBounds" />
          </mxGeometry>
        </mxCell>
        <mxCell id="C1Lx6RwTq1piZFSp2DUt-338" value="" style="shape=tableRow;horizontal=0;startSize=0;swimlaneHead=0;swimlaneBody=0;fillColor=none;collapsible=0;dropTarget=0;points=[[0,0.5],[1,0.5]];portConstraint=eastwest;top=0;left=0;right=0;bottom=0;rounded=1;shadow=0;sketch=0;" vertex="1" parent="C1Lx6RwTq1piZFSp2DUt-328">
          <mxGeometry y="120" width="280" height="30" as="geometry" />
        </mxCell>
        <mxCell id="C1Lx6RwTq1piZFSp2DUt-339" value="" style="shape=partialRectangle;connectable=0;fillColor=none;top=0;left=0;bottom=0;right=0;editable=1;overflow=hidden;rounded=1;shadow=0;sketch=0;" vertex="1" parent="C1Lx6RwTq1piZFSp2DUt-338">
          <mxGeometry width="60" height="30" as="geometry">
            <mxRectangle width="60" height="30" as="alternateBounds" />
          </mxGeometry>
        </mxCell>
        <mxCell id="C1Lx6RwTq1piZFSp2DUt-340" value="phone char() PROTECTED" style="shape=partialRectangle;connectable=0;fillColor=none;top=0;left=0;bottom=0;right=0;align=left;spacingLeft=6;overflow=hidden;rounded=1;shadow=0;sketch=0;" vertex="1" parent="C1Lx6RwTq1piZFSp2DUt-338">
          <mxGeometry x="60" width="220" height="30" as="geometry">
            <mxRectangle width="220" height="30" as="alternateBounds" />
          </mxGeometry>
        </mxCell>
        <mxCell id="C1Lx6RwTq1piZFSp2DUt-342" value="Address" style="shape=table;startSize=30;container=1;collapsible=1;childLayout=tableLayout;fixedRows=1;rowLines=0;fontStyle=1;align=center;resizeLast=1;rounded=1;shadow=0;sketch=0;fillColor=default;gradientColor=none;swimlaneFillColor=default;" vertex="1" parent="1">
          <mxGeometry x="1090" y="500" width="260" height="250" as="geometry" />
        </mxCell>
        <mxCell id="C1Lx6RwTq1piZFSp2DUt-343" value="" style="shape=tableRow;horizontal=0;startSize=0;swimlaneHead=0;swimlaneBody=0;fillColor=none;collapsible=0;dropTarget=0;points=[[0,0.5],[1,0.5]];portConstraint=eastwest;top=0;left=0;right=0;bottom=0;rounded=1;shadow=0;sketch=0;" vertex="1" parent="C1Lx6RwTq1piZFSp2DUt-342">
          <mxGeometry y="30" width="260" height="30" as="geometry" />
        </mxCell>
        <mxCell id="C1Lx6RwTq1piZFSp2DUt-344" value="PK" style="shape=partialRectangle;connectable=0;fillColor=none;top=0;left=0;bottom=0;right=0;fontStyle=1;overflow=hidden;rounded=1;shadow=0;sketch=0;" vertex="1" parent="C1Lx6RwTq1piZFSp2DUt-343">
          <mxGeometry width="60" height="30" as="geometry">
            <mxRectangle width="60" height="30" as="alternateBounds" />
          </mxGeometry>
        </mxCell>
        <mxCell id="C1Lx6RwTq1piZFSp2DUt-345" value="id uuid UNIQUE NOT NULL" style="shape=partialRectangle;connectable=0;fillColor=none;top=0;left=0;bottom=0;right=0;align=left;spacingLeft=6;fontStyle=1;overflow=hidden;rounded=1;shadow=0;sketch=0;" vertex="1" parent="C1Lx6RwTq1piZFSp2DUt-343">
          <mxGeometry x="60" width="200" height="30" as="geometry">
            <mxRectangle width="200" height="30" as="alternateBounds" />
          </mxGeometry>
        </mxCell>
        <mxCell id="C1Lx6RwTq1piZFSp2DUt-346" value="" style="shape=tableRow;horizontal=0;startSize=0;swimlaneHead=0;swimlaneBody=0;fillColor=none;collapsible=0;dropTarget=0;points=[[0,0.5],[1,0.5]];portConstraint=eastwest;top=0;left=0;right=0;bottom=1;rounded=1;shadow=0;sketch=0;" vertex="1" parent="C1Lx6RwTq1piZFSp2DUt-342">
          <mxGeometry y="60" width="260" height="30" as="geometry" />
        </mxCell>
        <mxCell id="C1Lx6RwTq1piZFSp2DUt-347" value="FK" style="shape=partialRectangle;connectable=0;fillColor=none;top=0;left=0;bottom=0;right=0;fontStyle=1;overflow=hidden;rounded=1;shadow=0;sketch=0;" vertex="1" parent="C1Lx6RwTq1piZFSp2DUt-346">
          <mxGeometry width="60" height="30" as="geometry">
            <mxRectangle width="60" height="30" as="alternateBounds" />
          </mxGeometry>
        </mxCell>
        <mxCell id="C1Lx6RwTq1piZFSp2DUt-348" value="contact_card UNIQUE NOT NULL" style="shape=partialRectangle;connectable=0;fillColor=none;top=0;left=0;bottom=0;right=0;align=left;spacingLeft=6;fontStyle=1;overflow=hidden;rounded=1;shadow=0;sketch=0;" vertex="1" parent="C1Lx6RwTq1piZFSp2DUt-346">
          <mxGeometry x="60" width="200" height="30" as="geometry">
            <mxRectangle width="200" height="30" as="alternateBounds" />
          </mxGeometry>
        </mxCell>
        <mxCell id="C1Lx6RwTq1piZFSp2DUt-349" value="" style="shape=tableRow;horizontal=0;startSize=0;swimlaneHead=0;swimlaneBody=0;fillColor=none;collapsible=0;dropTarget=0;points=[[0,0.5],[1,0.5]];portConstraint=eastwest;top=0;left=0;right=0;bottom=0;rounded=1;shadow=0;sketch=0;swimlaneFillColor=default;" vertex="1" parent="C1Lx6RwTq1piZFSp2DUt-342">
          <mxGeometry y="90" width="260" height="30" as="geometry" />
        </mxCell>
        <mxCell id="C1Lx6RwTq1piZFSp2DUt-350" value="" style="shape=partialRectangle;connectable=0;fillColor=none;top=0;left=0;bottom=0;right=0;editable=1;overflow=hidden;rounded=1;shadow=0;sketch=0;" vertex="1" parent="C1Lx6RwTq1piZFSp2DUt-349">
          <mxGeometry width="60" height="30" as="geometry">
            <mxRectangle width="60" height="30" as="alternateBounds" />
          </mxGeometry>
        </mxCell>
        <mxCell id="C1Lx6RwTq1piZFSp2DUt-351" value="street_one char() PROTECTED" style="shape=partialRectangle;connectable=0;fillColor=none;top=0;left=0;bottom=0;right=0;align=left;spacingLeft=6;overflow=hidden;rounded=1;shadow=0;sketch=0;" vertex="1" parent="C1Lx6RwTq1piZFSp2DUt-349">
          <mxGeometry x="60" width="200" height="30" as="geometry">
            <mxRectangle width="200" height="30" as="alternateBounds" />
          </mxGeometry>
        </mxCell>
        <mxCell id="C1Lx6RwTq1piZFSp2DUt-352" value="" style="shape=tableRow;horizontal=0;startSize=0;swimlaneHead=0;swimlaneBody=0;fillColor=none;collapsible=0;dropTarget=0;points=[[0,0.5],[1,0.5]];portConstraint=eastwest;top=0;left=0;right=0;bottom=0;rounded=1;shadow=0;sketch=0;" vertex="1" parent="C1Lx6RwTq1piZFSp2DUt-342">
          <mxGeometry y="120" width="260" height="30" as="geometry" />
        </mxCell>
        <mxCell id="C1Lx6RwTq1piZFSp2DUt-353" value="" style="shape=partialRectangle;connectable=0;fillColor=none;top=0;left=0;bottom=0;right=0;editable=1;overflow=hidden;rounded=1;shadow=0;sketch=0;" vertex="1" parent="C1Lx6RwTq1piZFSp2DUt-352">
          <mxGeometry width="60" height="30" as="geometry">
            <mxRectangle width="60" height="30" as="alternateBounds" />
          </mxGeometry>
        </mxCell>
        <mxCell id="C1Lx6RwTq1piZFSp2DUt-354" value="street_two  char() PROTECTED" style="shape=partialRectangle;connectable=0;fillColor=none;top=0;left=0;bottom=0;right=0;align=left;spacingLeft=6;overflow=hidden;rounded=1;shadow=0;sketch=0;" vertex="1" parent="C1Lx6RwTq1piZFSp2DUt-352">
          <mxGeometry x="60" width="200" height="30" as="geometry">
            <mxRectangle width="200" height="30" as="alternateBounds" />
          </mxGeometry>
        </mxCell>
        <mxCell id="C1Lx6RwTq1piZFSp2DUt-361" style="shape=tableRow;horizontal=0;startSize=0;swimlaneHead=0;swimlaneBody=0;fillColor=none;collapsible=0;dropTarget=0;points=[[0,0.5],[1,0.5]];portConstraint=eastwest;top=0;left=0;right=0;bottom=0;rounded=1;shadow=0;sketch=0;" vertex="1" parent="C1Lx6RwTq1piZFSp2DUt-342">
          <mxGeometry y="150" width="260" height="30" as="geometry" />
        </mxCell>
        <mxCell id="C1Lx6RwTq1piZFSp2DUt-362" style="shape=partialRectangle;connectable=0;fillColor=none;top=0;left=0;bottom=0;right=0;editable=1;overflow=hidden;rounded=1;shadow=0;sketch=0;" vertex="1" parent="C1Lx6RwTq1piZFSp2DUt-361">
          <mxGeometry width="60" height="30" as="geometry">
            <mxRectangle width="60" height="30" as="alternateBounds" />
          </mxGeometry>
        </mxCell>
        <mxCell id="C1Lx6RwTq1piZFSp2DUt-363" value="city  char() PROTECTED" style="shape=partialRectangle;connectable=0;fillColor=none;top=0;left=0;bottom=0;right=0;align=left;spacingLeft=6;overflow=hidden;rounded=1;shadow=0;sketch=0;" vertex="1" parent="C1Lx6RwTq1piZFSp2DUt-361">
          <mxGeometry x="60" width="200" height="30" as="geometry">
            <mxRectangle width="200" height="30" as="alternateBounds" />
          </mxGeometry>
        </mxCell>
        <mxCell id="C1Lx6RwTq1piZFSp2DUt-358" style="shape=tableRow;horizontal=0;startSize=0;swimlaneHead=0;swimlaneBody=0;fillColor=none;collapsible=0;dropTarget=0;points=[[0,0.5],[1,0.5]];portConstraint=eastwest;top=0;left=0;right=0;bottom=0;rounded=1;shadow=0;sketch=0;" vertex="1" parent="C1Lx6RwTq1piZFSp2DUt-342">
          <mxGeometry y="180" width="260" height="30" as="geometry" />
        </mxCell>
        <mxCell id="C1Lx6RwTq1piZFSp2DUt-359" style="shape=partialRectangle;connectable=0;fillColor=none;top=0;left=0;bottom=0;right=0;editable=1;overflow=hidden;rounded=1;shadow=0;sketch=0;" vertex="1" parent="C1Lx6RwTq1piZFSp2DUt-358">
          <mxGeometry width="60" height="30" as="geometry">
            <mxRectangle width="60" height="30" as="alternateBounds" />
          </mxGeometry>
        </mxCell>
        <mxCell id="C1Lx6RwTq1piZFSp2DUt-360" value="state  char() PROTECTED" style="shape=partialRectangle;connectable=0;fillColor=none;top=0;left=0;bottom=0;right=0;align=left;spacingLeft=6;overflow=hidden;rounded=1;shadow=0;sketch=0;" vertex="1" parent="C1Lx6RwTq1piZFSp2DUt-358">
          <mxGeometry x="60" width="200" height="30" as="geometry">
            <mxRectangle width="200" height="30" as="alternateBounds" />
          </mxGeometry>
        </mxCell>
        <mxCell id="C1Lx6RwTq1piZFSp2DUt-355" style="shape=tableRow;horizontal=0;startSize=0;swimlaneHead=0;swimlaneBody=0;fillColor=none;collapsible=0;dropTarget=0;points=[[0,0.5],[1,0.5]];portConstraint=eastwest;top=0;left=0;right=0;bottom=0;rounded=1;shadow=0;sketch=0;" vertex="1" parent="C1Lx6RwTq1piZFSp2DUt-342">
          <mxGeometry y="210" width="260" height="30" as="geometry" />
        </mxCell>
        <mxCell id="C1Lx6RwTq1piZFSp2DUt-356" style="shape=partialRectangle;connectable=0;fillColor=none;top=0;left=0;bottom=0;right=0;editable=1;overflow=hidden;rounded=1;shadow=0;sketch=0;" vertex="1" parent="C1Lx6RwTq1piZFSp2DUt-355">
          <mxGeometry width="60" height="30" as="geometry">
            <mxRectangle width="60" height="30" as="alternateBounds" />
          </mxGeometry>
        </mxCell>
        <mxCell id="C1Lx6RwTq1piZFSp2DUt-357" value="zip  char() PROTECTED" style="shape=partialRectangle;connectable=0;fillColor=none;top=0;left=0;bottom=0;right=0;align=left;spacingLeft=6;overflow=hidden;rounded=1;shadow=0;sketch=0;" vertex="1" parent="C1Lx6RwTq1piZFSp2DUt-355">
          <mxGeometry x="60" width="200" height="30" as="geometry">
            <mxRectangle width="200" height="30" as="alternateBounds" />
          </mxGeometry>
        </mxCell>
        <mxCell id="C1Lx6RwTq1piZFSp2DUt-364" value="Category" style="shape=table;startSize=30;container=1;collapsible=1;childLayout=tableLayout;fixedRows=1;rowLines=0;fontStyle=1;align=center;resizeLast=1;rounded=1;shadow=0;sketch=0;fillColor=default;gradientColor=none;swimlaneFillColor=default;" vertex="1" parent="1">
          <mxGeometry x="1610" y="970" width="211" height="90" as="geometry" />
        </mxCell>
        <mxCell id="C1Lx6RwTq1piZFSp2DUt-365" value="" style="shape=tableRow;horizontal=0;startSize=0;swimlaneHead=0;swimlaneBody=0;fillColor=none;collapsible=0;dropTarget=0;points=[[0,0.5],[1,0.5]];portConstraint=eastwest;top=0;left=0;right=0;bottom=0;rounded=1;shadow=0;sketch=0;" vertex="1" parent="C1Lx6RwTq1piZFSp2DUt-364">
          <mxGeometry y="30" width="211" height="30" as="geometry" />
        </mxCell>
        <mxCell id="C1Lx6RwTq1piZFSp2DUt-366" value="PK" style="shape=partialRectangle;connectable=0;fillColor=none;top=0;left=0;bottom=1;right=0;fontStyle=1;overflow=hidden;rounded=1;shadow=0;sketch=0;" vertex="1" parent="C1Lx6RwTq1piZFSp2DUt-365">
          <mxGeometry width="40" height="30" as="geometry">
            <mxRectangle width="40" height="30" as="alternateBounds" />
          </mxGeometry>
        </mxCell>
        <mxCell id="C1Lx6RwTq1piZFSp2DUt-367" value="id uuid UNIQUE NOT NULL" style="shape=partialRectangle;connectable=0;fillColor=none;top=0;left=0;bottom=1;right=0;align=left;spacingLeft=6;fontStyle=1;overflow=hidden;rounded=1;shadow=0;sketch=0;" vertex="1" parent="C1Lx6RwTq1piZFSp2DUt-365">
          <mxGeometry x="40" width="171" height="30" as="geometry">
            <mxRectangle width="171" height="30" as="alternateBounds" />
          </mxGeometry>
        </mxCell>
        <mxCell id="C1Lx6RwTq1piZFSp2DUt-371" value="" style="shape=tableRow;horizontal=0;startSize=0;swimlaneHead=0;swimlaneBody=0;fillColor=none;collapsible=0;dropTarget=0;points=[[0,0.5],[1,0.5]];portConstraint=eastwest;top=0;left=0;right=0;bottom=0;rounded=1;shadow=0;sketch=0;" vertex="1" parent="C1Lx6RwTq1piZFSp2DUt-364">
          <mxGeometry y="60" width="211" height="20" as="geometry" />
        </mxCell>
        <mxCell id="C1Lx6RwTq1piZFSp2DUt-372" value="" style="shape=partialRectangle;connectable=0;fillColor=none;top=0;left=0;bottom=0;right=0;editable=1;overflow=hidden;rounded=1;shadow=0;sketch=0;" vertex="1" parent="C1Lx6RwTq1piZFSp2DUt-371">
          <mxGeometry width="40" height="20" as="geometry">
            <mxRectangle width="40" height="20" as="alternateBounds" />
          </mxGeometry>
        </mxCell>
        <mxCell id="C1Lx6RwTq1piZFSp2DUt-373" value="title char()" style="shape=partialRectangle;connectable=0;fillColor=none;top=0;left=0;bottom=0;right=0;align=left;spacingLeft=6;overflow=hidden;rounded=1;shadow=0;sketch=0;" vertex="1" parent="C1Lx6RwTq1piZFSp2DUt-371">
          <mxGeometry x="40" width="171" height="20" as="geometry">
            <mxRectangle width="171" height="20" as="alternateBounds" />
          </mxGeometry>
        </mxCell>
        <mxCell id="C1Lx6RwTq1piZFSp2DUt-377" value="Page" style="shape=table;startSize=30;container=1;collapsible=1;childLayout=tableLayout;fixedRows=1;rowLines=0;fontStyle=1;align=center;resizeLast=1;rounded=1;shadow=0;sketch=0;fillColor=default;gradientColor=none;swimlaneFillColor=default;" vertex="1" parent="1">
          <mxGeometry x="1942" y="1049" width="221" height="160" as="geometry" />
        </mxCell>
        <mxCell id="C1Lx6RwTq1piZFSp2DUt-378" value="" style="shape=tableRow;horizontal=0;startSize=0;swimlaneHead=0;swimlaneBody=0;fillColor=none;collapsible=0;dropTarget=0;points=[[0,0.5],[1,0.5]];portConstraint=eastwest;top=0;left=0;right=0;bottom=0;rounded=1;shadow=0;sketch=0;" vertex="1" parent="C1Lx6RwTq1piZFSp2DUt-377">
          <mxGeometry y="30" width="221" height="30" as="geometry" />
        </mxCell>
        <mxCell id="C1Lx6RwTq1piZFSp2DUt-379" value="PK" style="shape=partialRectangle;connectable=0;fillColor=none;top=0;left=0;bottom=0;right=0;fontStyle=1;overflow=hidden;rounded=1;shadow=0;sketch=0;" vertex="1" parent="C1Lx6RwTq1piZFSp2DUt-378">
          <mxGeometry width="45" height="30" as="geometry">
            <mxRectangle width="45" height="30" as="alternateBounds" />
          </mxGeometry>
        </mxCell>
        <mxCell id="C1Lx6RwTq1piZFSp2DUt-380" value="id uuid UNIQUE NOT NULL" style="shape=partialRectangle;connectable=0;fillColor=none;top=0;left=0;bottom=0;right=0;align=left;spacingLeft=6;fontStyle=1;overflow=hidden;rounded=1;shadow=0;sketch=0;" vertex="1" parent="C1Lx6RwTq1piZFSp2DUt-378">
          <mxGeometry x="45" width="176" height="30" as="geometry">
            <mxRectangle width="176" height="30" as="alternateBounds" />
          </mxGeometry>
        </mxCell>
        <mxCell id="C1Lx6RwTq1piZFSp2DUt-393" style="shape=tableRow;horizontal=0;startSize=0;swimlaneHead=0;swimlaneBody=0;fillColor=none;collapsible=0;dropTarget=0;points=[[0,0.5],[1,0.5]];portConstraint=eastwest;top=0;left=0;right=0;bottom=0;rounded=1;shadow=0;sketch=0;" vertex="1" parent="C1Lx6RwTq1piZFSp2DUt-377">
          <mxGeometry y="60" width="221" height="30" as="geometry" />
        </mxCell>
        <mxCell id="C1Lx6RwTq1piZFSp2DUt-394" value="FK" style="shape=partialRectangle;connectable=0;fillColor=none;top=0;left=0;bottom=0;right=0;fontStyle=1;overflow=hidden;rounded=1;shadow=0;sketch=0;" vertex="1" parent="C1Lx6RwTq1piZFSp2DUt-393">
          <mxGeometry width="45" height="30" as="geometry">
            <mxRectangle width="45" height="30" as="alternateBounds" />
          </mxGeometry>
        </mxCell>
        <mxCell id="C1Lx6RwTq1piZFSp2DUt-395" value="category uuid NOT NULL" style="shape=partialRectangle;connectable=0;fillColor=none;top=0;left=0;bottom=0;right=0;align=left;spacingLeft=6;fontStyle=1;overflow=hidden;rounded=1;shadow=0;sketch=0;" vertex="1" parent="C1Lx6RwTq1piZFSp2DUt-393">
          <mxGeometry x="45" width="176" height="30" as="geometry">
            <mxRectangle width="176" height="30" as="alternateBounds" />
          </mxGeometry>
        </mxCell>
        <mxCell id="C1Lx6RwTq1piZFSp2DUt-381" value="" style="shape=tableRow;horizontal=0;startSize=0;swimlaneHead=0;swimlaneBody=0;fillColor=none;collapsible=0;dropTarget=0;points=[[0,0.5],[1,0.5]];portConstraint=eastwest;top=0;left=0;right=0;bottom=1;rounded=1;shadow=0;sketch=0;" vertex="1" parent="C1Lx6RwTq1piZFSp2DUt-377">
          <mxGeometry y="90" width="221" height="30" as="geometry" />
        </mxCell>
        <mxCell id="C1Lx6RwTq1piZFSp2DUt-382" value="FK" style="shape=partialRectangle;connectable=0;fillColor=none;top=0;left=0;bottom=0;right=0;fontStyle=1;overflow=hidden;rounded=1;shadow=0;sketch=0;" vertex="1" parent="C1Lx6RwTq1piZFSp2DUt-381">
          <mxGeometry width="45" height="30" as="geometry">
            <mxRectangle width="45" height="30" as="alternateBounds" />
          </mxGeometry>
        </mxCell>
        <mxCell id="C1Lx6RwTq1piZFSp2DUt-383" value="user uuid NOT NULL" style="shape=partialRectangle;connectable=0;fillColor=none;top=0;left=0;bottom=0;right=0;align=left;spacingLeft=6;fontStyle=1;overflow=hidden;rounded=1;shadow=0;sketch=0;" vertex="1" parent="C1Lx6RwTq1piZFSp2DUt-381">
          <mxGeometry x="45" width="176" height="30" as="geometry">
            <mxRectangle width="176" height="30" as="alternateBounds" />
          </mxGeometry>
        </mxCell>
        <mxCell id="C1Lx6RwTq1piZFSp2DUt-384" value="" style="shape=tableRow;horizontal=0;startSize=0;swimlaneHead=0;swimlaneBody=0;fillColor=none;collapsible=0;dropTarget=0;points=[[0,0.5],[1,0.5]];portConstraint=eastwest;top=0;left=0;right=0;bottom=0;rounded=1;shadow=0;sketch=0;" vertex="1" parent="C1Lx6RwTq1piZFSp2DUt-377">
          <mxGeometry y="120" width="221" height="30" as="geometry" />
        </mxCell>
        <mxCell id="C1Lx6RwTq1piZFSp2DUt-385" value="" style="shape=partialRectangle;connectable=0;fillColor=none;top=0;left=0;bottom=0;right=0;editable=1;overflow=hidden;rounded=1;shadow=0;sketch=0;" vertex="1" parent="C1Lx6RwTq1piZFSp2DUt-384">
          <mxGeometry width="45" height="30" as="geometry">
            <mxRectangle width="45" height="30" as="alternateBounds" />
          </mxGeometry>
        </mxCell>
        <mxCell id="C1Lx6RwTq1piZFSp2DUt-386" value="copy char()" style="shape=partialRectangle;connectable=0;fillColor=none;top=0;left=0;bottom=0;right=0;align=left;spacingLeft=6;overflow=hidden;rounded=1;shadow=0;sketch=0;" vertex="1" parent="C1Lx6RwTq1piZFSp2DUt-384">
          <mxGeometry x="45" width="176" height="30" as="geometry">
            <mxRectangle width="176" height="30" as="alternateBounds" />
          </mxGeometry>
        </mxCell>
        <UserObject label="" lucidchartObjectId="7-xZy9cFa7On" id="C1Lx6RwTq1piZFSp2DUt-396">
          <mxCell style="html=1;jettySize=18;whiteSpace=wrap;fontSize=13;strokeColor=#1A1A1A;strokeWidth=1.5;rounded=1;arcSize=12;edgeStyle=orthogonalEdgeStyle;startArrow=ERone;startSize=16;endArrow=ERmany;endSize=10;exitX=1;exitY=0.5;exitDx=0;exitDy=0;entryX=0;entryY=0.5;entryDx=0;entryDy=0;" edge="1" parent="1" source="C1Lx6RwTq1piZFSp2DUt-365" target="C1Lx6RwTq1piZFSp2DUt-393">
            <mxGeometry width="100" height="100" relative="1" as="geometry">
              <Array as="points">
                <mxPoint x="1850" y="1015" />
                <mxPoint x="1850" y="1124" />
              </Array>
              <mxPoint x="1821" y="1015" as="sourcePoint" />
              <mxPoint x="1920" y="1225" as="targetPoint" />
            </mxGeometry>
          </mxCell>
        </UserObject>
        <mxCell id="C1Lx6RwTq1piZFSp2DUt-410" value="Reply" style="shape=table;startSize=30;container=1;collapsible=1;childLayout=tableLayout;fixedRows=1;rowLines=0;fontStyle=1;align=center;resizeLast=1;rounded=1;shadow=0;sketch=0;fillColor=default;gradientColor=none;swimlaneFillColor=default;" vertex="1" parent="1">
          <mxGeometry x="1910" y="1340" width="285" height="160" as="geometry" />
        </mxCell>
        <mxCell id="C1Lx6RwTq1piZFSp2DUt-411" value="" style="shape=tableRow;horizontal=0;startSize=0;swimlaneHead=0;swimlaneBody=0;fillColor=none;collapsible=0;dropTarget=0;points=[[0,0.5],[1,0.5]];portConstraint=eastwest;top=0;left=0;right=0;bottom=0;rounded=1;shadow=0;sketch=0;" vertex="1" parent="C1Lx6RwTq1piZFSp2DUt-410">
          <mxGeometry y="30" width="285" height="30" as="geometry" />
        </mxCell>
        <mxCell id="C1Lx6RwTq1piZFSp2DUt-412" value="PK" style="shape=partialRectangle;connectable=0;fillColor=none;top=0;left=0;bottom=0;right=0;fontStyle=1;overflow=hidden;rounded=1;shadow=0;sketch=0;" vertex="1" parent="C1Lx6RwTq1piZFSp2DUt-411">
          <mxGeometry width="45" height="30" as="geometry">
            <mxRectangle width="45" height="30" as="alternateBounds" />
          </mxGeometry>
        </mxCell>
        <mxCell id="C1Lx6RwTq1piZFSp2DUt-413" value="id uuid UNIQUE NOT NULL" style="shape=partialRectangle;connectable=0;fillColor=none;top=0;left=0;bottom=0;right=0;align=left;spacingLeft=6;fontStyle=5;overflow=hidden;rounded=1;shadow=0;sketch=0;" vertex="1" parent="C1Lx6RwTq1piZFSp2DUt-411">
          <mxGeometry x="45" width="240" height="30" as="geometry">
            <mxRectangle width="240" height="30" as="alternateBounds" />
          </mxGeometry>
        </mxCell>
        <mxCell id="C1Lx6RwTq1piZFSp2DUt-414" value="" style="shape=tableRow;horizontal=0;startSize=0;swimlaneHead=0;swimlaneBody=0;fillColor=none;collapsible=0;dropTarget=0;points=[[0,0.5],[1,0.5]];portConstraint=eastwest;top=0;left=0;right=0;bottom=0;rounded=1;shadow=0;sketch=0;" vertex="1" parent="C1Lx6RwTq1piZFSp2DUt-410">
          <mxGeometry y="60" width="285" height="30" as="geometry" />
        </mxCell>
        <mxCell id="C1Lx6RwTq1piZFSp2DUt-415" value="FK" style="shape=partialRectangle;connectable=0;fillColor=none;top=0;left=0;bottom=0;right=0;fontStyle=1;overflow=hidden;rounded=1;shadow=0;sketch=0;" vertex="1" parent="C1Lx6RwTq1piZFSp2DUt-414">
          <mxGeometry width="45" height="30" as="geometry">
            <mxRectangle width="45" height="30" as="alternateBounds" />
          </mxGeometry>
        </mxCell>
        <mxCell id="C1Lx6RwTq1piZFSp2DUt-416" value="page uuid NOT NULL" style="shape=partialRectangle;connectable=0;fillColor=none;top=0;left=0;bottom=0;right=0;align=left;spacingLeft=6;fontStyle=5;overflow=hidden;rounded=1;shadow=0;sketch=0;" vertex="1" parent="C1Lx6RwTq1piZFSp2DUt-414">
          <mxGeometry x="45" width="240" height="30" as="geometry">
            <mxRectangle width="240" height="30" as="alternateBounds" />
          </mxGeometry>
        </mxCell>
        <mxCell id="C1Lx6RwTq1piZFSp2DUt-423" style="shape=tableRow;horizontal=0;startSize=0;swimlaneHead=0;swimlaneBody=0;fillColor=none;collapsible=0;dropTarget=0;points=[[0,0.5],[1,0.5]];portConstraint=eastwest;top=0;left=0;right=0;bottom=1;rounded=1;shadow=0;sketch=0;" vertex="1" parent="C1Lx6RwTq1piZFSp2DUt-410">
          <mxGeometry y="90" width="285" height="30" as="geometry" />
        </mxCell>
        <mxCell id="C1Lx6RwTq1piZFSp2DUt-424" value="FK" style="shape=partialRectangle;connectable=0;fillColor=none;top=0;left=0;bottom=0;right=0;fontStyle=1;overflow=hidden;rounded=1;shadow=0;sketch=0;" vertex="1" parent="C1Lx6RwTq1piZFSp2DUt-423">
          <mxGeometry width="45" height="30" as="geometry">
            <mxRectangle width="45" height="30" as="alternateBounds" />
          </mxGeometry>
        </mxCell>
        <mxCell id="C1Lx6RwTq1piZFSp2DUt-425" value="user uuid NOT NULL" style="shape=partialRectangle;connectable=0;fillColor=none;top=0;left=0;bottom=0;right=0;align=left;spacingLeft=6;fontStyle=5;overflow=hidden;rounded=1;shadow=0;sketch=0;" vertex="1" parent="C1Lx6RwTq1piZFSp2DUt-423">
          <mxGeometry x="45" width="240" height="30" as="geometry">
            <mxRectangle width="240" height="30" as="alternateBounds" />
          </mxGeometry>
        </mxCell>
        <mxCell id="C1Lx6RwTq1piZFSp2DUt-417" value="" style="shape=tableRow;horizontal=0;startSize=0;swimlaneHead=0;swimlaneBody=0;fillColor=none;collapsible=0;dropTarget=0;points=[[0,0.5],[1,0.5]];portConstraint=eastwest;top=0;left=0;right=0;bottom=0;rounded=1;shadow=0;sketch=0;" vertex="1" parent="C1Lx6RwTq1piZFSp2DUt-410">
          <mxGeometry y="120" width="285" height="30" as="geometry" />
        </mxCell>
        <mxCell id="C1Lx6RwTq1piZFSp2DUt-418" value="" style="shape=partialRectangle;connectable=0;fillColor=none;top=0;left=0;bottom=0;right=0;editable=1;overflow=hidden;rounded=1;shadow=0;sketch=0;" vertex="1" parent="C1Lx6RwTq1piZFSp2DUt-417">
          <mxGeometry width="45" height="30" as="geometry">
            <mxRectangle width="45" height="30" as="alternateBounds" />
          </mxGeometry>
        </mxCell>
        <mxCell id="C1Lx6RwTq1piZFSp2DUt-419" value="copy char()" style="shape=partialRectangle;connectable=0;fillColor=none;top=0;left=0;bottom=0;right=0;align=left;spacingLeft=6;overflow=hidden;rounded=1;shadow=0;sketch=0;" vertex="1" parent="C1Lx6RwTq1piZFSp2DUt-417">
          <mxGeometry x="45" width="240" height="30" as="geometry">
            <mxRectangle width="240" height="30" as="alternateBounds" />
          </mxGeometry>
        </mxCell>
        <mxCell id="C1Lx6RwTq1piZFSp2DUt-429" value="Reply_Reply" style="shape=table;startSize=30;container=1;collapsible=1;childLayout=tableLayout;fixedRows=1;rowLines=0;fontStyle=1;align=center;resizeLast=1;rounded=1;shadow=0;sketch=0;fillColor=default;gradientColor=none;swimlaneFillColor=default;" vertex="1" parent="1">
          <mxGeometry x="2320" y="1310" width="225" height="130" as="geometry" />
        </mxCell>
        <mxCell id="C1Lx6RwTq1piZFSp2DUt-430" value="" style="shape=tableRow;horizontal=0;startSize=0;swimlaneHead=0;swimlaneBody=0;fillColor=none;collapsible=0;dropTarget=0;points=[[0,0.5],[1,0.5]];portConstraint=eastwest;top=0;left=0;right=0;bottom=0;rounded=1;shadow=0;sketch=0;" vertex="1" parent="C1Lx6RwTq1piZFSp2DUt-429">
          <mxGeometry y="30" width="225" height="30" as="geometry" />
        </mxCell>
        <mxCell id="C1Lx6RwTq1piZFSp2DUt-431" value="PK" style="shape=partialRectangle;connectable=0;fillColor=none;top=0;left=0;bottom=0;right=0;fontStyle=1;overflow=hidden;rounded=1;shadow=0;sketch=0;" vertex="1" parent="C1Lx6RwTq1piZFSp2DUt-430">
          <mxGeometry width="45" height="30" as="geometry">
            <mxRectangle width="45" height="30" as="alternateBounds" />
          </mxGeometry>
        </mxCell>
        <mxCell id="C1Lx6RwTq1piZFSp2DUt-432" value="id uuid UNIQUE NOT NULL" style="shape=partialRectangle;connectable=0;fillColor=none;top=0;left=0;bottom=0;right=0;align=left;spacingLeft=6;fontStyle=1;overflow=hidden;rounded=1;shadow=0;sketch=0;" vertex="1" parent="C1Lx6RwTq1piZFSp2DUt-430">
          <mxGeometry x="45" width="180" height="30" as="geometry">
            <mxRectangle width="180" height="30" as="alternateBounds" />
          </mxGeometry>
        </mxCell>
        <mxCell id="C1Lx6RwTq1piZFSp2DUt-442" style="shape=tableRow;horizontal=0;startSize=0;swimlaneHead=0;swimlaneBody=0;fillColor=none;collapsible=0;dropTarget=0;points=[[0,0.5],[1,0.5]];portConstraint=eastwest;top=0;left=0;right=0;bottom=0;rounded=1;shadow=0;sketch=0;" vertex="1" parent="C1Lx6RwTq1piZFSp2DUt-429">
          <mxGeometry y="60" width="225" height="30" as="geometry" />
        </mxCell>
        <mxCell id="C1Lx6RwTq1piZFSp2DUt-443" value="FK" style="shape=partialRectangle;connectable=0;fillColor=none;top=0;left=0;bottom=0;right=0;fontStyle=1;overflow=hidden;rounded=1;shadow=0;sketch=0;" vertex="1" parent="C1Lx6RwTq1piZFSp2DUt-442">
          <mxGeometry width="45" height="30" as="geometry">
            <mxRectangle width="45" height="30" as="alternateBounds" />
          </mxGeometry>
        </mxCell>
        <mxCell id="C1Lx6RwTq1piZFSp2DUt-444" value="reply_og uuid NOT NULL" style="shape=partialRectangle;connectable=0;fillColor=none;top=0;left=0;bottom=0;right=0;align=left;spacingLeft=6;fontStyle=1;overflow=hidden;rounded=1;shadow=0;sketch=0;" vertex="1" parent="C1Lx6RwTq1piZFSp2DUt-442">
          <mxGeometry x="45" width="180" height="30" as="geometry">
            <mxRectangle width="180" height="30" as="alternateBounds" />
          </mxGeometry>
        </mxCell>
        <mxCell id="C1Lx6RwTq1piZFSp2DUt-433" value="" style="shape=tableRow;horizontal=0;startSize=0;swimlaneHead=0;swimlaneBody=0;fillColor=none;collapsible=0;dropTarget=0;points=[[0,0.5],[1,0.5]];portConstraint=eastwest;top=0;left=0;right=0;bottom=0;rounded=1;shadow=0;sketch=0;" vertex="1" parent="C1Lx6RwTq1piZFSp2DUt-429">
          <mxGeometry y="90" width="225" height="30" as="geometry" />
        </mxCell>
        <mxCell id="C1Lx6RwTq1piZFSp2DUt-434" value="FK" style="shape=partialRectangle;connectable=0;fillColor=none;top=0;left=0;bottom=0;right=0;fontStyle=1;overflow=hidden;rounded=1;shadow=0;sketch=0;" vertex="1" parent="C1Lx6RwTq1piZFSp2DUt-433">
          <mxGeometry width="45" height="30" as="geometry">
            <mxRectangle width="45" height="30" as="alternateBounds" />
          </mxGeometry>
        </mxCell>
        <mxCell id="C1Lx6RwTq1piZFSp2DUt-435" value="reply_sub uuid NOT NULL" style="shape=partialRectangle;connectable=0;fillColor=none;top=0;left=0;bottom=0;right=0;align=left;spacingLeft=6;fontStyle=1;overflow=hidden;rounded=1;shadow=0;sketch=0;" vertex="1" parent="C1Lx6RwTq1piZFSp2DUt-433">
          <mxGeometry x="45" width="180" height="30" as="geometry">
            <mxRectangle width="180" height="30" as="alternateBounds" />
          </mxGeometry>
        </mxCell>
        <mxCell id="C1Lx6RwTq1piZFSp2DUt-445" value="blog app" style="text;html=1;strokeColor=none;fillColor=none;align=center;verticalAlign=middle;whiteSpace=wrap;rounded=0;shadow=0;sketch=0;" vertex="1" parent="1">
          <mxGeometry x="2470" y="986" width="60" height="30" as="geometry" />
        </mxCell>
        <mxCell id="C1Lx6RwTq1piZFSp2DUt-447" value="HackTheBox" style="shape=table;startSize=30;container=1;collapsible=1;childLayout=tableLayout;fixedRows=1;rowLines=0;fontStyle=1;align=center;resizeLast=1;rounded=1;shadow=0;sketch=0;fillColor=default;gradientColor=none;swimlaneFillColor=default;" vertex="1" parent="1">
          <mxGeometry x="900" y="1160" width="245" height="160" as="geometry" />
        </mxCell>
        <mxCell id="C1Lx6RwTq1piZFSp2DUt-448" value="" style="shape=tableRow;horizontal=0;startSize=0;swimlaneHead=0;swimlaneBody=0;fillColor=none;collapsible=0;dropTarget=0;points=[[0,0.5],[1,0.5]];portConstraint=eastwest;top=0;left=0;right=0;bottom=0;rounded=1;shadow=0;sketch=0;" vertex="1" parent="C1Lx6RwTq1piZFSp2DUt-447">
          <mxGeometry y="30" width="245" height="30" as="geometry" />
        </mxCell>
        <mxCell id="C1Lx6RwTq1piZFSp2DUt-449" value="PK" style="shape=partialRectangle;connectable=0;fillColor=none;top=0;left=0;bottom=0;right=0;fontStyle=1;overflow=hidden;rounded=1;shadow=0;sketch=0;" vertex="1" parent="C1Lx6RwTq1piZFSp2DUt-448">
          <mxGeometry width="45" height="30" as="geometry">
            <mxRectangle width="45" height="30" as="alternateBounds" />
          </mxGeometry>
        </mxCell>
        <mxCell id="C1Lx6RwTq1piZFSp2DUt-450" value="id uuid UNIQUE NOT NULL" style="shape=partialRectangle;connectable=0;fillColor=none;top=0;left=0;bottom=0;right=0;align=left;spacingLeft=6;fontStyle=1;overflow=hidden;rounded=1;shadow=0;sketch=0;" vertex="1" parent="C1Lx6RwTq1piZFSp2DUt-448">
          <mxGeometry x="45" width="200" height="30" as="geometry">
            <mxRectangle width="200" height="30" as="alternateBounds" />
          </mxGeometry>
        </mxCell>
        <mxCell id="C1Lx6RwTq1piZFSp2DUt-451" value="" style="shape=tableRow;horizontal=0;startSize=0;swimlaneHead=0;swimlaneBody=0;fillColor=none;collapsible=0;dropTarget=0;points=[[0,0.5],[1,0.5]];portConstraint=eastwest;top=0;left=0;right=0;bottom=1;rounded=1;shadow=0;sketch=0;" vertex="1" parent="C1Lx6RwTq1piZFSp2DUt-447">
          <mxGeometry y="60" width="245" height="30" as="geometry" />
        </mxCell>
        <mxCell id="C1Lx6RwTq1piZFSp2DUt-452" value="FK" style="shape=partialRectangle;connectable=0;fillColor=none;top=0;left=0;bottom=0;right=0;fontStyle=1;overflow=hidden;rounded=1;shadow=0;sketch=0;" vertex="1" parent="C1Lx6RwTq1piZFSp2DUt-451">
          <mxGeometry width="45" height="30" as="geometry">
            <mxRectangle width="45" height="30" as="alternateBounds" />
          </mxGeometry>
        </mxCell>
        <mxCell id="C1Lx6RwTq1piZFSp2DUt-453" value="contact_card uuid NOT NULL" style="shape=partialRectangle;connectable=0;fillColor=none;top=0;left=0;bottom=0;right=0;align=left;spacingLeft=6;fontStyle=1;overflow=hidden;rounded=1;shadow=0;sketch=0;" vertex="1" parent="C1Lx6RwTq1piZFSp2DUt-451">
          <mxGeometry x="45" width="200" height="30" as="geometry">
            <mxRectangle width="200" height="30" as="alternateBounds" />
          </mxGeometry>
        </mxCell>
        <mxCell id="C1Lx6RwTq1piZFSp2DUt-454" value="" style="shape=tableRow;horizontal=0;startSize=0;swimlaneHead=0;swimlaneBody=0;fillColor=none;collapsible=0;dropTarget=0;points=[[0,0.5],[1,0.5]];portConstraint=eastwest;top=0;left=0;right=0;bottom=0;rounded=1;shadow=0;sketch=0;" vertex="1" parent="C1Lx6RwTq1piZFSp2DUt-447">
          <mxGeometry y="90" width="245" height="30" as="geometry" />
        </mxCell>
        <mxCell id="C1Lx6RwTq1piZFSp2DUt-455" value="" style="shape=partialRectangle;connectable=0;fillColor=none;top=0;left=0;bottom=0;right=0;editable=1;overflow=hidden;rounded=1;shadow=0;sketch=0;" vertex="1" parent="C1Lx6RwTq1piZFSp2DUt-454">
          <mxGeometry width="45" height="30" as="geometry">
            <mxRectangle width="45" height="30" as="alternateBounds" />
          </mxGeometry>
        </mxCell>
        <mxCell id="C1Lx6RwTq1piZFSp2DUt-456" value="username char()" style="shape=partialRectangle;connectable=0;fillColor=none;top=0;left=0;bottom=0;right=0;align=left;spacingLeft=6;overflow=hidden;rounded=1;shadow=0;sketch=0;" vertex="1" parent="C1Lx6RwTq1piZFSp2DUt-454">
          <mxGeometry x="45" width="200" height="30" as="geometry">
            <mxRectangle width="200" height="30" as="alternateBounds" />
          </mxGeometry>
        </mxCell>
        <mxCell id="C1Lx6RwTq1piZFSp2DUt-457" value="" style="shape=tableRow;horizontal=0;startSize=0;swimlaneHead=0;swimlaneBody=0;fillColor=none;collapsible=0;dropTarget=0;points=[[0,0.5],[1,0.5]];portConstraint=eastwest;top=0;left=0;right=0;bottom=0;rounded=1;shadow=0;sketch=0;" vertex="1" parent="C1Lx6RwTq1piZFSp2DUt-447">
          <mxGeometry y="120" width="245" height="30" as="geometry" />
        </mxCell>
        <mxCell id="C1Lx6RwTq1piZFSp2DUt-458" value="" style="shape=partialRectangle;connectable=0;fillColor=none;top=0;left=0;bottom=0;right=0;editable=1;overflow=hidden;rounded=1;shadow=0;sketch=0;" vertex="1" parent="C1Lx6RwTq1piZFSp2DUt-457">
          <mxGeometry width="45" height="30" as="geometry">
            <mxRectangle width="45" height="30" as="alternateBounds" />
          </mxGeometry>
        </mxCell>
        <mxCell id="C1Lx6RwTq1piZFSp2DUt-459" value="link char()" style="shape=partialRectangle;connectable=0;fillColor=none;top=0;left=0;bottom=0;right=0;align=left;spacingLeft=6;overflow=hidden;rounded=1;shadow=0;sketch=0;" vertex="1" parent="C1Lx6RwTq1piZFSp2DUt-457">
          <mxGeometry x="45" width="200" height="30" as="geometry">
            <mxRectangle width="200" height="30" as="alternateBounds" />
          </mxGeometry>
        </mxCell>
        <mxCell id="C1Lx6RwTq1piZFSp2DUt-460" value="Keybase" style="shape=table;startSize=30;container=1;collapsible=1;childLayout=tableLayout;fixedRows=1;rowLines=0;fontStyle=1;align=center;resizeLast=1;rounded=1;shadow=0;sketch=0;fillColor=default;gradientColor=none;swimlaneFillColor=default;" vertex="1" parent="1">
          <mxGeometry x="1200" y="800" width="245" height="160" as="geometry" />
        </mxCell>
        <mxCell id="C1Lx6RwTq1piZFSp2DUt-461" value="" style="shape=tableRow;horizontal=0;startSize=0;swimlaneHead=0;swimlaneBody=0;fillColor=none;collapsible=0;dropTarget=0;points=[[0,0.5],[1,0.5]];portConstraint=eastwest;top=0;left=0;right=0;bottom=0;rounded=1;shadow=0;sketch=0;" vertex="1" parent="C1Lx6RwTq1piZFSp2DUt-460">
          <mxGeometry y="30" width="245" height="30" as="geometry" />
        </mxCell>
        <mxCell id="C1Lx6RwTq1piZFSp2DUt-462" value="PK" style="shape=partialRectangle;connectable=0;fillColor=none;top=0;left=0;bottom=0;right=0;fontStyle=1;overflow=hidden;rounded=1;shadow=0;sketch=0;" vertex="1" parent="C1Lx6RwTq1piZFSp2DUt-461">
          <mxGeometry width="45" height="30" as="geometry">
            <mxRectangle width="45" height="30" as="alternateBounds" />
          </mxGeometry>
        </mxCell>
        <mxCell id="C1Lx6RwTq1piZFSp2DUt-463" value="id uuid UNIQUE NOT NULL" style="shape=partialRectangle;connectable=0;fillColor=none;top=0;left=0;bottom=0;right=0;align=left;spacingLeft=6;fontStyle=1;overflow=hidden;rounded=1;shadow=0;sketch=0;" vertex="1" parent="C1Lx6RwTq1piZFSp2DUt-461">
          <mxGeometry x="45" width="200" height="30" as="geometry">
            <mxRectangle width="200" height="30" as="alternateBounds" />
          </mxGeometry>
        </mxCell>
        <mxCell id="C1Lx6RwTq1piZFSp2DUt-464" value="" style="shape=tableRow;horizontal=0;startSize=0;swimlaneHead=0;swimlaneBody=0;fillColor=none;collapsible=0;dropTarget=0;points=[[0,0.5],[1,0.5]];portConstraint=eastwest;top=0;left=0;right=0;bottom=1;rounded=1;shadow=0;sketch=0;" vertex="1" parent="C1Lx6RwTq1piZFSp2DUt-460">
          <mxGeometry y="60" width="245" height="30" as="geometry" />
        </mxCell>
        <mxCell id="C1Lx6RwTq1piZFSp2DUt-465" value="FK" style="shape=partialRectangle;connectable=0;fillColor=none;top=0;left=0;bottom=0;right=0;fontStyle=1;overflow=hidden;rounded=1;shadow=0;sketch=0;" vertex="1" parent="C1Lx6RwTq1piZFSp2DUt-464">
          <mxGeometry width="45" height="30" as="geometry">
            <mxRectangle width="45" height="30" as="alternateBounds" />
          </mxGeometry>
        </mxCell>
        <mxCell id="C1Lx6RwTq1piZFSp2DUt-466" value="contact_card uuid NOT NULL" style="shape=partialRectangle;connectable=0;fillColor=none;top=0;left=0;bottom=0;right=0;align=left;spacingLeft=6;fontStyle=1;overflow=hidden;rounded=1;shadow=0;sketch=0;" vertex="1" parent="C1Lx6RwTq1piZFSp2DUt-464">
          <mxGeometry x="45" width="200" height="30" as="geometry">
            <mxRectangle width="200" height="30" as="alternateBounds" />
          </mxGeometry>
        </mxCell>
        <mxCell id="C1Lx6RwTq1piZFSp2DUt-467" value="" style="shape=tableRow;horizontal=0;startSize=0;swimlaneHead=0;swimlaneBody=0;fillColor=none;collapsible=0;dropTarget=0;points=[[0,0.5],[1,0.5]];portConstraint=eastwest;top=0;left=0;right=0;bottom=0;rounded=1;shadow=0;sketch=0;" vertex="1" parent="C1Lx6RwTq1piZFSp2DUt-460">
          <mxGeometry y="90" width="245" height="30" as="geometry" />
        </mxCell>
        <mxCell id="C1Lx6RwTq1piZFSp2DUt-468" value="" style="shape=partialRectangle;connectable=0;fillColor=none;top=0;left=0;bottom=0;right=0;editable=1;overflow=hidden;rounded=1;shadow=0;sketch=0;" vertex="1" parent="C1Lx6RwTq1piZFSp2DUt-467">
          <mxGeometry width="45" height="30" as="geometry">
            <mxRectangle width="45" height="30" as="alternateBounds" />
          </mxGeometry>
        </mxCell>
        <mxCell id="C1Lx6RwTq1piZFSp2DUt-469" value="username char()" style="shape=partialRectangle;connectable=0;fillColor=none;top=0;left=0;bottom=0;right=0;align=left;spacingLeft=6;overflow=hidden;rounded=1;shadow=0;sketch=0;" vertex="1" parent="C1Lx6RwTq1piZFSp2DUt-467">
          <mxGeometry x="45" width="200" height="30" as="geometry">
            <mxRectangle width="200" height="30" as="alternateBounds" />
          </mxGeometry>
        </mxCell>
        <mxCell id="C1Lx6RwTq1piZFSp2DUt-470" value="" style="shape=tableRow;horizontal=0;startSize=0;swimlaneHead=0;swimlaneBody=0;fillColor=none;collapsible=0;dropTarget=0;points=[[0,0.5],[1,0.5]];portConstraint=eastwest;top=0;left=0;right=0;bottom=0;rounded=1;shadow=0;sketch=0;" vertex="1" parent="C1Lx6RwTq1piZFSp2DUt-460">
          <mxGeometry y="120" width="245" height="30" as="geometry" />
        </mxCell>
        <mxCell id="C1Lx6RwTq1piZFSp2DUt-471" value="" style="shape=partialRectangle;connectable=0;fillColor=none;top=0;left=0;bottom=0;right=0;editable=1;overflow=hidden;rounded=1;shadow=0;sketch=0;" vertex="1" parent="C1Lx6RwTq1piZFSp2DUt-470">
          <mxGeometry width="45" height="30" as="geometry">
            <mxRectangle width="45" height="30" as="alternateBounds" />
          </mxGeometry>
        </mxCell>
        <mxCell id="C1Lx6RwTq1piZFSp2DUt-472" value="link char()" style="shape=partialRectangle;connectable=0;fillColor=none;top=0;left=0;bottom=0;right=0;align=left;spacingLeft=6;overflow=hidden;rounded=1;shadow=0;sketch=0;" vertex="1" parent="C1Lx6RwTq1piZFSp2DUt-470">
          <mxGeometry x="45" width="200" height="30" as="geometry">
            <mxRectangle width="200" height="30" as="alternateBounds" />
          </mxGeometry>
        </mxCell>
        <mxCell id="C1Lx6RwTq1piZFSp2DUt-473" value="Codewars" style="shape=table;startSize=30;container=1;collapsible=1;childLayout=tableLayout;fixedRows=1;rowLines=0;fontStyle=1;align=center;resizeLast=1;rounded=1;shadow=0;sketch=0;fillColor=default;gradientColor=none;swimlaneFillColor=default;" vertex="1" parent="1">
          <mxGeometry x="900" y="980" width="245" height="160" as="geometry" />
        </mxCell>
        <mxCell id="C1Lx6RwTq1piZFSp2DUt-474" value="" style="shape=tableRow;horizontal=0;startSize=0;swimlaneHead=0;swimlaneBody=0;fillColor=none;collapsible=0;dropTarget=0;points=[[0,0.5],[1,0.5]];portConstraint=eastwest;top=0;left=0;right=0;bottom=0;rounded=1;shadow=0;sketch=0;" vertex="1" parent="C1Lx6RwTq1piZFSp2DUt-473">
          <mxGeometry y="30" width="245" height="30" as="geometry" />
        </mxCell>
        <mxCell id="C1Lx6RwTq1piZFSp2DUt-475" value="PK" style="shape=partialRectangle;connectable=0;fillColor=none;top=0;left=0;bottom=0;right=0;fontStyle=1;overflow=hidden;rounded=1;shadow=0;sketch=0;" vertex="1" parent="C1Lx6RwTq1piZFSp2DUt-474">
          <mxGeometry width="45" height="30" as="geometry">
            <mxRectangle width="45" height="30" as="alternateBounds" />
          </mxGeometry>
        </mxCell>
        <mxCell id="C1Lx6RwTq1piZFSp2DUt-476" value="id uuid UNIQUE NOT NULL" style="shape=partialRectangle;connectable=0;fillColor=none;top=0;left=0;bottom=0;right=0;align=left;spacingLeft=6;fontStyle=1;overflow=hidden;rounded=1;shadow=0;sketch=0;" vertex="1" parent="C1Lx6RwTq1piZFSp2DUt-474">
          <mxGeometry x="45" width="200" height="30" as="geometry">
            <mxRectangle width="200" height="30" as="alternateBounds" />
          </mxGeometry>
        </mxCell>
        <mxCell id="C1Lx6RwTq1piZFSp2DUt-477" value="" style="shape=tableRow;horizontal=0;startSize=0;swimlaneHead=0;swimlaneBody=0;fillColor=none;collapsible=0;dropTarget=0;points=[[0,0.5],[1,0.5]];portConstraint=eastwest;top=0;left=0;right=0;bottom=1;rounded=1;shadow=0;sketch=0;" vertex="1" parent="C1Lx6RwTq1piZFSp2DUt-473">
          <mxGeometry y="60" width="245" height="30" as="geometry" />
        </mxCell>
        <mxCell id="C1Lx6RwTq1piZFSp2DUt-478" value="FK" style="shape=partialRectangle;connectable=0;fillColor=none;top=0;left=0;bottom=0;right=0;fontStyle=1;overflow=hidden;rounded=1;shadow=0;sketch=0;" vertex="1" parent="C1Lx6RwTq1piZFSp2DUt-477">
          <mxGeometry width="45" height="30" as="geometry">
            <mxRectangle width="45" height="30" as="alternateBounds" />
          </mxGeometry>
        </mxCell>
        <mxCell id="C1Lx6RwTq1piZFSp2DUt-479" value="contact_card uuid NOT NULL" style="shape=partialRectangle;connectable=0;fillColor=none;top=0;left=0;bottom=0;right=0;align=left;spacingLeft=6;fontStyle=1;overflow=hidden;rounded=1;shadow=0;sketch=0;" vertex="1" parent="C1Lx6RwTq1piZFSp2DUt-477">
          <mxGeometry x="45" width="200" height="30" as="geometry">
            <mxRectangle width="200" height="30" as="alternateBounds" />
          </mxGeometry>
        </mxCell>
        <mxCell id="C1Lx6RwTq1piZFSp2DUt-480" value="" style="shape=tableRow;horizontal=0;startSize=0;swimlaneHead=0;swimlaneBody=0;fillColor=none;collapsible=0;dropTarget=0;points=[[0,0.5],[1,0.5]];portConstraint=eastwest;top=0;left=0;right=0;bottom=0;rounded=1;shadow=0;sketch=0;" vertex="1" parent="C1Lx6RwTq1piZFSp2DUt-473">
          <mxGeometry y="90" width="245" height="30" as="geometry" />
        </mxCell>
        <mxCell id="C1Lx6RwTq1piZFSp2DUt-481" value="" style="shape=partialRectangle;connectable=0;fillColor=none;top=0;left=0;bottom=0;right=0;editable=1;overflow=hidden;rounded=1;shadow=0;sketch=0;" vertex="1" parent="C1Lx6RwTq1piZFSp2DUt-480">
          <mxGeometry width="45" height="30" as="geometry">
            <mxRectangle width="45" height="30" as="alternateBounds" />
          </mxGeometry>
        </mxCell>
        <mxCell id="C1Lx6RwTq1piZFSp2DUt-482" value="username char()" style="shape=partialRectangle;connectable=0;fillColor=none;top=0;left=0;bottom=0;right=0;align=left;spacingLeft=6;overflow=hidden;rounded=1;shadow=0;sketch=0;" vertex="1" parent="C1Lx6RwTq1piZFSp2DUt-480">
          <mxGeometry x="45" width="200" height="30" as="geometry">
            <mxRectangle width="200" height="30" as="alternateBounds" />
          </mxGeometry>
        </mxCell>
        <mxCell id="C1Lx6RwTq1piZFSp2DUt-483" value="" style="shape=tableRow;horizontal=0;startSize=0;swimlaneHead=0;swimlaneBody=0;fillColor=none;collapsible=0;dropTarget=0;points=[[0,0.5],[1,0.5]];portConstraint=eastwest;top=0;left=0;right=0;bottom=0;rounded=1;shadow=0;sketch=0;" vertex="1" parent="C1Lx6RwTq1piZFSp2DUt-473">
          <mxGeometry y="120" width="245" height="30" as="geometry" />
        </mxCell>
        <mxCell id="C1Lx6RwTq1piZFSp2DUt-484" value="" style="shape=partialRectangle;connectable=0;fillColor=none;top=0;left=0;bottom=0;right=0;editable=1;overflow=hidden;rounded=1;shadow=0;sketch=0;" vertex="1" parent="C1Lx6RwTq1piZFSp2DUt-483">
          <mxGeometry width="45" height="30" as="geometry">
            <mxRectangle width="45" height="30" as="alternateBounds" />
          </mxGeometry>
        </mxCell>
        <mxCell id="C1Lx6RwTq1piZFSp2DUt-485" value="link char()" style="shape=partialRectangle;connectable=0;fillColor=none;top=0;left=0;bottom=0;right=0;align=left;spacingLeft=6;overflow=hidden;rounded=1;shadow=0;sketch=0;" vertex="1" parent="C1Lx6RwTq1piZFSp2DUt-483">
          <mxGeometry x="45" width="200" height="30" as="geometry">
            <mxRectangle width="200" height="30" as="alternateBounds" />
          </mxGeometry>
        </mxCell>
        <mxCell id="C1Lx6RwTq1piZFSp2DUt-486" value="LinkedIn" style="shape=table;startSize=30;container=1;collapsible=1;childLayout=tableLayout;fixedRows=1;rowLines=0;fontStyle=1;align=center;resizeLast=1;rounded=1;shadow=0;sketch=0;fillColor=default;gradientColor=none;swimlaneFillColor=default;" vertex="1" parent="1">
          <mxGeometry x="1200" y="976" width="245" height="160" as="geometry" />
        </mxCell>
        <mxCell id="C1Lx6RwTq1piZFSp2DUt-487" value="" style="shape=tableRow;horizontal=0;startSize=0;swimlaneHead=0;swimlaneBody=0;fillColor=none;collapsible=0;dropTarget=0;points=[[0,0.5],[1,0.5]];portConstraint=eastwest;top=0;left=0;right=0;bottom=0;rounded=1;shadow=0;sketch=0;" vertex="1" parent="C1Lx6RwTq1piZFSp2DUt-486">
          <mxGeometry y="30" width="245" height="30" as="geometry" />
        </mxCell>
        <mxCell id="C1Lx6RwTq1piZFSp2DUt-488" value="PK" style="shape=partialRectangle;connectable=0;fillColor=none;top=0;left=0;bottom=0;right=0;fontStyle=1;overflow=hidden;rounded=1;shadow=0;sketch=0;" vertex="1" parent="C1Lx6RwTq1piZFSp2DUt-487">
          <mxGeometry width="45" height="30" as="geometry">
            <mxRectangle width="45" height="30" as="alternateBounds" />
          </mxGeometry>
        </mxCell>
        <mxCell id="C1Lx6RwTq1piZFSp2DUt-489" value="id uuid UNIQUE NOT NULL" style="shape=partialRectangle;connectable=0;fillColor=none;top=0;left=0;bottom=0;right=0;align=left;spacingLeft=6;fontStyle=1;overflow=hidden;rounded=1;shadow=0;sketch=0;" vertex="1" parent="C1Lx6RwTq1piZFSp2DUt-487">
          <mxGeometry x="45" width="200" height="30" as="geometry">
            <mxRectangle width="200" height="30" as="alternateBounds" />
          </mxGeometry>
        </mxCell>
        <mxCell id="C1Lx6RwTq1piZFSp2DUt-490" value="" style="shape=tableRow;horizontal=0;startSize=0;swimlaneHead=0;swimlaneBody=0;fillColor=none;collapsible=0;dropTarget=0;points=[[0,0.5],[1,0.5]];portConstraint=eastwest;top=0;left=0;right=0;bottom=1;rounded=1;shadow=0;sketch=0;" vertex="1" parent="C1Lx6RwTq1piZFSp2DUt-486">
          <mxGeometry y="60" width="245" height="30" as="geometry" />
        </mxCell>
        <mxCell id="C1Lx6RwTq1piZFSp2DUt-491" value="FK" style="shape=partialRectangle;connectable=0;fillColor=none;top=0;left=0;bottom=0;right=0;fontStyle=1;overflow=hidden;rounded=1;shadow=0;sketch=0;" vertex="1" parent="C1Lx6RwTq1piZFSp2DUt-490">
          <mxGeometry width="45" height="30" as="geometry">
            <mxRectangle width="45" height="30" as="alternateBounds" />
          </mxGeometry>
        </mxCell>
        <mxCell id="C1Lx6RwTq1piZFSp2DUt-492" value="contact_card uuid NOT NULL" style="shape=partialRectangle;connectable=0;fillColor=none;top=0;left=0;bottom=0;right=0;align=left;spacingLeft=6;fontStyle=1;overflow=hidden;rounded=1;shadow=0;sketch=0;" vertex="1" parent="C1Lx6RwTq1piZFSp2DUt-490">
          <mxGeometry x="45" width="200" height="30" as="geometry">
            <mxRectangle width="200" height="30" as="alternateBounds" />
          </mxGeometry>
        </mxCell>
        <mxCell id="C1Lx6RwTq1piZFSp2DUt-493" value="" style="shape=tableRow;horizontal=0;startSize=0;swimlaneHead=0;swimlaneBody=0;fillColor=none;collapsible=0;dropTarget=0;points=[[0,0.5],[1,0.5]];portConstraint=eastwest;top=0;left=0;right=0;bottom=0;rounded=1;shadow=0;sketch=0;" vertex="1" parent="C1Lx6RwTq1piZFSp2DUt-486">
          <mxGeometry y="90" width="245" height="30" as="geometry" />
        </mxCell>
        <mxCell id="C1Lx6RwTq1piZFSp2DUt-494" value="" style="shape=partialRectangle;connectable=0;fillColor=none;top=0;left=0;bottom=0;right=0;editable=1;overflow=hidden;rounded=1;shadow=0;sketch=0;" vertex="1" parent="C1Lx6RwTq1piZFSp2DUt-493">
          <mxGeometry width="45" height="30" as="geometry">
            <mxRectangle width="45" height="30" as="alternateBounds" />
          </mxGeometry>
        </mxCell>
        <mxCell id="C1Lx6RwTq1piZFSp2DUt-495" value="username char()" style="shape=partialRectangle;connectable=0;fillColor=none;top=0;left=0;bottom=0;right=0;align=left;spacingLeft=6;overflow=hidden;rounded=1;shadow=0;sketch=0;" vertex="1" parent="C1Lx6RwTq1piZFSp2DUt-493">
          <mxGeometry x="45" width="200" height="30" as="geometry">
            <mxRectangle width="200" height="30" as="alternateBounds" />
          </mxGeometry>
        </mxCell>
        <mxCell id="C1Lx6RwTq1piZFSp2DUt-496" value="" style="shape=tableRow;horizontal=0;startSize=0;swimlaneHead=0;swimlaneBody=0;fillColor=none;collapsible=0;dropTarget=0;points=[[0,0.5],[1,0.5]];portConstraint=eastwest;top=0;left=0;right=0;bottom=0;rounded=1;shadow=0;sketch=0;" vertex="1" parent="C1Lx6RwTq1piZFSp2DUt-486">
          <mxGeometry y="120" width="245" height="30" as="geometry" />
        </mxCell>
        <mxCell id="C1Lx6RwTq1piZFSp2DUt-497" value="" style="shape=partialRectangle;connectable=0;fillColor=none;top=0;left=0;bottom=0;right=0;editable=1;overflow=hidden;rounded=1;shadow=0;sketch=0;" vertex="1" parent="C1Lx6RwTq1piZFSp2DUt-496">
          <mxGeometry width="45" height="30" as="geometry">
            <mxRectangle width="45" height="30" as="alternateBounds" />
          </mxGeometry>
        </mxCell>
        <mxCell id="C1Lx6RwTq1piZFSp2DUt-498" value="link char()" style="shape=partialRectangle;connectable=0;fillColor=none;top=0;left=0;bottom=0;right=0;align=left;spacingLeft=6;overflow=hidden;rounded=1;shadow=0;sketch=0;" vertex="1" parent="C1Lx6RwTq1piZFSp2DUt-496">
          <mxGeometry x="45" width="200" height="30" as="geometry">
            <mxRectangle width="200" height="30" as="alternateBounds" />
          </mxGeometry>
        </mxCell>
        <mxCell id="C1Lx6RwTq1piZFSp2DUt-499" value="Github" style="shape=table;startSize=30;container=1;collapsible=1;childLayout=tableLayout;fixedRows=1;rowLines=0;fontStyle=1;align=center;resizeLast=1;rounded=1;shadow=0;sketch=0;fillColor=default;gradientColor=none;swimlaneFillColor=default;" vertex="1" parent="1">
          <mxGeometry x="900" y="800" width="245" height="160" as="geometry" />
        </mxCell>
        <mxCell id="C1Lx6RwTq1piZFSp2DUt-500" value="" style="shape=tableRow;horizontal=0;startSize=0;swimlaneHead=0;swimlaneBody=0;fillColor=none;collapsible=0;dropTarget=0;points=[[0,0.5],[1,0.5]];portConstraint=eastwest;top=0;left=0;right=0;bottom=0;rounded=1;shadow=0;sketch=0;" vertex="1" parent="C1Lx6RwTq1piZFSp2DUt-499">
          <mxGeometry y="30" width="245" height="30" as="geometry" />
        </mxCell>
        <mxCell id="C1Lx6RwTq1piZFSp2DUt-501" value="PK" style="shape=partialRectangle;connectable=0;fillColor=none;top=0;left=0;bottom=0;right=0;fontStyle=1;overflow=hidden;rounded=1;shadow=0;sketch=0;" vertex="1" parent="C1Lx6RwTq1piZFSp2DUt-500">
          <mxGeometry width="45" height="30" as="geometry">
            <mxRectangle width="45" height="30" as="alternateBounds" />
          </mxGeometry>
        </mxCell>
        <mxCell id="C1Lx6RwTq1piZFSp2DUt-502" value="id uuid UNIQUE NOT NULL" style="shape=partialRectangle;connectable=0;fillColor=none;top=0;left=0;bottom=0;right=0;align=left;spacingLeft=6;fontStyle=1;overflow=hidden;rounded=1;shadow=0;sketch=0;" vertex="1" parent="C1Lx6RwTq1piZFSp2DUt-500">
          <mxGeometry x="45" width="200" height="30" as="geometry">
            <mxRectangle width="200" height="30" as="alternateBounds" />
          </mxGeometry>
        </mxCell>
        <mxCell id="C1Lx6RwTq1piZFSp2DUt-503" value="" style="shape=tableRow;horizontal=0;startSize=0;swimlaneHead=0;swimlaneBody=0;fillColor=none;collapsible=0;dropTarget=0;points=[[0,0.5],[1,0.5]];portConstraint=eastwest;top=0;left=0;right=0;bottom=1;rounded=1;shadow=0;sketch=0;" vertex="1" parent="C1Lx6RwTq1piZFSp2DUt-499">
          <mxGeometry y="60" width="245" height="30" as="geometry" />
        </mxCell>
        <mxCell id="C1Lx6RwTq1piZFSp2DUt-504" value="FK" style="shape=partialRectangle;connectable=0;fillColor=none;top=0;left=0;bottom=0;right=0;fontStyle=1;overflow=hidden;rounded=1;shadow=0;sketch=0;" vertex="1" parent="C1Lx6RwTq1piZFSp2DUt-503">
          <mxGeometry width="45" height="30" as="geometry">
            <mxRectangle width="45" height="30" as="alternateBounds" />
          </mxGeometry>
        </mxCell>
        <mxCell id="C1Lx6RwTq1piZFSp2DUt-505" value="contact_card uuid NOT NULL" style="shape=partialRectangle;connectable=0;fillColor=none;top=0;left=0;bottom=0;right=0;align=left;spacingLeft=6;fontStyle=1;overflow=hidden;rounded=1;shadow=0;sketch=0;" vertex="1" parent="C1Lx6RwTq1piZFSp2DUt-503">
          <mxGeometry x="45" width="200" height="30" as="geometry">
            <mxRectangle width="200" height="30" as="alternateBounds" />
          </mxGeometry>
        </mxCell>
        <mxCell id="C1Lx6RwTq1piZFSp2DUt-506" value="" style="shape=tableRow;horizontal=0;startSize=0;swimlaneHead=0;swimlaneBody=0;fillColor=none;collapsible=0;dropTarget=0;points=[[0,0.5],[1,0.5]];portConstraint=eastwest;top=0;left=0;right=0;bottom=0;rounded=1;shadow=0;sketch=0;" vertex="1" parent="C1Lx6RwTq1piZFSp2DUt-499">
          <mxGeometry y="90" width="245" height="30" as="geometry" />
        </mxCell>
        <mxCell id="C1Lx6RwTq1piZFSp2DUt-507" value="" style="shape=partialRectangle;connectable=0;fillColor=none;top=0;left=0;bottom=0;right=0;editable=1;overflow=hidden;rounded=1;shadow=0;sketch=0;" vertex="1" parent="C1Lx6RwTq1piZFSp2DUt-506">
          <mxGeometry width="45" height="30" as="geometry">
            <mxRectangle width="45" height="30" as="alternateBounds" />
          </mxGeometry>
        </mxCell>
        <mxCell id="C1Lx6RwTq1piZFSp2DUt-508" value="username char()" style="shape=partialRectangle;connectable=0;fillColor=none;top=0;left=0;bottom=0;right=0;align=left;spacingLeft=6;overflow=hidden;rounded=1;shadow=0;sketch=0;" vertex="1" parent="C1Lx6RwTq1piZFSp2DUt-506">
          <mxGeometry x="45" width="200" height="30" as="geometry">
            <mxRectangle width="200" height="30" as="alternateBounds" />
          </mxGeometry>
        </mxCell>
        <mxCell id="C1Lx6RwTq1piZFSp2DUt-509" value="" style="shape=tableRow;horizontal=0;startSize=0;swimlaneHead=0;swimlaneBody=0;fillColor=none;collapsible=0;dropTarget=0;points=[[0,0.5],[1,0.5]];portConstraint=eastwest;top=0;left=0;right=0;bottom=0;rounded=1;shadow=0;sketch=0;" vertex="1" parent="C1Lx6RwTq1piZFSp2DUt-499">
          <mxGeometry y="120" width="245" height="30" as="geometry" />
        </mxCell>
        <mxCell id="C1Lx6RwTq1piZFSp2DUt-510" value="" style="shape=partialRectangle;connectable=0;fillColor=none;top=0;left=0;bottom=0;right=0;editable=1;overflow=hidden;rounded=1;shadow=0;sketch=0;" vertex="1" parent="C1Lx6RwTq1piZFSp2DUt-509">
          <mxGeometry width="45" height="30" as="geometry">
            <mxRectangle width="45" height="30" as="alternateBounds" />
          </mxGeometry>
        </mxCell>
        <mxCell id="C1Lx6RwTq1piZFSp2DUt-511" value="link char()" style="shape=partialRectangle;connectable=0;fillColor=none;top=0;left=0;bottom=0;right=0;align=left;spacingLeft=6;overflow=hidden;rounded=1;shadow=0;sketch=0;" vertex="1" parent="C1Lx6RwTq1piZFSp2DUt-509">
          <mxGeometry x="45" width="200" height="30" as="geometry">
            <mxRectangle width="200" height="30" as="alternateBounds" />
          </mxGeometry>
        </mxCell>
        <mxCell id="C1Lx6RwTq1piZFSp2DUt-512" value="Codepen" style="shape=table;startSize=30;container=1;collapsible=1;childLayout=tableLayout;fixedRows=1;rowLines=0;fontStyle=1;align=center;resizeLast=1;rounded=1;shadow=0;sketch=0;fillColor=default;gradientColor=none;swimlaneFillColor=default;" vertex="1" parent="1">
          <mxGeometry x="1200" y="1160" width="245" height="160" as="geometry" />
        </mxCell>
        <mxCell id="C1Lx6RwTq1piZFSp2DUt-513" value="" style="shape=tableRow;horizontal=0;startSize=0;swimlaneHead=0;swimlaneBody=0;fillColor=none;collapsible=0;dropTarget=0;points=[[0,0.5],[1,0.5]];portConstraint=eastwest;top=0;left=0;right=0;bottom=0;rounded=1;shadow=0;sketch=0;" vertex="1" parent="C1Lx6RwTq1piZFSp2DUt-512">
          <mxGeometry y="30" width="245" height="30" as="geometry" />
        </mxCell>
        <mxCell id="C1Lx6RwTq1piZFSp2DUt-514" value="PK" style="shape=partialRectangle;connectable=0;fillColor=none;top=0;left=0;bottom=0;right=0;fontStyle=1;overflow=hidden;rounded=1;shadow=0;sketch=0;" vertex="1" parent="C1Lx6RwTq1piZFSp2DUt-513">
          <mxGeometry width="45" height="30" as="geometry">
            <mxRectangle width="45" height="30" as="alternateBounds" />
          </mxGeometry>
        </mxCell>
        <mxCell id="C1Lx6RwTq1piZFSp2DUt-515" value="id uuid UNIQUE NOT NULL" style="shape=partialRectangle;connectable=0;fillColor=none;top=0;left=0;bottom=0;right=0;align=left;spacingLeft=6;fontStyle=1;overflow=hidden;rounded=1;shadow=0;sketch=0;" vertex="1" parent="C1Lx6RwTq1piZFSp2DUt-513">
          <mxGeometry x="45" width="200" height="30" as="geometry">
            <mxRectangle width="200" height="30" as="alternateBounds" />
          </mxGeometry>
        </mxCell>
        <mxCell id="C1Lx6RwTq1piZFSp2DUt-516" value="" style="shape=tableRow;horizontal=0;startSize=0;swimlaneHead=0;swimlaneBody=0;fillColor=none;collapsible=0;dropTarget=0;points=[[0,0.5],[1,0.5]];portConstraint=eastwest;top=0;left=0;right=0;bottom=1;rounded=1;shadow=0;sketch=0;" vertex="1" parent="C1Lx6RwTq1piZFSp2DUt-512">
          <mxGeometry y="60" width="245" height="30" as="geometry" />
        </mxCell>
        <mxCell id="C1Lx6RwTq1piZFSp2DUt-517" value="FK" style="shape=partialRectangle;connectable=0;fillColor=none;top=0;left=0;bottom=0;right=0;fontStyle=1;overflow=hidden;rounded=1;shadow=0;sketch=0;" vertex="1" parent="C1Lx6RwTq1piZFSp2DUt-516">
          <mxGeometry width="45" height="30" as="geometry">
            <mxRectangle width="45" height="30" as="alternateBounds" />
          </mxGeometry>
        </mxCell>
        <mxCell id="C1Lx6RwTq1piZFSp2DUt-518" value="contact_card uuid NOT NULL" style="shape=partialRectangle;connectable=0;fillColor=none;top=0;left=0;bottom=0;right=0;align=left;spacingLeft=6;fontStyle=1;overflow=hidden;rounded=1;shadow=0;sketch=0;" vertex="1" parent="C1Lx6RwTq1piZFSp2DUt-516">
          <mxGeometry x="45" width="200" height="30" as="geometry">
            <mxRectangle width="200" height="30" as="alternateBounds" />
          </mxGeometry>
        </mxCell>
        <mxCell id="C1Lx6RwTq1piZFSp2DUt-519" value="" style="shape=tableRow;horizontal=0;startSize=0;swimlaneHead=0;swimlaneBody=0;fillColor=none;collapsible=0;dropTarget=0;points=[[0,0.5],[1,0.5]];portConstraint=eastwest;top=0;left=0;right=0;bottom=0;rounded=1;shadow=0;sketch=0;" vertex="1" parent="C1Lx6RwTq1piZFSp2DUt-512">
          <mxGeometry y="90" width="245" height="30" as="geometry" />
        </mxCell>
        <mxCell id="C1Lx6RwTq1piZFSp2DUt-520" value="" style="shape=partialRectangle;connectable=0;fillColor=none;top=0;left=0;bottom=0;right=0;editable=1;overflow=hidden;rounded=1;shadow=0;sketch=0;" vertex="1" parent="C1Lx6RwTq1piZFSp2DUt-519">
          <mxGeometry width="45" height="30" as="geometry">
            <mxRectangle width="45" height="30" as="alternateBounds" />
          </mxGeometry>
        </mxCell>
        <mxCell id="C1Lx6RwTq1piZFSp2DUt-521" value="username char()" style="shape=partialRectangle;connectable=0;fillColor=none;top=0;left=0;bottom=0;right=0;align=left;spacingLeft=6;overflow=hidden;rounded=1;shadow=0;sketch=0;" vertex="1" parent="C1Lx6RwTq1piZFSp2DUt-519">
          <mxGeometry x="45" width="200" height="30" as="geometry">
            <mxRectangle width="200" height="30" as="alternateBounds" />
          </mxGeometry>
        </mxCell>
        <mxCell id="C1Lx6RwTq1piZFSp2DUt-522" value="" style="shape=tableRow;horizontal=0;startSize=0;swimlaneHead=0;swimlaneBody=0;fillColor=none;collapsible=0;dropTarget=0;points=[[0,0.5],[1,0.5]];portConstraint=eastwest;top=0;left=0;right=0;bottom=0;rounded=1;shadow=0;sketch=0;" vertex="1" parent="C1Lx6RwTq1piZFSp2DUt-512">
          <mxGeometry y="120" width="245" height="30" as="geometry" />
        </mxCell>
        <mxCell id="C1Lx6RwTq1piZFSp2DUt-523" value="" style="shape=partialRectangle;connectable=0;fillColor=none;top=0;left=0;bottom=0;right=0;editable=1;overflow=hidden;rounded=1;shadow=0;sketch=0;" vertex="1" parent="C1Lx6RwTq1piZFSp2DUt-522">
          <mxGeometry width="45" height="30" as="geometry">
            <mxRectangle width="45" height="30" as="alternateBounds" />
          </mxGeometry>
        </mxCell>
        <mxCell id="C1Lx6RwTq1piZFSp2DUt-524" value="link char()" style="shape=partialRectangle;connectable=0;fillColor=none;top=0;left=0;bottom=0;right=0;align=left;spacingLeft=6;overflow=hidden;rounded=1;shadow=0;sketch=0;" vertex="1" parent="C1Lx6RwTq1piZFSp2DUt-522">
          <mxGeometry x="45" width="200" height="30" as="geometry">
            <mxRectangle width="200" height="30" as="alternateBounds" />
          </mxGeometry>
        </mxCell>
        <mxCell id="C1Lx6RwTq1piZFSp2DUt-525" value="acct_managment app" style="text;html=1;strokeColor=none;fillColor=none;align=center;verticalAlign=middle;whiteSpace=wrap;rounded=0;shadow=0;sketch=0;" vertex="1" parent="1">
          <mxGeometry x="1394" y="440" width="130" height="30" as="geometry" />
        </mxCell>
        <UserObject label="" lucidchartObjectId="0VwZFwrsJFYA" id="C1Lx6RwTq1piZFSp2DUt-526">
          <mxCell style="html=1;jettySize=18;whiteSpace=wrap;fontSize=13;strokeColor=#1A1A1A;strokeWidth=1.5;rounded=1;arcSize=12;edgeStyle=orthogonalEdgeStyle;startArrow=ERmany;startSize=10;endArrow=ERzeroToOne;endSize=10;entryX=1;entryY=0.5;entryDx=0;entryDy=0;exitX=0;exitY=0.5;exitDx=0;exitDy=0;" edge="1" parent="1" source="C1Lx6RwTq1piZFSp2DUt-464" target="C1Lx6RwTq1piZFSp2DUt-329">
            <mxGeometry width="100" height="100" relative="1" as="geometry">
              <Array as="points">
                <mxPoint x="1170" y="875" />
                <mxPoint x="1170" y="780" />
                <mxPoint x="850" y="780" />
                <mxPoint x="850" y="545" />
              </Array>
              <mxPoint x="1210" y="1061" as="sourcePoint" />
              <mxPoint x="819.9999999999995" y="555" as="targetPoint" />
            </mxGeometry>
          </mxCell>
        </UserObject>
        <mxCell id="C1Lx6RwTq1piZFSp2DUt-527" value="Bio" style="shape=table;startSize=30;container=1;collapsible=1;childLayout=tableLayout;fixedRows=1;rowLines=0;fontStyle=1;align=center;resizeLast=1;rounded=1;shadow=0;sketch=0;fillColor=default;gradientColor=none;swimlaneFillColor=default;" vertex="1" parent="1">
          <mxGeometry x="500" y="980" width="285" height="160" as="geometry" />
        </mxCell>
        <mxCell id="C1Lx6RwTq1piZFSp2DUt-528" value="" style="shape=tableRow;horizontal=0;startSize=0;swimlaneHead=0;swimlaneBody=0;fillColor=none;collapsible=0;dropTarget=0;points=[[0,0.5],[1,0.5]];portConstraint=eastwest;top=0;left=0;right=0;bottom=0;rounded=1;shadow=0;sketch=0;" vertex="1" parent="C1Lx6RwTq1piZFSp2DUt-527">
          <mxGeometry y="30" width="285" height="30" as="geometry" />
        </mxCell>
        <mxCell id="C1Lx6RwTq1piZFSp2DUt-529" value="PK" style="shape=partialRectangle;connectable=0;fillColor=none;top=0;left=0;bottom=0;right=0;fontStyle=1;overflow=hidden;rounded=1;shadow=0;sketch=0;" vertex="1" parent="C1Lx6RwTq1piZFSp2DUt-528">
          <mxGeometry width="45" height="30" as="geometry">
            <mxRectangle width="45" height="30" as="alternateBounds" />
          </mxGeometry>
        </mxCell>
        <mxCell id="C1Lx6RwTq1piZFSp2DUt-530" value="id uuid UNIQUE NOT NULL" style="shape=partialRectangle;connectable=0;fillColor=none;top=0;left=0;bottom=0;right=0;align=left;spacingLeft=6;fontStyle=1;overflow=hidden;rounded=1;shadow=0;sketch=0;" vertex="1" parent="C1Lx6RwTq1piZFSp2DUt-528">
          <mxGeometry x="45" width="240" height="30" as="geometry">
            <mxRectangle width="240" height="30" as="alternateBounds" />
          </mxGeometry>
        </mxCell>
        <mxCell id="C1Lx6RwTq1piZFSp2DUt-531" value="" style="shape=tableRow;horizontal=0;startSize=0;swimlaneHead=0;swimlaneBody=0;fillColor=none;collapsible=0;dropTarget=0;points=[[0,0.5],[1,0.5]];portConstraint=eastwest;top=0;left=0;right=0;bottom=1;rounded=1;shadow=0;sketch=0;" vertex="1" parent="C1Lx6RwTq1piZFSp2DUt-527">
          <mxGeometry y="60" width="285" height="30" as="geometry" />
        </mxCell>
        <mxCell id="C1Lx6RwTq1piZFSp2DUt-532" value="FK" style="shape=partialRectangle;connectable=0;fillColor=none;top=0;left=0;bottom=0;right=0;fontStyle=1;overflow=hidden;rounded=1;shadow=0;sketch=0;" vertex="1" parent="C1Lx6RwTq1piZFSp2DUt-531">
          <mxGeometry width="45" height="30" as="geometry">
            <mxRectangle width="45" height="30" as="alternateBounds" />
          </mxGeometry>
        </mxCell>
        <mxCell id="C1Lx6RwTq1piZFSp2DUt-533" value="user uuid NOT NULL" style="shape=partialRectangle;connectable=0;fillColor=none;top=0;left=0;bottom=0;right=0;align=left;spacingLeft=6;fontStyle=1;overflow=hidden;rounded=1;shadow=0;sketch=0;" vertex="1" parent="C1Lx6RwTq1piZFSp2DUt-531">
          <mxGeometry x="45" width="240" height="30" as="geometry">
            <mxRectangle width="240" height="30" as="alternateBounds" />
          </mxGeometry>
        </mxCell>
        <mxCell id="C1Lx6RwTq1piZFSp2DUt-534" value="" style="shape=tableRow;horizontal=0;startSize=0;swimlaneHead=0;swimlaneBody=0;fillColor=none;collapsible=0;dropTarget=0;points=[[0,0.5],[1,0.5]];portConstraint=eastwest;top=0;left=0;right=0;bottom=0;rounded=1;shadow=0;sketch=0;" vertex="1" parent="C1Lx6RwTq1piZFSp2DUt-527">
          <mxGeometry y="90" width="285" height="30" as="geometry" />
        </mxCell>
        <mxCell id="C1Lx6RwTq1piZFSp2DUt-535" value="" style="shape=partialRectangle;connectable=0;fillColor=none;top=0;left=0;bottom=0;right=0;editable=1;overflow=hidden;rounded=1;shadow=0;sketch=0;" vertex="1" parent="C1Lx6RwTq1piZFSp2DUt-534">
          <mxGeometry width="45" height="30" as="geometry">
            <mxRectangle width="45" height="30" as="alternateBounds" />
          </mxGeometry>
        </mxCell>
        <mxCell id="C1Lx6RwTq1piZFSp2DUt-536" value="profession char()" style="shape=partialRectangle;connectable=0;fillColor=none;top=0;left=0;bottom=0;right=0;align=left;spacingLeft=6;overflow=hidden;rounded=1;shadow=0;sketch=0;" vertex="1" parent="C1Lx6RwTq1piZFSp2DUt-534">
          <mxGeometry x="45" width="240" height="30" as="geometry">
            <mxRectangle width="240" height="30" as="alternateBounds" />
          </mxGeometry>
        </mxCell>
        <mxCell id="C1Lx6RwTq1piZFSp2DUt-537" value="" style="shape=tableRow;horizontal=0;startSize=0;swimlaneHead=0;swimlaneBody=0;fillColor=none;collapsible=0;dropTarget=0;points=[[0,0.5],[1,0.5]];portConstraint=eastwest;top=0;left=0;right=0;bottom=0;rounded=1;shadow=0;sketch=0;" vertex="1" parent="C1Lx6RwTq1piZFSp2DUt-527">
          <mxGeometry y="120" width="285" height="30" as="geometry" />
        </mxCell>
        <mxCell id="C1Lx6RwTq1piZFSp2DUt-538" value="" style="shape=partialRectangle;connectable=0;fillColor=none;top=0;left=0;bottom=0;right=0;editable=1;overflow=hidden;rounded=1;shadow=0;sketch=0;" vertex="1" parent="C1Lx6RwTq1piZFSp2DUt-537">
          <mxGeometry width="45" height="30" as="geometry">
            <mxRectangle width="45" height="30" as="alternateBounds" />
          </mxGeometry>
        </mxCell>
        <mxCell id="C1Lx6RwTq1piZFSp2DUt-539" value="copy char()" style="shape=partialRectangle;connectable=0;fillColor=none;top=0;left=0;bottom=0;right=0;align=left;spacingLeft=6;overflow=hidden;rounded=1;shadow=0;sketch=0;" vertex="1" parent="C1Lx6RwTq1piZFSp2DUt-537">
          <mxGeometry x="45" width="240" height="30" as="geometry">
            <mxRectangle width="240" height="30" as="alternateBounds" />
          </mxGeometry>
        </mxCell>
      </root>
    </mxGraphModel>
  </diagram>
</mxfile>
